<ttFont>
    <TTGlyph name="A" xMin="55" yMin="-75" xMax="355" yMax="660">
      <contour>
        <pt x="354" y="-44" on="1"/>
        <pt x="355" y="-48" on="0"/>
        <pt x="355" y="-51" on="1"/>
        <pt x="355" y="-57" on="1"/>
        <pt x="355" y="-67" on="0"/>
        <pt x="346" y="-75" on="0"/>
        <pt x="333" y="-75" on="1"/>
        <pt x="321" y="-75" on="0"/>
        <pt x="317" y="-71" on="1"/>
        <pt x="311" y="-65" on="0"/>
        <pt x="291" y="-15" on="0"/>
        <pt x="269" y="53" on="0"/>
        <pt x="248" y="131" on="0"/>
        <pt x="240" y="166" on="1"/>
        <pt x="229" y="161" on="0"/>
        <pt x="191" y="150" on="0"/>
        <pt x="171" y="145" on="1"/>
        <pt x="148" y="140" on="0"/>
        <pt x="123" y="134" on="1"/>
        <pt x="114" y="91" on="0"/>
        <pt x="105" y="30" on="0"/>
        <pt x="98" y="-9" on="0"/>
        <pt x="87" y="-28" on="0"/>
        <pt x="75" y="-28" on="1"/>
        <pt x="67" y="-28" on="0"/>
        <pt x="55" y="-10" on="0"/>
        <pt x="55" y="8" on="1"/>
        <pt x="55" y="17" on="0"/>
        <pt x="65" y="83" on="0"/>
        <pt x="77" y="164" on="0"/>
        <pt x="89" y="244" on="0"/>
        <pt x="91" y="267" on="1"/>
        <pt x="92" y="279" on="0"/>
        <pt x="103" y="333" on="0"/>
        <pt x="115" y="390" on="0"/>
        <pt x="127" y="436" on="0"/>
        <pt x="129" y="439" on="1"/>
        <pt x="145" y="476" on="0"/>
        <pt x="154" y="554" on="0"/>
        <pt x="159" y="619" on="0"/>
        <pt x="171" y="660" on="0"/>
        <pt x="190" y="660" on="1"/>
        <pt x="195" y="660" on="0"/>
        <pt x="206" y="644" on="0"/>
        <pt x="216" y="622" on="0"/>
        <pt x="222" y="601" on="0"/>
        <pt x="223" y="595" on="1"/>
        <pt x="224" y="589" on="0"/>
        <pt x="227" y="553" on="0"/>
        <pt x="230" y="510" on="0"/>
        <pt x="233" y="469" on="0"/>
        <pt x="234" y="458" on="1"/>
        <pt x="237" y="425" on="0"/>
        <pt x="250" y="343" on="0"/>
        <pt x="264" y="271" on="0"/>
        <pt x="276" y="222" on="0"/>
        <pt x="279" y="222" on="1"/>
        <pt x="283" y="222" on="0"/>
        <pt x="296" y="226" on="0"/>
        <pt x="302" y="226" on="1"/>
        <pt x="310" y="226" on="0"/>
        <pt x="310" y="218" on="1"/>
        <pt x="310" y="210" on="0"/>
        <pt x="302" y="200" on="0"/>
        <pt x="293" y="192" on="0"/>
        <pt x="286" y="186" on="0"/>
        <pt x="286" y="182" on="1"/>
        <pt x="286" y="174" on="0"/>
        <pt x="295" y="141" on="1"/>
        <pt x="311" y="82" on="1"/>
        <pt x="313" y="74" on="0"/>
        <pt x="327" y="36" on="0"/>
        <pt x="342" y="-5" on="0"/>
        <pt x="354" y="-40" on="0"/>
      </contour>
      <contour>
        <pt x="132" y="185" on="1"/>
        <pt x="138" y="185" on="0"/>
        <pt x="170" y="192" on="0"/>
        <pt x="204" y="202" on="0"/>
        <pt x="230" y="212" on="0"/>
        <pt x="230" y="215" on="1"/>
        <pt x="230" y="218" on="0"/>
        <pt x="223" y="243" on="0"/>
        <pt x="214" y="282" on="0"/>
        <pt x="204" y="332" on="0"/>
        <pt x="200" y="360" on="1"/>
        <pt x="198" y="378" on="0"/>
        <pt x="192" y="440" on="0"/>
        <pt x="186" y="501" on="0"/>
        <pt x="184" y="523" on="1"/>
        <pt x="182" y="545" on="1"/>
        <pt x="179" y="531" on="1"/>
        <pt x="176" y="516" on="0"/>
        <pt x="169" y="481" on="0"/>
        <pt x="164" y="450" on="0"/>
        <pt x="164" y="448" on="1"/>
        <pt x="164" y="420" on="1"/>
        <pt x="164" y="418" on="0"/>
        <pt x="159" y="387" on="0"/>
        <pt x="151" y="340" on="0"/>
        <pt x="142" y="285" on="0"/>
        <pt x="134" y="235" on="0"/>
        <pt x="129" y="196" on="0"/>
        <pt x="129" y="189" on="1"/>
        <pt x="129" y="185" on="0"/>
      </contour>
    </TTGlyph>
    <TTGlyph name="AE" xMin="55" yMin="-75" xMax="506" yMax="660">
      <contour>
        <pt x="354" y="-44" on="1"/>
        <pt x="355" y="-48" on="0"/>
        <pt x="355" y="-51" on="1"/>
        <pt x="355" y="-57" on="1"/>
        <pt x="355" y="-67" on="0"/>
        <pt x="346" y="-75" on="0"/>
        <pt x="333" y="-75" on="1"/>
        <pt x="321" y="-75" on="0"/>
        <pt x="317" y="-71" on="1"/>
        <pt x="311" y="-65" on="0"/>
        <pt x="298" y="-34" on="1"/>
        <pt x="297" y="-34" on="1"/>
        <pt x="286" y="-34" on="0"/>
        <pt x="262" y="-19" on="0"/>
        <pt x="262" y="-8" on="1"/>
        <pt x="262" y="-2" on="0"/>
        <pt x="277" y="1" on="0"/>
        <pt x="285" y="3" on="1"/>
        <pt x="273" y="39" on="0"/>
        <pt x="249" y="127" on="0"/>
        <pt x="240" y="166" on="1"/>
        <pt x="229" y="161" on="0"/>
        <pt x="191" y="150" on="0"/>
        <pt x="171" y="145" on="1"/>
        <pt x="148" y="140" on="0"/>
        <pt x="123" y="134" on="1"/>
        <pt x="114" y="91" on="0"/>
        <pt x="105" y="30" on="0"/>
        <pt x="98" y="-9" on="0"/>
        <pt x="87" y="-28" on="0"/>
        <pt x="75" y="-28" on="1"/>
        <pt x="67" y="-28" on="0"/>
        <pt x="55" y="-10" on="0"/>
        <pt x="55" y="8" on="1"/>
        <pt x="55" y="17" on="0"/>
        <pt x="65" y="83" on="0"/>
        <pt x="77" y="164" on="0"/>
        <pt x="89" y="244" on="0"/>
        <pt x="91" y="267" on="1"/>
        <pt x="92" y="279" on="0"/>
        <pt x="103" y="333" on="0"/>
        <pt x="115" y="390" on="0"/>
        <pt x="127" y="436" on="0"/>
        <pt x="129" y="439" on="1"/>
        <pt x="145" y="476" on="0"/>
        <pt x="154" y="554" on="0"/>
        <pt x="159" y="619" on="0"/>
        <pt x="171" y="660" on="0"/>
        <pt x="190" y="660" on="1"/>
        <pt x="195" y="660" on="0"/>
        <pt x="206" y="644" on="0"/>
        <pt x="216" y="622" on="0"/>
        <pt x="222" y="601" on="0"/>
        <pt x="223" y="595" on="1"/>
        <pt x="224" y="589" on="0"/>
        <pt x="227" y="553" on="0"/>
        <pt x="230" y="510" on="0"/>
        <pt x="233" y="469" on="0"/>
        <pt x="234" y="458" on="1"/>
        <pt x="235" y="447" on="0"/>
        <pt x="237" y="425" on="0"/>
        <pt x="239" y="414" on="1"/>
        <pt x="260" y="426" on="0"/>
        <pt x="309" y="443" on="0"/>
        <pt x="323" y="447" on="1"/>
        <pt x="331" y="449" on="0"/>
        <pt x="362" y="457" on="0"/>
        <pt x="396" y="465" on="0"/>
        <pt x="427" y="471" on="0"/>
        <pt x="434" y="471" on="1"/>
        <pt x="442" y="471" on="0"/>
        <pt x="450" y="462" on="0"/>
        <pt x="450" y="456" on="1"/>
        <pt x="450" y="450" on="0"/>
        <pt x="401" y="430" on="0"/>
        <pt x="335" y="406" on="0"/>
        <pt x="266" y="380" on="0"/>
        <pt x="246" y="367" on="1"/>
        <pt x="250" y="343" on="0"/>
        <pt x="258" y="297" on="0"/>
        <pt x="266" y="258" on="0"/>
        <pt x="273" y="231" on="0"/>
        <pt x="276" y="225" on="1"/>
        <pt x="316" y="238" on="0"/>
        <pt x="376" y="260" on="0"/>
        <pt x="421" y="277" on="0"/>
        <pt x="456" y="290" on="0"/>
        <pt x="473" y="294" on="1"/>
        <pt x="475" y="294" on="0"/>
        <pt x="483" y="291" on="0"/>
        <pt x="483" y="287" on="1"/>
        <pt x="483" y="281" on="0"/>
        <pt x="478" y="278" on="1"/>
        <pt x="467" y="270" on="0"/>
        <pt x="425" y="245" on="0"/>
        <pt x="372" y="218" on="0"/>
        <pt x="313" y="191" on="0"/>
        <pt x="286" y="180" on="1"/>
        <pt x="286" y="171" on="0"/>
        <pt x="295" y="141" on="1"/>
        <pt x="311" y="82" on="1"/>
        <pt x="313" y="74" on="0"/>
        <pt x="327" y="35" on="0"/>
        <pt x="335" y="14" on="1"/>
        <pt x="368" y="23" on="0"/>
        <pt x="443" y="53" on="0"/>
        <pt x="469" y="64" on="1"/>
        <pt x="473" y="66" on="0"/>
        <pt x="487" y="76" on="0"/>
        <pt x="494" y="76" on="1"/>
        <pt x="499" y="76" on="0"/>
        <pt x="506" y="66" on="0"/>
        <pt x="506" y="61" on="1"/>
        <pt x="506" y="53" on="0"/>
        <pt x="500" y="49" on="1"/>
        <pt x="494" y="44" on="0"/>
        <pt x="467" y="29" on="0"/>
        <pt x="436" y="14" on="0"/>
        <pt x="407" y="0" on="0"/>
        <pt x="400" y="-3" on="1"/>
        <pt x="392" y="-7" on="0"/>
        <pt x="364" y="-18" on="0"/>
        <pt x="348" y="-23" on="1"/>
        <pt x="354" y="-38" on="0"/>
      </contour>
      <contour>
        <pt x="132" y="185" on="1"/>
        <pt x="138" y="185" on="0"/>
        <pt x="170" y="192" on="0"/>
        <pt x="204" y="202" on="0"/>
        <pt x="230" y="212" on="0"/>
        <pt x="230" y="215" on="1"/>
        <pt x="230" y="218" on="0"/>
        <pt x="223" y="243" on="0"/>
        <pt x="214" y="282" on="0"/>
        <pt x="204" y="332" on="0"/>
        <pt x="200" y="360" on="1"/>
        <pt x="198" y="378" on="0"/>
        <pt x="192" y="440" on="0"/>
        <pt x="186" y="501" on="0"/>
        <pt x="184" y="523" on="1"/>
        <pt x="182" y="545" on="1"/>
        <pt x="179" y="531" on="1"/>
        <pt x="176" y="516" on="0"/>
        <pt x="169" y="481" on="0"/>
        <pt x="164" y="450" on="0"/>
        <pt x="164" y="448" on="1"/>
        <pt x="164" y="420" on="1"/>
        <pt x="164" y="418" on="0"/>
        <pt x="159" y="387" on="0"/>
        <pt x="151" y="340" on="0"/>
        <pt x="142" y="285" on="0"/>
        <pt x="134" y="235" on="0"/>
        <pt x="129" y="196" on="0"/>
        <pt x="129" y="189" on="1"/>
        <pt x="129" y="185" on="0"/>
      </contour>
    </TTGlyph>
    <TTGlyph name="Aacute" xMin="55" yMin="-75" xMax="355" yMax="829">
      <contour>
        <pt x="354" y="-44" on="1"/>
        <pt x="355" y="-48" on="0"/>
        <pt x="355" y="-51" on="1"/>
        <pt x="355" y="-57" on="1"/>
        <pt x="355" y="-67" on="0"/>
        <pt x="346" y="-75" on="0"/>
        <pt x="333" y="-75" on="1"/>
        <pt x="321" y="-75" on="0"/>
        <pt x="317" y="-71" on="1"/>
        <pt x="311" y="-65" on="0"/>
        <pt x="291" y="-15" on="0"/>
        <pt x="269" y="53" on="0"/>
        <pt x="248" y="131" on="0"/>
        <pt x="240" y="166" on="1"/>
        <pt x="229" y="161" on="0"/>
        <pt x="191" y="150" on="0"/>
        <pt x="171" y="145" on="1"/>
        <pt x="148" y="140" on="0"/>
        <pt x="123" y="134" on="1"/>
        <pt x="114" y="91" on="0"/>
        <pt x="105" y="30" on="0"/>
        <pt x="98" y="-9" on="0"/>
        <pt x="87" y="-28" on="0"/>
        <pt x="75" y="-28" on="1"/>
        <pt x="67" y="-28" on="0"/>
        <pt x="55" y="-10" on="0"/>
        <pt x="55" y="8" on="1"/>
        <pt x="55" y="17" on="0"/>
        <pt x="65" y="83" on="0"/>
        <pt x="77" y="164" on="0"/>
        <pt x="89" y="244" on="0"/>
        <pt x="91" y="267" on="1"/>
        <pt x="92" y="279" on="0"/>
        <pt x="103" y="333" on="0"/>
        <pt x="115" y="390" on="0"/>
        <pt x="127" y="436" on="0"/>
        <pt x="129" y="439" on="1"/>
        <pt x="145" y="476" on="0"/>
        <pt x="154" y="554" on="0"/>
        <pt x="159" y="619" on="0"/>
        <pt x="171" y="660" on="0"/>
        <pt x="190" y="660" on="1"/>
        <pt x="195" y="660" on="0"/>
        <pt x="206" y="644" on="0"/>
        <pt x="216" y="622" on="0"/>
        <pt x="222" y="601" on="0"/>
        <pt x="223" y="595" on="1"/>
        <pt x="224" y="589" on="0"/>
        <pt x="227" y="553" on="0"/>
        <pt x="230" y="510" on="0"/>
        <pt x="233" y="469" on="0"/>
        <pt x="234" y="458" on="1"/>
        <pt x="237" y="425" on="0"/>
        <pt x="250" y="343" on="0"/>
        <pt x="264" y="271" on="0"/>
        <pt x="276" y="222" on="0"/>
        <pt x="279" y="222" on="1"/>
        <pt x="283" y="222" on="0"/>
        <pt x="296" y="226" on="0"/>
        <pt x="302" y="226" on="1"/>
        <pt x="310" y="226" on="0"/>
        <pt x="310" y="218" on="1"/>
        <pt x="310" y="210" on="0"/>
        <pt x="302" y="200" on="0"/>
        <pt x="293" y="192" on="0"/>
        <pt x="286" y="186" on="0"/>
        <pt x="286" y="182" on="1"/>
        <pt x="286" y="174" on="0"/>
        <pt x="295" y="141" on="1"/>
        <pt x="311" y="82" on="1"/>
        <pt x="313" y="74" on="0"/>
        <pt x="327" y="36" on="0"/>
        <pt x="342" y="-5" on="0"/>
        <pt x="354" y="-40" on="0"/>
      </contour>
      <contour>
        <pt x="132" y="185" on="1"/>
        <pt x="138" y="185" on="0"/>
        <pt x="170" y="192" on="0"/>
        <pt x="204" y="202" on="0"/>
        <pt x="230" y="212" on="0"/>
        <pt x="230" y="215" on="1"/>
        <pt x="230" y="218" on="0"/>
        <pt x="223" y="243" on="0"/>
        <pt x="214" y="282" on="0"/>
        <pt x="204" y="332" on="0"/>
        <pt x="200" y="360" on="1"/>
        <pt x="198" y="378" on="0"/>
        <pt x="192" y="440" on="0"/>
        <pt x="186" y="501" on="0"/>
        <pt x="184" y="523" on="1"/>
        <pt x="182" y="545" on="1"/>
        <pt x="179" y="531" on="1"/>
        <pt x="176" y="516" on="0"/>
        <pt x="169" y="481" on="0"/>
        <pt x="164" y="450" on="0"/>
        <pt x="164" y="448" on="1"/>
        <pt x="164" y="420" on="1"/>
        <pt x="164" y="418" on="0"/>
        <pt x="159" y="387" on="0"/>
        <pt x="151" y="340" on="0"/>
        <pt x="142" y="285" on="0"/>
        <pt x="134" y="235" on="0"/>
        <pt x="129" y="196" on="0"/>
        <pt x="129" y="189" on="1"/>
        <pt x="129" y="185" on="0"/>
      </contour>
      <contour>
        <pt x="290" y="816" on="1"/>
        <pt x="290" y="808" on="0"/>
        <pt x="266" y="778" on="0"/>
        <pt x="233" y="746" on="0"/>
        <pt x="198" y="719" on="0"/>
        <pt x="188" y="714" on="1"/>
        <pt x="180" y="710" on="0"/>
        <pt x="168" y="708" on="0"/>
        <pt x="164" y="708" on="1"/>
        <pt x="156" y="708" on="0"/>
        <pt x="132" y="726" on="0"/>
        <pt x="132" y="734" on="1"/>
        <pt x="132" y="736" on="0"/>
        <pt x="150" y="743" on="0"/>
        <pt x="161" y="749" on="1"/>
        <pt x="171" y="755" on="0"/>
        <pt x="204" y="782" on="0"/>
        <pt x="237" y="809" on="0"/>
        <pt x="264" y="829" on="0"/>
        <pt x="269" y="829" on="1"/>
        <pt x="276" y="829" on="0"/>
        <pt x="290" y="821" on="0"/>
      </contour>
    </TTGlyph>
    <TTGlyph name="Abreve" xMin="55" yMin="-75" xMax="355" yMax="806">
      <contour>
        <pt x="354" y="-44" on="1"/>
        <pt x="355" y="-48" on="0"/>
        <pt x="355" y="-51" on="1"/>
        <pt x="355" y="-57" on="1"/>
        <pt x="355" y="-67" on="0"/>
        <pt x="346" y="-75" on="0"/>
        <pt x="333" y="-75" on="1"/>
        <pt x="321" y="-75" on="0"/>
        <pt x="317" y="-71" on="1"/>
        <pt x="311" y="-65" on="0"/>
        <pt x="291" y="-15" on="0"/>
        <pt x="269" y="53" on="0"/>
        <pt x="248" y="131" on="0"/>
        <pt x="240" y="166" on="1"/>
        <pt x="229" y="161" on="0"/>
        <pt x="191" y="150" on="0"/>
        <pt x="171" y="145" on="1"/>
        <pt x="148" y="140" on="0"/>
        <pt x="123" y="134" on="1"/>
        <pt x="114" y="91" on="0"/>
        <pt x="105" y="30" on="0"/>
        <pt x="98" y="-9" on="0"/>
        <pt x="87" y="-28" on="0"/>
        <pt x="75" y="-28" on="1"/>
        <pt x="67" y="-28" on="0"/>
        <pt x="55" y="-10" on="0"/>
        <pt x="55" y="8" on="1"/>
        <pt x="55" y="17" on="0"/>
        <pt x="65" y="83" on="0"/>
        <pt x="77" y="164" on="0"/>
        <pt x="89" y="244" on="0"/>
        <pt x="91" y="267" on="1"/>
        <pt x="92" y="279" on="0"/>
        <pt x="103" y="333" on="0"/>
        <pt x="115" y="390" on="0"/>
        <pt x="127" y="436" on="0"/>
        <pt x="129" y="439" on="1"/>
        <pt x="145" y="476" on="0"/>
        <pt x="154" y="554" on="0"/>
        <pt x="159" y="619" on="0"/>
        <pt x="171" y="660" on="0"/>
        <pt x="190" y="660" on="1"/>
        <pt x="195" y="660" on="0"/>
        <pt x="206" y="644" on="0"/>
        <pt x="216" y="622" on="0"/>
        <pt x="222" y="601" on="0"/>
        <pt x="223" y="595" on="1"/>
        <pt x="224" y="589" on="0"/>
        <pt x="227" y="553" on="0"/>
        <pt x="230" y="510" on="0"/>
        <pt x="233" y="469" on="0"/>
        <pt x="234" y="458" on="1"/>
        <pt x="237" y="425" on="0"/>
        <pt x="250" y="343" on="0"/>
        <pt x="264" y="271" on="0"/>
        <pt x="276" y="222" on="0"/>
        <pt x="279" y="222" on="1"/>
        <pt x="283" y="222" on="0"/>
        <pt x="296" y="226" on="0"/>
        <pt x="302" y="226" on="1"/>
        <pt x="310" y="226" on="0"/>
        <pt x="310" y="218" on="1"/>
        <pt x="310" y="210" on="0"/>
        <pt x="302" y="200" on="0"/>
        <pt x="293" y="192" on="0"/>
        <pt x="286" y="186" on="0"/>
        <pt x="286" y="182" on="1"/>
        <pt x="286" y="174" on="0"/>
        <pt x="295" y="141" on="1"/>
        <pt x="311" y="82" on="1"/>
        <pt x="313" y="74" on="0"/>
        <pt x="327" y="36" on="0"/>
        <pt x="342" y="-5" on="0"/>
        <pt x="354" y="-40" on="0"/>
      </contour>
      <contour>
        <pt x="132" y="185" on="1"/>
        <pt x="138" y="185" on="0"/>
        <pt x="170" y="192" on="0"/>
        <pt x="204" y="202" on="0"/>
        <pt x="230" y="212" on="0"/>
        <pt x="230" y="215" on="1"/>
        <pt x="230" y="218" on="0"/>
        <pt x="223" y="243" on="0"/>
        <pt x="214" y="282" on="0"/>
        <pt x="204" y="332" on="0"/>
        <pt x="200" y="360" on="1"/>
        <pt x="198" y="378" on="0"/>
        <pt x="192" y="440" on="0"/>
        <pt x="186" y="501" on="0"/>
        <pt x="184" y="523" on="1"/>
        <pt x="182" y="545" on="1"/>
        <pt x="179" y="531" on="1"/>
        <pt x="176" y="516" on="0"/>
        <pt x="169" y="481" on="0"/>
        <pt x="164" y="450" on="0"/>
        <pt x="164" y="448" on="1"/>
        <pt x="164" y="420" on="1"/>
        <pt x="164" y="418" on="0"/>
        <pt x="159" y="387" on="0"/>
        <pt x="151" y="340" on="0"/>
        <pt x="142" y="285" on="0"/>
        <pt x="134" y="235" on="0"/>
        <pt x="129" y="196" on="0"/>
        <pt x="129" y="189" on="1"/>
        <pt x="129" y="185" on="0"/>
      </contour>
      <contour>
        <pt x="181" y="696" on="1"/>
        <pt x="171" y="696" on="0"/>
        <pt x="141" y="703" on="0"/>
        <pt x="112" y="718" on="0"/>
        <pt x="91" y="740" on="0"/>
        <pt x="91" y="756" on="1"/>
        <pt x="91" y="772" on="0"/>
        <pt x="106" y="772" on="1"/>
        <pt x="117" y="772" on="0"/>
        <pt x="128" y="763" on="0"/>
        <pt x="141" y="753" on="0"/>
        <pt x="160" y="744" on="0"/>
        <pt x="179" y="744" on="1"/>
        <pt x="197" y="744" on="0"/>
        <pt x="235" y="763" on="0"/>
        <pt x="267" y="787" on="0"/>
        <pt x="289" y="806" on="0"/>
        <pt x="291" y="806" on="1"/>
        <pt x="294" y="806" on="0"/>
        <pt x="307" y="795" on="0"/>
        <pt x="307" y="787" on="1"/>
        <pt x="307" y="772" on="0"/>
        <pt x="281" y="739" on="0"/>
        <pt x="243" y="713" on="0"/>
        <pt x="199" y="696" on="0"/>
      </contour>
    </TTGlyph>
    <TTGlyph name="Acircumflex" xMin="55" yMin="-75" xMax="355" yMax="809">
      <contour>
        <pt x="354" y="-44" on="1"/>
        <pt x="355" y="-48" on="0"/>
        <pt x="355" y="-51" on="1"/>
        <pt x="355" y="-57" on="1"/>
        <pt x="355" y="-67" on="0"/>
        <pt x="346" y="-75" on="0"/>
        <pt x="333" y="-75" on="1"/>
        <pt x="321" y="-75" on="0"/>
        <pt x="317" y="-71" on="1"/>
        <pt x="311" y="-65" on="0"/>
        <pt x="291" y="-15" on="0"/>
        <pt x="269" y="53" on="0"/>
        <pt x="248" y="131" on="0"/>
        <pt x="240" y="166" on="1"/>
        <pt x="229" y="161" on="0"/>
        <pt x="191" y="150" on="0"/>
        <pt x="171" y="145" on="1"/>
        <pt x="148" y="140" on="0"/>
        <pt x="123" y="134" on="1"/>
        <pt x="114" y="91" on="0"/>
        <pt x="105" y="30" on="0"/>
        <pt x="98" y="-9" on="0"/>
        <pt x="87" y="-28" on="0"/>
        <pt x="75" y="-28" on="1"/>
        <pt x="67" y="-28" on="0"/>
        <pt x="55" y="-10" on="0"/>
        <pt x="55" y="8" on="1"/>
        <pt x="55" y="17" on="0"/>
        <pt x="65" y="83" on="0"/>
        <pt x="77" y="164" on="0"/>
        <pt x="89" y="244" on="0"/>
        <pt x="91" y="267" on="1"/>
        <pt x="92" y="279" on="0"/>
        <pt x="103" y="333" on="0"/>
        <pt x="115" y="390" on="0"/>
        <pt x="127" y="436" on="0"/>
        <pt x="129" y="439" on="1"/>
        <pt x="145" y="476" on="0"/>
        <pt x="154" y="554" on="0"/>
        <pt x="159" y="619" on="0"/>
        <pt x="171" y="660" on="0"/>
        <pt x="190" y="660" on="1"/>
        <pt x="195" y="660" on="0"/>
        <pt x="206" y="644" on="0"/>
        <pt x="216" y="622" on="0"/>
        <pt x="222" y="601" on="0"/>
        <pt x="223" y="595" on="1"/>
        <pt x="224" y="589" on="0"/>
        <pt x="227" y="553" on="0"/>
        <pt x="230" y="510" on="0"/>
        <pt x="233" y="469" on="0"/>
        <pt x="234" y="458" on="1"/>
        <pt x="237" y="425" on="0"/>
        <pt x="250" y="343" on="0"/>
        <pt x="264" y="271" on="0"/>
        <pt x="276" y="222" on="0"/>
        <pt x="279" y="222" on="1"/>
        <pt x="283" y="222" on="0"/>
        <pt x="296" y="226" on="0"/>
        <pt x="302" y="226" on="1"/>
        <pt x="310" y="226" on="0"/>
        <pt x="310" y="218" on="1"/>
        <pt x="310" y="210" on="0"/>
        <pt x="302" y="200" on="0"/>
        <pt x="293" y="192" on="0"/>
        <pt x="286" y="186" on="0"/>
        <pt x="286" y="182" on="1"/>
        <pt x="286" y="174" on="0"/>
        <pt x="295" y="141" on="1"/>
        <pt x="311" y="82" on="1"/>
        <pt x="313" y="74" on="0"/>
        <pt x="327" y="36" on="0"/>
        <pt x="342" y="-5" on="0"/>
        <pt x="354" y="-40" on="0"/>
      </contour>
      <contour>
        <pt x="132" y="185" on="1"/>
        <pt x="138" y="185" on="0"/>
        <pt x="170" y="192" on="0"/>
        <pt x="204" y="202" on="0"/>
        <pt x="230" y="212" on="0"/>
        <pt x="230" y="215" on="1"/>
        <pt x="230" y="218" on="0"/>
        <pt x="223" y="243" on="0"/>
        <pt x="214" y="282" on="0"/>
        <pt x="204" y="332" on="0"/>
        <pt x="200" y="360" on="1"/>
        <pt x="198" y="378" on="0"/>
        <pt x="192" y="440" on="0"/>
        <pt x="186" y="501" on="0"/>
        <pt x="184" y="523" on="1"/>
        <pt x="182" y="545" on="1"/>
        <pt x="179" y="531" on="1"/>
        <pt x="176" y="516" on="0"/>
        <pt x="169" y="481" on="0"/>
        <pt x="164" y="450" on="0"/>
        <pt x="164" y="448" on="1"/>
        <pt x="164" y="420" on="1"/>
        <pt x="164" y="418" on="0"/>
        <pt x="159" y="387" on="0"/>
        <pt x="151" y="340" on="0"/>
        <pt x="142" y="285" on="0"/>
        <pt x="134" y="235" on="0"/>
        <pt x="129" y="196" on="0"/>
        <pt x="129" y="189" on="1"/>
        <pt x="129" y="185" on="0"/>
      </contour>
      <contour>
        <pt x="328" y="651" on="1"/>
        <pt x="326" y="650" on="0"/>
        <pt x="315" y="645" on="0"/>
        <pt x="310" y="645" on="1"/>
        <pt x="299" y="645" on="0"/>
        <pt x="279" y="653" on="0"/>
        <pt x="271" y="658" on="1"/>
        <pt x="254" y="667" on="0"/>
        <pt x="229" y="694" on="0"/>
        <pt x="209" y="722" on="0"/>
        <pt x="193" y="748" on="0"/>
        <pt x="187" y="755" on="1"/>
        <pt x="173" y="738" on="0"/>
        <pt x="139" y="708" on="0"/>
        <pt x="115" y="693" on="1"/>
        <pt x="107" y="689" on="0"/>
        <pt x="104" y="689" on="1"/>
        <pt x="97" y="689" on="0"/>
        <pt x="90" y="700" on="0"/>
        <pt x="90" y="704" on="1"/>
        <pt x="90" y="710" on="0"/>
        <pt x="95" y="715" on="1"/>
        <pt x="107" y="727" on="0"/>
        <pt x="131" y="759" on="0"/>
        <pt x="155" y="789" on="0"/>
        <pt x="177" y="809" on="0"/>
        <pt x="186" y="809" on="1"/>
        <pt x="204" y="809" on="0"/>
        <pt x="231" y="780" on="0"/>
        <pt x="258" y="739" on="0"/>
        <pt x="288" y="696" on="0"/>
        <pt x="310" y="681" on="1"/>
        <pt x="320" y="681" on="0"/>
        <pt x="338" y="673" on="0"/>
        <pt x="338" y="666" on="1"/>
        <pt x="338" y="661" on="0"/>
        <pt x="330" y="653" on="0"/>
      </contour>
    </TTGlyph>
    <TTGlyph name="Adieresis" xMin="55" yMin="-75" xMax="355" yMax="760">
      <contour>
        <pt x="354" y="-44" on="1"/>
        <pt x="355" y="-48" on="0"/>
        <pt x="355" y="-51" on="1"/>
        <pt x="355" y="-57" on="1"/>
        <pt x="355" y="-67" on="0"/>
        <pt x="346" y="-75" on="0"/>
        <pt x="333" y="-75" on="1"/>
        <pt x="321" y="-75" on="0"/>
        <pt x="317" y="-71" on="1"/>
        <pt x="311" y="-65" on="0"/>
        <pt x="291" y="-15" on="0"/>
        <pt x="269" y="53" on="0"/>
        <pt x="248" y="131" on="0"/>
        <pt x="240" y="166" on="1"/>
        <pt x="229" y="161" on="0"/>
        <pt x="191" y="150" on="0"/>
        <pt x="171" y="145" on="1"/>
        <pt x="148" y="140" on="0"/>
        <pt x="123" y="134" on="1"/>
        <pt x="114" y="91" on="0"/>
        <pt x="105" y="30" on="0"/>
        <pt x="98" y="-9" on="0"/>
        <pt x="87" y="-28" on="0"/>
        <pt x="75" y="-28" on="1"/>
        <pt x="67" y="-28" on="0"/>
        <pt x="55" y="-10" on="0"/>
        <pt x="55" y="8" on="1"/>
        <pt x="55" y="17" on="0"/>
        <pt x="65" y="83" on="0"/>
        <pt x="77" y="164" on="0"/>
        <pt x="89" y="244" on="0"/>
        <pt x="91" y="267" on="1"/>
        <pt x="92" y="279" on="0"/>
        <pt x="103" y="333" on="0"/>
        <pt x="115" y="390" on="0"/>
        <pt x="127" y="436" on="0"/>
        <pt x="129" y="439" on="1"/>
        <pt x="145" y="476" on="0"/>
        <pt x="154" y="554" on="0"/>
        <pt x="159" y="619" on="0"/>
        <pt x="171" y="660" on="0"/>
        <pt x="190" y="660" on="1"/>
        <pt x="195" y="660" on="0"/>
        <pt x="206" y="644" on="0"/>
        <pt x="216" y="622" on="0"/>
        <pt x="222" y="601" on="0"/>
        <pt x="223" y="595" on="1"/>
        <pt x="224" y="589" on="0"/>
        <pt x="227" y="553" on="0"/>
        <pt x="230" y="510" on="0"/>
        <pt x="233" y="469" on="0"/>
        <pt x="234" y="458" on="1"/>
        <pt x="237" y="425" on="0"/>
        <pt x="250" y="343" on="0"/>
        <pt x="264" y="271" on="0"/>
        <pt x="276" y="222" on="0"/>
        <pt x="279" y="222" on="1"/>
        <pt x="283" y="222" on="0"/>
        <pt x="296" y="226" on="0"/>
        <pt x="302" y="226" on="1"/>
        <pt x="310" y="226" on="0"/>
        <pt x="310" y="218" on="1"/>
        <pt x="310" y="210" on="0"/>
        <pt x="302" y="200" on="0"/>
        <pt x="293" y="192" on="0"/>
        <pt x="286" y="186" on="0"/>
        <pt x="286" y="182" on="1"/>
        <pt x="286" y="174" on="0"/>
        <pt x="295" y="141" on="1"/>
        <pt x="311" y="82" on="1"/>
        <pt x="313" y="74" on="0"/>
        <pt x="327" y="36" on="0"/>
        <pt x="342" y="-5" on="0"/>
        <pt x="354" y="-40" on="0"/>
      </contour>
      <contour>
        <pt x="132" y="185" on="1"/>
        <pt x="138" y="185" on="0"/>
        <pt x="170" y="192" on="0"/>
        <pt x="204" y="202" on="0"/>
        <pt x="230" y="212" on="0"/>
        <pt x="230" y="215" on="1"/>
        <pt x="230" y="218" on="0"/>
        <pt x="223" y="243" on="0"/>
        <pt x="214" y="282" on="0"/>
        <pt x="204" y="332" on="0"/>
        <pt x="200" y="360" on="1"/>
        <pt x="198" y="378" on="0"/>
        <pt x="192" y="440" on="0"/>
        <pt x="186" y="501" on="0"/>
        <pt x="184" y="523" on="1"/>
        <pt x="182" y="545" on="1"/>
        <pt x="179" y="531" on="1"/>
        <pt x="176" y="516" on="0"/>
        <pt x="169" y="481" on="0"/>
        <pt x="164" y="450" on="0"/>
        <pt x="164" y="448" on="1"/>
        <pt x="164" y="420" on="1"/>
        <pt x="164" y="418" on="0"/>
        <pt x="159" y="387" on="0"/>
        <pt x="151" y="340" on="0"/>
        <pt x="142" y="285" on="0"/>
        <pt x="134" y="235" on="0"/>
        <pt x="129" y="196" on="0"/>
        <pt x="129" y="189" on="1"/>
        <pt x="129" y="185" on="0"/>
      </contour>
      <contour>
        <pt x="169" y="718" on="1"/>
        <pt x="169" y="716" on="0"/>
        <pt x="159" y="704" on="0"/>
        <pt x="144" y="691" on="0"/>
        <pt x="127" y="681" on="0"/>
        <pt x="121" y="681" on="1"/>
        <pt x="117" y="681" on="0"/>
        <pt x="104" y="682" on="0"/>
        <pt x="91" y="688" on="0"/>
        <pt x="81" y="699" on="0"/>
        <pt x="81" y="708" on="1"/>
        <pt x="81" y="722" on="0"/>
        <pt x="101" y="747" on="0"/>
        <pt x="117" y="747" on="1"/>
        <pt x="120" y="747" on="0"/>
        <pt x="137" y="742" on="0"/>
        <pt x="155" y="734" on="0"/>
        <pt x="169" y="724" on="0"/>
      </contour>
      <contour>
        <pt x="292" y="721" on="1"/>
        <pt x="292" y="715" on="0"/>
        <pt x="280" y="704" on="0"/>
        <pt x="265" y="695" on="0"/>
        <pt x="251" y="690" on="0"/>
        <pt x="250" y="690" on="1"/>
        <pt x="241" y="690" on="0"/>
        <pt x="232" y="699" on="0"/>
        <pt x="227" y="710" on="0"/>
        <pt x="226" y="720" on="0"/>
        <pt x="226" y="722" on="1"/>
        <pt x="226" y="726" on="0"/>
        <pt x="230" y="739" on="0"/>
        <pt x="238" y="751" on="0"/>
        <pt x="249" y="760" on="0"/>
        <pt x="256" y="760" on="1"/>
        <pt x="269" y="760" on="0"/>
        <pt x="292" y="738" on="0"/>
      </contour>
    </TTGlyph>
    <TTGlyph name="Agrave" xMin="55" yMin="-75" xMax="355" yMax="833">
      <contour>
        <pt x="354" y="-44" on="1"/>
        <pt x="355" y="-48" on="0"/>
        <pt x="355" y="-51" on="1"/>
        <pt x="355" y="-57" on="1"/>
        <pt x="355" y="-67" on="0"/>
        <pt x="346" y="-75" on="0"/>
        <pt x="333" y="-75" on="1"/>
        <pt x="321" y="-75" on="0"/>
        <pt x="317" y="-71" on="1"/>
        <pt x="311" y="-65" on="0"/>
        <pt x="291" y="-15" on="0"/>
        <pt x="269" y="53" on="0"/>
        <pt x="248" y="131" on="0"/>
        <pt x="240" y="166" on="1"/>
        <pt x="229" y="161" on="0"/>
        <pt x="191" y="150" on="0"/>
        <pt x="171" y="145" on="1"/>
        <pt x="148" y="140" on="0"/>
        <pt x="123" y="134" on="1"/>
        <pt x="114" y="91" on="0"/>
        <pt x="105" y="30" on="0"/>
        <pt x="98" y="-9" on="0"/>
        <pt x="87" y="-28" on="0"/>
        <pt x="75" y="-28" on="1"/>
        <pt x="67" y="-28" on="0"/>
        <pt x="55" y="-10" on="0"/>
        <pt x="55" y="8" on="1"/>
        <pt x="55" y="17" on="0"/>
        <pt x="65" y="83" on="0"/>
        <pt x="77" y="164" on="0"/>
        <pt x="89" y="244" on="0"/>
        <pt x="91" y="267" on="1"/>
        <pt x="92" y="279" on="0"/>
        <pt x="103" y="333" on="0"/>
        <pt x="115" y="390" on="0"/>
        <pt x="127" y="436" on="0"/>
        <pt x="129" y="439" on="1"/>
        <pt x="145" y="476" on="0"/>
        <pt x="154" y="554" on="0"/>
        <pt x="159" y="619" on="0"/>
        <pt x="171" y="660" on="0"/>
        <pt x="190" y="660" on="1"/>
        <pt x="195" y="660" on="0"/>
        <pt x="206" y="644" on="0"/>
        <pt x="216" y="622" on="0"/>
        <pt x="222" y="601" on="0"/>
        <pt x="223" y="595" on="1"/>
        <pt x="224" y="589" on="0"/>
        <pt x="227" y="553" on="0"/>
        <pt x="230" y="510" on="0"/>
        <pt x="233" y="469" on="0"/>
        <pt x="234" y="458" on="1"/>
        <pt x="237" y="425" on="0"/>
        <pt x="250" y="343" on="0"/>
        <pt x="264" y="271" on="0"/>
        <pt x="276" y="222" on="0"/>
        <pt x="279" y="222" on="1"/>
        <pt x="283" y="222" on="0"/>
        <pt x="296" y="226" on="0"/>
        <pt x="302" y="226" on="1"/>
        <pt x="310" y="226" on="0"/>
        <pt x="310" y="218" on="1"/>
        <pt x="310" y="210" on="0"/>
        <pt x="302" y="200" on="0"/>
        <pt x="293" y="192" on="0"/>
        <pt x="286" y="186" on="0"/>
        <pt x="286" y="182" on="1"/>
        <pt x="286" y="174" on="0"/>
        <pt x="295" y="141" on="1"/>
        <pt x="311" y="82" on="1"/>
        <pt x="313" y="74" on="0"/>
        <pt x="327" y="36" on="0"/>
        <pt x="342" y="-5" on="0"/>
        <pt x="354" y="-40" on="0"/>
      </contour>
      <contour>
        <pt x="132" y="185" on="1"/>
        <pt x="138" y="185" on="0"/>
        <pt x="170" y="192" on="0"/>
        <pt x="204" y="202" on="0"/>
        <pt x="230" y="212" on="0"/>
        <pt x="230" y="215" on="1"/>
        <pt x="230" y="218" on="0"/>
        <pt x="223" y="243" on="0"/>
        <pt x="214" y="282" on="0"/>
        <pt x="204" y="332" on="0"/>
        <pt x="200" y="360" on="1"/>
        <pt x="198" y="378" on="0"/>
        <pt x="192" y="440" on="0"/>
        <pt x="186" y="501" on="0"/>
        <pt x="184" y="523" on="1"/>
        <pt x="182" y="545" on="1"/>
        <pt x="179" y="531" on="1"/>
        <pt x="176" y="516" on="0"/>
        <pt x="169" y="481" on="0"/>
        <pt x="164" y="450" on="0"/>
        <pt x="164" y="448" on="1"/>
        <pt x="164" y="420" on="1"/>
        <pt x="164" y="418" on="0"/>
        <pt x="159" y="387" on="0"/>
        <pt x="151" y="340" on="0"/>
        <pt x="142" y="285" on="0"/>
        <pt x="134" y="235" on="0"/>
        <pt x="129" y="196" on="0"/>
        <pt x="129" y="189" on="1"/>
        <pt x="129" y="185" on="0"/>
      </contour>
      <contour>
        <pt x="121" y="830" on="1"/>
        <pt x="124" y="833" on="0"/>
        <pt x="128" y="833" on="1"/>
        <pt x="133" y="833" on="0"/>
        <pt x="148" y="826" on="0"/>
        <pt x="155" y="821" on="1"/>
        <pt x="162" y="816" on="0"/>
        <pt x="190" y="787" on="0"/>
        <pt x="218" y="754" on="0"/>
        <pt x="242" y="726" on="0"/>
        <pt x="246" y="723" on="1"/>
        <pt x="247" y="722" on="0"/>
        <pt x="255" y="720" on="0"/>
        <pt x="265" y="717" on="0"/>
        <pt x="273" y="713" on="0"/>
        <pt x="273" y="710" on="1"/>
        <pt x="273" y="702" on="0"/>
        <pt x="252" y="680" on="0"/>
        <pt x="245" y="680" on="1"/>
        <pt x="239" y="680" on="0"/>
        <pt x="226" y="687" on="1"/>
        <pt x="212" y="694" on="0"/>
        <pt x="176" y="733" on="0"/>
        <pt x="143" y="777" on="0"/>
        <pt x="120" y="818" on="0"/>
        <pt x="120" y="827" on="1"/>
        <pt x="120" y="828" on="0"/>
        <pt x="121" y="829" on="0"/>
      </contour>
    </TTGlyph>
    <TTGlyph name="Amacron" xMin="55" yMin="-75" xMax="355" yMax="734">
      <contour>
        <pt x="354" y="-44" on="1"/>
        <pt x="355" y="-48" on="0"/>
        <pt x="355" y="-51" on="1"/>
        <pt x="355" y="-57" on="1"/>
        <pt x="355" y="-67" on="0"/>
        <pt x="346" y="-75" on="0"/>
        <pt x="333" y="-75" on="1"/>
        <pt x="321" y="-75" on="0"/>
        <pt x="317" y="-71" on="1"/>
        <pt x="311" y="-65" on="0"/>
        <pt x="291" y="-15" on="0"/>
        <pt x="269" y="53" on="0"/>
        <pt x="248" y="131" on="0"/>
        <pt x="240" y="166" on="1"/>
        <pt x="229" y="161" on="0"/>
        <pt x="191" y="150" on="0"/>
        <pt x="171" y="145" on="1"/>
        <pt x="148" y="140" on="0"/>
        <pt x="123" y="134" on="1"/>
        <pt x="114" y="91" on="0"/>
        <pt x="105" y="30" on="0"/>
        <pt x="98" y="-9" on="0"/>
        <pt x="87" y="-28" on="0"/>
        <pt x="75" y="-28" on="1"/>
        <pt x="67" y="-28" on="0"/>
        <pt x="55" y="-10" on="0"/>
        <pt x="55" y="8" on="1"/>
        <pt x="55" y="17" on="0"/>
        <pt x="65" y="83" on="0"/>
        <pt x="77" y="164" on="0"/>
        <pt x="89" y="244" on="0"/>
        <pt x="91" y="267" on="1"/>
        <pt x="92" y="279" on="0"/>
        <pt x="103" y="333" on="0"/>
        <pt x="115" y="390" on="0"/>
        <pt x="127" y="436" on="0"/>
        <pt x="129" y="439" on="1"/>
        <pt x="145" y="476" on="0"/>
        <pt x="154" y="554" on="0"/>
        <pt x="159" y="619" on="0"/>
        <pt x="171" y="660" on="0"/>
        <pt x="190" y="660" on="1"/>
        <pt x="195" y="660" on="0"/>
        <pt x="206" y="644" on="0"/>
        <pt x="216" y="622" on="0"/>
        <pt x="222" y="601" on="0"/>
        <pt x="223" y="595" on="1"/>
        <pt x="224" y="589" on="0"/>
        <pt x="227" y="553" on="0"/>
        <pt x="230" y="510" on="0"/>
        <pt x="233" y="469" on="0"/>
        <pt x="234" y="458" on="1"/>
        <pt x="237" y="425" on="0"/>
        <pt x="250" y="343" on="0"/>
        <pt x="264" y="271" on="0"/>
        <pt x="276" y="222" on="0"/>
        <pt x="279" y="222" on="1"/>
        <pt x="283" y="222" on="0"/>
        <pt x="296" y="226" on="0"/>
        <pt x="302" y="226" on="1"/>
        <pt x="310" y="226" on="0"/>
        <pt x="310" y="218" on="1"/>
        <pt x="310" y="210" on="0"/>
        <pt x="302" y="200" on="0"/>
        <pt x="293" y="192" on="0"/>
        <pt x="286" y="186" on="0"/>
        <pt x="286" y="182" on="1"/>
        <pt x="286" y="174" on="0"/>
        <pt x="295" y="141" on="1"/>
        <pt x="311" y="82" on="1"/>
        <pt x="313" y="74" on="0"/>
        <pt x="327" y="36" on="0"/>
        <pt x="342" y="-5" on="0"/>
        <pt x="354" y="-40" on="0"/>
      </contour>
      <contour>
        <pt x="132" y="185" on="1"/>
        <pt x="138" y="185" on="0"/>
        <pt x="170" y="192" on="0"/>
        <pt x="204" y="202" on="0"/>
        <pt x="230" y="212" on="0"/>
        <pt x="230" y="215" on="1"/>
        <pt x="230" y="218" on="0"/>
        <pt x="223" y="243" on="0"/>
        <pt x="214" y="282" on="0"/>
        <pt x="204" y="332" on="0"/>
        <pt x="200" y="360" on="1"/>
        <pt x="198" y="378" on="0"/>
        <pt x="192" y="440" on="0"/>
        <pt x="186" y="501" on="0"/>
        <pt x="184" y="523" on="1"/>
        <pt x="182" y="545" on="1"/>
        <pt x="179" y="531" on="1"/>
        <pt x="176" y="516" on="0"/>
        <pt x="169" y="481" on="0"/>
        <pt x="164" y="450" on="0"/>
        <pt x="164" y="448" on="1"/>
        <pt x="164" y="420" on="1"/>
        <pt x="164" y="418" on="0"/>
        <pt x="159" y="387" on="0"/>
        <pt x="151" y="340" on="0"/>
        <pt x="142" y="285" on="0"/>
        <pt x="134" y="235" on="0"/>
        <pt x="129" y="196" on="0"/>
        <pt x="129" y="189" on="1"/>
        <pt x="129" y="185" on="0"/>
      </contour>
      <contour>
        <pt x="321" y="716" on="1"/>
        <pt x="320" y="711" on="0"/>
        <pt x="289" y="702" on="0"/>
        <pt x="242" y="694" on="0"/>
        <pt x="186" y="688" on="0"/>
        <pt x="135" y="683" on="0"/>
        <pt x="97" y="681" on="0"/>
        <pt x="91" y="681" on="1"/>
        <pt x="78" y="681" on="0"/>
        <pt x="66" y="696" on="0"/>
        <pt x="66" y="705" on="1"/>
        <pt x="66" y="710" on="0"/>
        <pt x="74" y="734" on="0"/>
        <pt x="82" y="734" on="1"/>
        <pt x="87" y="734" on="0"/>
        <pt x="93" y="726" on="0"/>
        <pt x="97" y="725" on="1"/>
        <pt x="142" y="725" on="0"/>
        <pt x="229" y="733" on="0"/>
        <pt x="276" y="733" on="1"/>
        <pt x="282" y="733" on="0"/>
        <pt x="297" y="731" on="0"/>
        <pt x="310" y="727" on="0"/>
        <pt x="320" y="721" on="0"/>
      </contour>
    </TTGlyph>
    <TTGlyph name="Aogonek" xMin="55" yMin="-314" xMax="355" yMax="660">
      <contour>
        <pt x="352" y="-256" on="1"/>
        <pt x="352" y="-264" on="0"/>
        <pt x="350" y="-276" on="0"/>
        <pt x="344" y="-284" on="1"/>
        <pt x="342" y="-287" on="0"/>
        <pt x="327" y="-297" on="0"/>
        <pt x="304" y="-307" on="0"/>
        <pt x="277" y="-314" on="0"/>
        <pt x="262" y="-314" on="1"/>
        <pt x="249" y="-314" on="0"/>
        <pt x="222" y="-304" on="0"/>
        <pt x="199" y="-286" on="0"/>
        <pt x="185" y="-259" on="0"/>
        <pt x="185" y="-241" on="1"/>
        <pt x="185" y="-220" on="0"/>
        <pt x="201" y="-180" on="0"/>
        <pt x="224" y="-144" on="0"/>
        <pt x="250" y="-114" on="0"/>
        <pt x="260" y="-104" on="1"/>
        <pt x="270" y="-93" on="0"/>
        <pt x="298" y="-71" on="0"/>
        <pt x="312" y="-63" on="1"/>
        <pt x="305" y="-51" on="0"/>
        <pt x="286" y="0" on="0"/>
        <pt x="266" y="64" on="0"/>
        <pt x="247" y="134" on="0"/>
        <pt x="240" y="166" on="1"/>
        <pt x="229" y="161" on="0"/>
        <pt x="191" y="150" on="0"/>
        <pt x="171" y="145" on="1"/>
        <pt x="148" y="140" on="0"/>
        <pt x="123" y="134" on="1"/>
        <pt x="114" y="91" on="0"/>
        <pt x="105" y="30" on="0"/>
        <pt x="98" y="-9" on="0"/>
        <pt x="87" y="-28" on="0"/>
        <pt x="75" y="-28" on="1"/>
        <pt x="67" y="-28" on="0"/>
        <pt x="55" y="-10" on="0"/>
        <pt x="55" y="8" on="1"/>
        <pt x="55" y="17" on="0"/>
        <pt x="65" y="83" on="0"/>
        <pt x="77" y="164" on="0"/>
        <pt x="89" y="244" on="0"/>
        <pt x="91" y="267" on="1"/>
        <pt x="92" y="279" on="0"/>
        <pt x="103" y="333" on="0"/>
        <pt x="115" y="390" on="0"/>
        <pt x="127" y="436" on="0"/>
        <pt x="129" y="439" on="1"/>
        <pt x="145" y="476" on="0"/>
        <pt x="154" y="554" on="0"/>
        <pt x="159" y="619" on="0"/>
        <pt x="171" y="660" on="0"/>
        <pt x="190" y="660" on="1"/>
        <pt x="195" y="660" on="0"/>
        <pt x="206" y="644" on="0"/>
        <pt x="216" y="622" on="0"/>
        <pt x="222" y="601" on="0"/>
        <pt x="223" y="595" on="1"/>
        <pt x="224" y="589" on="0"/>
        <pt x="227" y="553" on="0"/>
        <pt x="230" y="510" on="0"/>
        <pt x="233" y="469" on="0"/>
        <pt x="234" y="458" on="1"/>
        <pt x="237" y="425" on="0"/>
        <pt x="250" y="343" on="0"/>
        <pt x="264" y="271" on="0"/>
        <pt x="276" y="222" on="0"/>
        <pt x="279" y="222" on="1"/>
        <pt x="283" y="222" on="0"/>
        <pt x="296" y="226" on="0"/>
        <pt x="302" y="226" on="1"/>
        <pt x="310" y="226" on="0"/>
        <pt x="310" y="218" on="1"/>
        <pt x="310" y="210" on="0"/>
        <pt x="302" y="200" on="0"/>
        <pt x="293" y="192" on="0"/>
        <pt x="286" y="186" on="0"/>
        <pt x="286" y="182" on="1"/>
        <pt x="286" y="174" on="0"/>
        <pt x="295" y="141" on="1"/>
        <pt x="311" y="82" on="1"/>
        <pt x="315" y="68" on="0"/>
        <pt x="330" y="34" on="0"/>
        <pt x="344" y="-2" on="0"/>
        <pt x="355" y="-37" on="0"/>
        <pt x="355" y="-52" on="1"/>
        <pt x="355" y="-65" on="0"/>
        <pt x="348" y="-72" on="1"/>
        <pt x="341" y="-80" on="0"/>
        <pt x="314" y="-99" on="0"/>
        <pt x="293" y="-120" on="1"/>
        <pt x="264" y="-147" on="0"/>
        <pt x="228" y="-211" on="0"/>
        <pt x="228" y="-234" on="1"/>
        <pt x="228" y="-252" on="0"/>
        <pt x="255" y="-271" on="0"/>
        <pt x="272" y="-271" on="1"/>
        <pt x="287" y="-271" on="0"/>
        <pt x="309" y="-264" on="0"/>
        <pt x="326" y="-255" on="0"/>
        <pt x="339" y="-247" on="0"/>
        <pt x="344" y="-247" on="1"/>
        <pt x="352" y="-247" on="0"/>
      </contour>
      <contour>
        <pt x="132" y="185" on="1"/>
        <pt x="138" y="185" on="0"/>
        <pt x="170" y="192" on="0"/>
        <pt x="204" y="202" on="0"/>
        <pt x="230" y="212" on="0"/>
        <pt x="230" y="215" on="1"/>
        <pt x="230" y="218" on="0"/>
        <pt x="223" y="243" on="0"/>
        <pt x="214" y="282" on="0"/>
        <pt x="204" y="332" on="0"/>
        <pt x="200" y="360" on="1"/>
        <pt x="198" y="378" on="0"/>
        <pt x="192" y="440" on="0"/>
        <pt x="186" y="501" on="0"/>
        <pt x="184" y="523" on="1"/>
        <pt x="182" y="545" on="1"/>
        <pt x="179" y="531" on="1"/>
        <pt x="176" y="516" on="0"/>
        <pt x="169" y="481" on="0"/>
        <pt x="164" y="450" on="0"/>
        <pt x="164" y="448" on="1"/>
        <pt x="164" y="420" on="1"/>
        <pt x="164" y="418" on="0"/>
        <pt x="159" y="387" on="0"/>
        <pt x="151" y="340" on="0"/>
        <pt x="142" y="285" on="0"/>
        <pt x="134" y="235" on="0"/>
        <pt x="129" y="196" on="0"/>
        <pt x="129" y="189" on="1"/>
        <pt x="129" y="185" on="0"/>
      </contour>
    </TTGlyph>
    <TTGlyph name="Aring" xMin="55" yMin="-75" xMax="355" yMax="787">
      <contour>
        <pt x="248" y="746" on="1"/>
        <pt x="256" y="738" on="0"/>
        <pt x="256" y="724" on="1"/>
        <pt x="256" y="718" on="0"/>
        <pt x="249" y="697" on="0"/>
        <pt x="235" y="674" on="0"/>
        <pt x="215" y="654" on="0"/>
        <pt x="202" y="649" on="1"/>
        <pt x="210" y="638" on="0"/>
        <pt x="221" y="603" on="0"/>
        <pt x="223" y="595" on="1"/>
        <pt x="224" y="589" on="0"/>
        <pt x="227" y="553" on="0"/>
        <pt x="230" y="510" on="0"/>
        <pt x="233" y="469" on="0"/>
        <pt x="234" y="458" on="1"/>
        <pt x="237" y="425" on="0"/>
        <pt x="250" y="343" on="0"/>
        <pt x="264" y="271" on="0"/>
        <pt x="276" y="222" on="0"/>
        <pt x="279" y="222" on="1"/>
        <pt x="283" y="222" on="0"/>
        <pt x="296" y="226" on="0"/>
        <pt x="302" y="226" on="1"/>
        <pt x="310" y="226" on="0"/>
        <pt x="310" y="218" on="1"/>
        <pt x="310" y="210" on="0"/>
        <pt x="302" y="200" on="0"/>
        <pt x="293" y="192" on="0"/>
        <pt x="286" y="186" on="0"/>
        <pt x="286" y="182" on="1"/>
        <pt x="286" y="174" on="0"/>
        <pt x="295" y="141" on="1"/>
        <pt x="311" y="82" on="1"/>
        <pt x="313" y="74" on="0"/>
        <pt x="327" y="36" on="0"/>
        <pt x="342" y="-5" on="0"/>
        <pt x="354" y="-40" on="0"/>
        <pt x="354" y="-44" on="1"/>
        <pt x="355" y="-48" on="0"/>
        <pt x="355" y="-51" on="1"/>
        <pt x="355" y="-57" on="1"/>
        <pt x="355" y="-67" on="0"/>
        <pt x="346" y="-75" on="0"/>
        <pt x="333" y="-75" on="1"/>
        <pt x="321" y="-75" on="0"/>
        <pt x="317" y="-71" on="1"/>
        <pt x="311" y="-65" on="0"/>
        <pt x="291" y="-15" on="0"/>
        <pt x="269" y="53" on="0"/>
        <pt x="248" y="131" on="0"/>
        <pt x="240" y="166" on="1"/>
        <pt x="229" y="161" on="0"/>
        <pt x="191" y="150" on="0"/>
        <pt x="171" y="145" on="1"/>
        <pt x="148" y="140" on="0"/>
        <pt x="123" y="134" on="1"/>
        <pt x="114" y="91" on="0"/>
        <pt x="105" y="30" on="0"/>
        <pt x="98" y="-9" on="0"/>
        <pt x="87" y="-28" on="0"/>
        <pt x="75" y="-28" on="1"/>
        <pt x="67" y="-28" on="0"/>
        <pt x="55" y="-10" on="0"/>
        <pt x="55" y="8" on="1"/>
        <pt x="55" y="17" on="0"/>
        <pt x="65" y="83" on="0"/>
        <pt x="77" y="164" on="0"/>
        <pt x="89" y="244" on="0"/>
        <pt x="91" y="267" on="1"/>
        <pt x="92" y="279" on="0"/>
        <pt x="103" y="333" on="0"/>
        <pt x="115" y="390" on="0"/>
        <pt x="127" y="436" on="0"/>
        <pt x="129" y="439" on="1"/>
        <pt x="142" y="469" on="0"/>
        <pt x="152" y="531" on="0"/>
        <pt x="156" y="587" on="0"/>
        <pt x="161" y="633" on="0"/>
        <pt x="168" y="646" on="1"/>
        <pt x="149" y="649" on="0"/>
        <pt x="132" y="671" on="0"/>
        <pt x="132" y="683" on="1"/>
        <pt x="132" y="699" on="0"/>
        <pt x="149" y="736" on="0"/>
        <pt x="176" y="767" on="0"/>
        <pt x="209" y="787" on="0"/>
        <pt x="226" y="787" on="1"/>
        <pt x="235" y="787" on="0"/>
        <pt x="262" y="771" on="0"/>
        <pt x="262" y="763" on="1"/>
        <pt x="262" y="762" on="0"/>
        <pt x="254" y="751" on="0"/>
      </contour>
      <contour>
        <pt x="132" y="185" on="1"/>
        <pt x="138" y="185" on="0"/>
        <pt x="170" y="192" on="0"/>
        <pt x="204" y="202" on="0"/>
        <pt x="230" y="212" on="0"/>
        <pt x="230" y="215" on="1"/>
        <pt x="230" y="218" on="0"/>
        <pt x="223" y="243" on="0"/>
        <pt x="214" y="282" on="0"/>
        <pt x="204" y="332" on="0"/>
        <pt x="200" y="360" on="1"/>
        <pt x="198" y="378" on="0"/>
        <pt x="192" y="440" on="0"/>
        <pt x="186" y="501" on="0"/>
        <pt x="184" y="523" on="1"/>
        <pt x="182" y="545" on="1"/>
        <pt x="179" y="531" on="1"/>
        <pt x="176" y="516" on="0"/>
        <pt x="169" y="481" on="0"/>
        <pt x="164" y="450" on="0"/>
        <pt x="164" y="448" on="1"/>
        <pt x="164" y="420" on="1"/>
        <pt x="164" y="418" on="0"/>
        <pt x="159" y="387" on="0"/>
        <pt x="151" y="340" on="0"/>
        <pt x="142" y="285" on="0"/>
        <pt x="134" y="235" on="0"/>
        <pt x="129" y="196" on="0"/>
        <pt x="129" y="189" on="1"/>
        <pt x="129" y="185" on="0"/>
      </contour>
      <contour>
        <pt x="216" y="740" on="1"/>
        <pt x="215" y="740" on="0"/>
        <pt x="214" y="741" on="0"/>
        <pt x="213" y="741" on="1"/>
        <pt x="209" y="741" on="0"/>
        <pt x="196" y="732" on="0"/>
        <pt x="184" y="718" on="0"/>
        <pt x="176" y="702" on="0"/>
        <pt x="176" y="696" on="1"/>
        <pt x="176" y="685" on="0"/>
        <pt x="183" y="685" on="1"/>
        <pt x="191" y="685" on="0"/>
        <pt x="204" y="696" on="0"/>
        <pt x="214" y="711" on="0"/>
        <pt x="219" y="728" on="0"/>
        <pt x="219" y="734" on="1"/>
        <pt x="219" y="738" on="0"/>
      </contour>
    </TTGlyph>
    <TTGlyph name="Atilde" xMin="55" yMin="-75" xMax="355" yMax="801">
      <contour>
        <pt x="354" y="-44" on="1"/>
        <pt x="355" y="-48" on="0"/>
        <pt x="355" y="-51" on="1"/>
        <pt x="355" y="-57" on="1"/>
        <pt x="355" y="-67" on="0"/>
        <pt x="346" y="-75" on="0"/>
        <pt x="333" y="-75" on="1"/>
        <pt x="321" y="-75" on="0"/>
        <pt x="317" y="-71" on="1"/>
        <pt x="311" y="-65" on="0"/>
        <pt x="291" y="-15" on="0"/>
        <pt x="269" y="53" on="0"/>
        <pt x="248" y="131" on="0"/>
        <pt x="240" y="166" on="1"/>
        <pt x="229" y="161" on="0"/>
        <pt x="191" y="150" on="0"/>
        <pt x="171" y="145" on="1"/>
        <pt x="148" y="140" on="0"/>
        <pt x="123" y="134" on="1"/>
        <pt x="114" y="91" on="0"/>
        <pt x="105" y="30" on="0"/>
        <pt x="98" y="-9" on="0"/>
        <pt x="87" y="-28" on="0"/>
        <pt x="75" y="-28" on="1"/>
        <pt x="67" y="-28" on="0"/>
        <pt x="55" y="-10" on="0"/>
        <pt x="55" y="8" on="1"/>
        <pt x="55" y="17" on="0"/>
        <pt x="65" y="83" on="0"/>
        <pt x="77" y="164" on="0"/>
        <pt x="89" y="244" on="0"/>
        <pt x="91" y="267" on="1"/>
        <pt x="92" y="279" on="0"/>
        <pt x="103" y="333" on="0"/>
        <pt x="115" y="390" on="0"/>
        <pt x="127" y="436" on="0"/>
        <pt x="129" y="439" on="1"/>
        <pt x="145" y="476" on="0"/>
        <pt x="154" y="554" on="0"/>
        <pt x="159" y="619" on="0"/>
        <pt x="171" y="660" on="0"/>
        <pt x="190" y="660" on="1"/>
        <pt x="195" y="660" on="0"/>
        <pt x="206" y="644" on="0"/>
        <pt x="216" y="622" on="0"/>
        <pt x="222" y="601" on="0"/>
        <pt x="223" y="595" on="1"/>
        <pt x="224" y="589" on="0"/>
        <pt x="227" y="553" on="0"/>
        <pt x="230" y="510" on="0"/>
        <pt x="233" y="469" on="0"/>
        <pt x="234" y="458" on="1"/>
        <pt x="237" y="425" on="0"/>
        <pt x="250" y="343" on="0"/>
        <pt x="264" y="271" on="0"/>
        <pt x="276" y="222" on="0"/>
        <pt x="279" y="222" on="1"/>
        <pt x="283" y="222" on="0"/>
        <pt x="296" y="226" on="0"/>
        <pt x="302" y="226" on="1"/>
        <pt x="310" y="226" on="0"/>
        <pt x="310" y="218" on="1"/>
        <pt x="310" y="210" on="0"/>
        <pt x="302" y="200" on="0"/>
        <pt x="293" y="192" on="0"/>
        <pt x="286" y="186" on="0"/>
        <pt x="286" y="182" on="1"/>
        <pt x="286" y="174" on="0"/>
        <pt x="295" y="141" on="1"/>
        <pt x="311" y="82" on="1"/>
        <pt x="313" y="74" on="0"/>
        <pt x="327" y="36" on="0"/>
        <pt x="342" y="-5" on="0"/>
        <pt x="354" y="-40" on="0"/>
      </contour>
      <contour>
        <pt x="132" y="185" on="1"/>
        <pt x="138" y="185" on="0"/>
        <pt x="170" y="192" on="0"/>
        <pt x="204" y="202" on="0"/>
        <pt x="230" y="212" on="0"/>
        <pt x="230" y="215" on="1"/>
        <pt x="230" y="218" on="0"/>
        <pt x="223" y="243" on="0"/>
        <pt x="214" y="282" on="0"/>
        <pt x="204" y="332" on="0"/>
        <pt x="200" y="360" on="1"/>
        <pt x="198" y="378" on="0"/>
        <pt x="192" y="440" on="0"/>
        <pt x="186" y="501" on="0"/>
        <pt x="184" y="523" on="1"/>
        <pt x="182" y="545" on="1"/>
        <pt x="179" y="531" on="1"/>
        <pt x="176" y="516" on="0"/>
        <pt x="169" y="481" on="0"/>
        <pt x="164" y="450" on="0"/>
        <pt x="164" y="448" on="1"/>
        <pt x="164" y="420" on="1"/>
        <pt x="164" y="418" on="0"/>
        <pt x="159" y="387" on="0"/>
        <pt x="151" y="340" on="0"/>
        <pt x="142" y="285" on="0"/>
        <pt x="134" y="235" on="0"/>
        <pt x="129" y="196" on="0"/>
        <pt x="129" y="189" on="1"/>
        <pt x="129" y="185" on="0"/>
      </contour>
      <contour>
        <pt x="321" y="747" on="1"/>
        <pt x="321" y="736" on="0"/>
        <pt x="313" y="712" on="0"/>
        <pt x="296" y="691" on="0"/>
        <pt x="271" y="677" on="0"/>
        <pt x="254" y="677" on="1"/>
        <pt x="241" y="677" on="0"/>
        <pt x="213" y="691" on="0"/>
        <pt x="187" y="712" on="0"/>
        <pt x="164" y="739" on="0"/>
        <pt x="155" y="753" on="1"/>
        <pt x="101" y="711" on="1"/>
        <pt x="93" y="705" on="0"/>
        <pt x="85" y="705" on="1"/>
        <pt x="74" y="705" on="0"/>
        <pt x="70" y="713" on="0"/>
        <pt x="70" y="720" on="1"/>
        <pt x="70" y="726" on="0"/>
        <pt x="93" y="753" on="0"/>
        <pt x="124" y="780" on="0"/>
        <pt x="155" y="801" on="0"/>
        <pt x="163" y="801" on="1"/>
        <pt x="173" y="801" on="0"/>
        <pt x="195" y="776" on="0"/>
        <pt x="206" y="762" on="1"/>
        <pt x="221" y="743" on="0"/>
        <pt x="243" y="719" on="0"/>
        <pt x="253" y="719" on="1"/>
        <pt x="264" y="719" on="0"/>
        <pt x="270" y="742" on="0"/>
        <pt x="270" y="752" on="1"/>
        <pt x="270" y="754" on="0"/>
        <pt x="269" y="758" on="0"/>
        <pt x="269" y="760" on="1"/>
        <pt x="277" y="768" on="0"/>
        <pt x="288" y="773" on="0"/>
        <pt x="295" y="773" on="1"/>
        <pt x="307" y="773" on="0"/>
        <pt x="321" y="753" on="0"/>
      </contour>
    </TTGlyph>
    <TTGlyph name="B" xMin="-21" yMin="-22" xMax="516" yMax="682">
      <contour>
        <pt x="516" y="301" on="1"/>
        <pt x="516" y="275" on="0"/>
        <pt x="492" y="225" on="0"/>
        <pt x="456" y="181" on="0"/>
        <pt x="414" y="144" on="0"/>
        <pt x="397" y="131" on="1"/>
        <pt x="379" y="117" on="0"/>
        <pt x="331" y="85" on="0"/>
        <pt x="286" y="57" on="0"/>
        <pt x="252" y="34" on="0"/>
        <pt x="248" y="30" on="1"/>
        <pt x="219" y="7" on="1"/>
        <pt x="214" y="3" on="0"/>
        <pt x="201" y="1" on="0"/>
        <pt x="197" y="1" on="1"/>
        <pt x="190" y="1" on="0"/>
        <pt x="182" y="16" on="0"/>
        <pt x="182" y="24" on="1"/>
        <pt x="182" y="30" on="0"/>
        <pt x="205" y="61" on="0"/>
        <pt x="220" y="72" on="1"/>
        <pt x="235" y="83" on="0"/>
        <pt x="279" y="105" on="0"/>
        <pt x="317" y="129" on="1"/>
        <pt x="336" y="141" on="0"/>
        <pt x="390" y="180" on="0"/>
        <pt x="438" y="225" on="0"/>
        <pt x="472" y="274" on="0"/>
        <pt x="472" y="297" on="1"/>
        <pt x="472" y="306" on="0"/>
        <pt x="429" y="325" on="0"/>
        <pt x="390" y="325" on="1"/>
        <pt x="350" y="325" on="0"/>
        <pt x="262" y="301" on="0"/>
        <pt x="187" y="273" on="0"/>
        <pt x="133" y="249" on="0"/>
        <pt x="127" y="249" on="1"/>
        <pt x="130" y="226" on="0"/>
        <pt x="139" y="159" on="0"/>
        <pt x="144" y="128" on="1"/>
        <pt x="149" y="92" on="0"/>
        <pt x="155" y="53" on="1"/>
        <pt x="159" y="53" on="1"/>
        <pt x="161" y="43" on="0"/>
        <pt x="173" y="5" on="0"/>
        <pt x="173" y="-6" on="1"/>
        <pt x="173" y="-22" on="0"/>
        <pt x="161" y="-22" on="1"/>
        <pt x="155" y="-22" on="0"/>
        <pt x="140" y="0" on="0"/>
        <pt x="125" y="30" on="0"/>
        <pt x="114" y="59" on="0"/>
        <pt x="112" y="65" on="1"/>
        <pt x="103" y="98" on="0"/>
        <pt x="86" y="184" on="0"/>
        <pt x="73" y="271" on="0"/>
        <pt x="66" y="348" on="0"/>
        <pt x="66" y="373" on="1"/>
        <pt x="66" y="380" on="0"/>
        <pt x="73" y="390" on="0"/>
        <pt x="73" y="395" on="1"/>
        <pt x="73" y="400" on="0"/>
        <pt x="68" y="405" on="0"/>
        <pt x="68" y="411" on="1"/>
        <pt x="68" y="414" on="0"/>
        <pt x="71" y="421" on="0"/>
        <pt x="78" y="421" on="1"/>
        <pt x="85" y="419" on="0"/>
        <pt x="92" y="419" on="1"/>
        <pt x="98" y="419" on="0"/>
        <pt x="108" y="414" on="0"/>
        <pt x="114" y="402" on="0"/>
        <pt x="114" y="389" on="1"/>
        <pt x="114" y="383" on="1"/>
        <pt x="114" y="381" on="0"/>
        <pt x="113" y="376" on="0"/>
        <pt x="113" y="374" on="1"/>
        <pt x="113" y="357" on="0"/>
        <pt x="115" y="337" on="0"/>
        <pt x="117" y="337" on="1"/>
        <pt x="120" y="337" on="0"/>
        <pt x="157" y="366" on="0"/>
        <pt x="209" y="410" on="0"/>
        <pt x="270" y="464" on="0"/>
        <pt x="298" y="489" on="1"/>
        <pt x="309" y="499" on="0"/>
        <pt x="347" y="536" on="0"/>
        <pt x="384" y="578" on="0"/>
        <pt x="411" y="615" on="0"/>
        <pt x="411" y="625" on="1"/>
        <pt x="411" y="635" on="0"/>
        <pt x="405" y="635" on="1"/>
        <pt x="397" y="635" on="0"/>
        <pt x="345" y="621" on="0"/>
        <pt x="279" y="598" on="0"/>
        <pt x="209" y="568" on="0"/>
        <pt x="182" y="552" on="1"/>
        <pt x="154" y="533" on="0"/>
        <pt x="98" y="487" on="0"/>
        <pt x="53" y="446" on="0"/>
        <pt x="24" y="417" on="0"/>
        <pt x="23" y="415" on="1"/>
        <pt x="21" y="413" on="0"/>
        <pt x="21" y="411" on="1"/>
        <pt x="21" y="409" on="0"/>
        <pt x="24" y="402" on="0"/>
        <pt x="24" y="400" on="1"/>
        <pt x="24" y="397" on="0"/>
        <pt x="16" y="393" on="0"/>
        <pt x="11" y="393" on="1"/>
        <pt x="3" y="393" on="0"/>
        <pt x="-21" y="400" on="0"/>
        <pt x="-21" y="416" on="1"/>
        <pt x="-21" y="430" on="0"/>
        <pt x="11" y="472" on="0"/>
        <pt x="62" y="520" on="0"/>
        <pt x="124" y="567" on="0"/>
        <pt x="154" y="587" on="1"/>
        <pt x="184" y="606" on="0"/>
        <pt x="255" y="641" on="0"/>
        <pt x="324" y="667" on="0"/>
        <pt x="386" y="682" on="0"/>
        <pt x="406" y="682" on="1"/>
        <pt x="414" y="682" on="0"/>
        <pt x="434" y="678" on="0"/>
        <pt x="452" y="670" on="0"/>
        <pt x="464" y="657" on="0"/>
        <pt x="464" y="648" on="1"/>
        <pt x="464" y="621" on="0"/>
        <pt x="432" y="564" on="0"/>
        <pt x="380" y="506" on="0"/>
        <pt x="315" y="447" on="0"/>
        <pt x="250" y="392" on="0"/>
        <pt x="190" y="341" on="0"/>
        <pt x="170" y="320" on="1"/>
        <pt x="181" y="324" on="0"/>
        <pt x="231" y="343" on="0"/>
        <pt x="290" y="362" on="0"/>
        <pt x="350" y="376" on="0"/>
        <pt x="373" y="376" on="1"/>
        <pt x="380" y="376" on="0"/>
        <pt x="426" y="374" on="0"/>
        <pt x="476" y="360" on="0"/>
        <pt x="516" y="329" on="0"/>
      </contour>
    </TTGlyph>
    <TTGlyph name="C" xMin="47" yMin="-3" xMax="477" yMax="479">
      <contour>
        <pt x="477" y="229" on="1"/>
        <pt x="477" y="215" on="0"/>
        <pt x="462" y="185" on="0"/>
        <pt x="440" y="155" on="0"/>
        <pt x="414" y="128" on="0"/>
        <pt x="403" y="118" on="1"/>
        <pt x="376" y="94" on="0"/>
        <pt x="319" y="51" on="0"/>
        <pt x="258" y="17" on="0"/>
        <pt x="192" y="-3" on="0"/>
        <pt x="156" y="-3" on="1"/>
        <pt x="47" y="-3" on="0"/>
        <pt x="47" y="109" on="1"/>
        <pt x="47" y="120" on="0"/>
        <pt x="65" y="184" on="0"/>
        <pt x="93" y="266" on="0"/>
        <pt x="131" y="356" on="0"/>
        <pt x="171" y="431" on="0"/>
        <pt x="210" y="479" on="0"/>
        <pt x="227" y="479" on="1"/>
        <pt x="238" y="479" on="0"/>
        <pt x="249" y="465" on="0"/>
        <pt x="249" y="457" on="1"/>
        <pt x="248" y="451" on="0"/>
        <pt x="222" y="412" on="0"/>
        <pt x="208" y="392" on="1"/>
        <pt x="206" y="389" on="0"/>
        <pt x="196" y="375" on="0"/>
        <pt x="191" y="368" on="1"/>
        <pt x="185" y="360" on="0"/>
        <pt x="179" y="351" on="1"/>
        <pt x="175" y="344" on="0"/>
        <pt x="148" y="287" on="0"/>
        <pt x="118" y="212" on="0"/>
        <pt x="94" y="131" on="0"/>
        <pt x="94" y="101" on="1"/>
        <pt x="94" y="84" on="0"/>
        <pt x="109" y="64" on="0"/>
        <pt x="130" y="54" on="0"/>
        <pt x="153" y="51" on="0"/>
        <pt x="162" y="51" on="1"/>
        <pt x="199" y="51" on="0"/>
        <pt x="282" y="84" on="0"/>
        <pt x="358" y="138" on="0"/>
        <pt x="422" y="209" on="0"/>
        <pt x="440" y="247" on="1"/>
        <pt x="444" y="254" on="0"/>
        <pt x="453" y="258" on="0"/>
        <pt x="457" y="258" on="1"/>
        <pt x="465" y="258" on="0"/>
        <pt x="477" y="236" on="0"/>
      </contour>
    </TTGlyph>
    <TTGlyph name="Cacute" xMin="47" yMin="-3" xMax="477" yMax="660">
      <contour>
        <pt x="477" y="229" on="1"/>
        <pt x="477" y="215" on="0"/>
        <pt x="462" y="185" on="0"/>
        <pt x="440" y="155" on="0"/>
        <pt x="414" y="128" on="0"/>
        <pt x="403" y="118" on="1"/>
        <pt x="376" y="94" on="0"/>
        <pt x="319" y="51" on="0"/>
        <pt x="258" y="17" on="0"/>
        <pt x="192" y="-3" on="0"/>
        <pt x="156" y="-3" on="1"/>
        <pt x="47" y="-3" on="0"/>
        <pt x="47" y="109" on="1"/>
        <pt x="47" y="120" on="0"/>
        <pt x="65" y="184" on="0"/>
        <pt x="93" y="266" on="0"/>
        <pt x="131" y="356" on="0"/>
        <pt x="171" y="431" on="0"/>
        <pt x="210" y="479" on="0"/>
        <pt x="227" y="479" on="1"/>
        <pt x="238" y="479" on="0"/>
        <pt x="249" y="465" on="0"/>
        <pt x="249" y="457" on="1"/>
        <pt x="248" y="451" on="0"/>
        <pt x="222" y="412" on="0"/>
        <pt x="208" y="392" on="1"/>
        <pt x="206" y="389" on="0"/>
        <pt x="196" y="375" on="0"/>
        <pt x="191" y="368" on="1"/>
        <pt x="185" y="360" on="0"/>
        <pt x="179" y="351" on="1"/>
        <pt x="175" y="344" on="0"/>
        <pt x="148" y="287" on="0"/>
        <pt x="118" y="212" on="0"/>
        <pt x="94" y="131" on="0"/>
        <pt x="94" y="101" on="1"/>
        <pt x="94" y="84" on="0"/>
        <pt x="109" y="64" on="0"/>
        <pt x="130" y="54" on="0"/>
        <pt x="153" y="51" on="0"/>
        <pt x="162" y="51" on="1"/>
        <pt x="199" y="51" on="0"/>
        <pt x="282" y="84" on="0"/>
        <pt x="358" y="138" on="0"/>
        <pt x="422" y="209" on="0"/>
        <pt x="440" y="247" on="1"/>
        <pt x="444" y="254" on="0"/>
        <pt x="453" y="258" on="0"/>
        <pt x="457" y="258" on="1"/>
        <pt x="465" y="258" on="0"/>
        <pt x="477" y="236" on="0"/>
      </contour>
      <contour>
        <pt x="325" y="647" on="1"/>
        <pt x="325" y="639" on="0"/>
        <pt x="301" y="609" on="0"/>
        <pt x="268" y="577" on="0"/>
        <pt x="233" y="550" on="0"/>
        <pt x="223" y="545" on="1"/>
        <pt x="215" y="541" on="0"/>
        <pt x="203" y="539" on="0"/>
        <pt x="199" y="539" on="1"/>
        <pt x="191" y="539" on="0"/>
        <pt x="167" y="557" on="0"/>
        <pt x="167" y="565" on="1"/>
        <pt x="167" y="567" on="0"/>
        <pt x="185" y="574" on="0"/>
        <pt x="196" y="580" on="1"/>
        <pt x="206" y="586" on="0"/>
        <pt x="239" y="613" on="0"/>
        <pt x="272" y="640" on="0"/>
        <pt x="299" y="660" on="0"/>
        <pt x="304" y="660" on="1"/>
        <pt x="311" y="660" on="0"/>
        <pt x="325" y="652" on="0"/>
      </contour>
    </TTGlyph>
    <TTGlyph name="Ccaron" xMin="47" yMin="-3" xMax="477" yMax="693">
      <contour>
        <pt x="477" y="229" on="1"/>
        <pt x="477" y="215" on="0"/>
        <pt x="462" y="185" on="0"/>
        <pt x="440" y="155" on="0"/>
        <pt x="414" y="128" on="0"/>
        <pt x="403" y="118" on="1"/>
        <pt x="376" y="94" on="0"/>
        <pt x="319" y="51" on="0"/>
        <pt x="258" y="17" on="0"/>
        <pt x="192" y="-3" on="0"/>
        <pt x="156" y="-3" on="1"/>
        <pt x="47" y="-3" on="0"/>
        <pt x="47" y="109" on="1"/>
        <pt x="47" y="120" on="0"/>
        <pt x="65" y="184" on="0"/>
        <pt x="93" y="266" on="0"/>
        <pt x="131" y="356" on="0"/>
        <pt x="171" y="431" on="0"/>
        <pt x="210" y="479" on="0"/>
        <pt x="227" y="479" on="1"/>
        <pt x="238" y="479" on="0"/>
        <pt x="249" y="465" on="0"/>
        <pt x="249" y="457" on="1"/>
        <pt x="248" y="451" on="0"/>
        <pt x="222" y="412" on="0"/>
        <pt x="208" y="392" on="1"/>
        <pt x="206" y="389" on="0"/>
        <pt x="196" y="375" on="0"/>
        <pt x="191" y="368" on="1"/>
        <pt x="185" y="360" on="0"/>
        <pt x="179" y="351" on="1"/>
        <pt x="175" y="344" on="0"/>
        <pt x="148" y="287" on="0"/>
        <pt x="118" y="212" on="0"/>
        <pt x="94" y="131" on="0"/>
        <pt x="94" y="101" on="1"/>
        <pt x="94" y="84" on="0"/>
        <pt x="109" y="64" on="0"/>
        <pt x="130" y="54" on="0"/>
        <pt x="153" y="51" on="0"/>
        <pt x="162" y="51" on="1"/>
        <pt x="199" y="51" on="0"/>
        <pt x="282" y="84" on="0"/>
        <pt x="358" y="138" on="0"/>
        <pt x="422" y="209" on="0"/>
        <pt x="440" y="247" on="1"/>
        <pt x="444" y="254" on="0"/>
        <pt x="453" y="258" on="0"/>
        <pt x="457" y="258" on="1"/>
        <pt x="465" y="258" on="0"/>
        <pt x="477" y="236" on="0"/>
      </contour>
      <contour>
        <pt x="358" y="684" on="1"/>
        <pt x="363" y="679" on="0"/>
        <pt x="363" y="670" on="1"/>
        <pt x="363" y="662" on="0"/>
        <pt x="352" y="646" on="0"/>
        <pt x="347" y="639" on="1"/>
        <pt x="333" y="623" on="0"/>
        <pt x="302" y="588" on="0"/>
        <pt x="268" y="559" on="0"/>
        <pt x="234" y="540" on="0"/>
        <pt x="217" y="540" on="1"/>
        <pt x="205" y="540" on="0"/>
        <pt x="189" y="566" on="0"/>
        <pt x="178" y="604" on="0"/>
        <pt x="174" y="645" on="0"/>
        <pt x="174" y="660" on="1"/>
        <pt x="174" y="669" on="0"/>
        <pt x="179" y="682" on="0"/>
        <pt x="190" y="682" on="1"/>
        <pt x="199" y="682" on="0"/>
        <pt x="201" y="674" on="1"/>
        <pt x="208" y="645" on="0"/>
        <pt x="225" y="606" on="0"/>
        <pt x="234" y="592" on="1"/>
        <pt x="242" y="597" on="0"/>
        <pt x="263" y="614" on="0"/>
        <pt x="284" y="635" on="0"/>
        <pt x="303" y="657" on="0"/>
        <pt x="310" y="667" on="1"/>
        <pt x="317" y="676" on="0"/>
        <pt x="323" y="693" on="0"/>
        <pt x="336" y="693" on="1"/>
        <pt x="342" y="693" on="0"/>
        <pt x="356" y="686" on="0"/>
      </contour>
    </TTGlyph>
    <TTGlyph name="Ccedilla" xMin="47" yMin="-194" xMax="477" yMax="479">
      <contour>
        <pt x="477" y="229" on="1"/>
        <pt x="477" y="215" on="0"/>
        <pt x="462" y="185" on="0"/>
        <pt x="440" y="155" on="0"/>
        <pt x="414" y="128" on="0"/>
        <pt x="403" y="118" on="1"/>
        <pt x="355" y="76" on="0"/>
        <pt x="249" y="7" on="0"/>
        <pt x="187" y="-1" on="1"/>
        <pt x="183" y="-7" on="0"/>
        <pt x="174" y="-17" on="0"/>
        <pt x="169" y="-22" on="1"/>
        <pt x="164" y="-27" on="0"/>
        <pt x="148" y="-43" on="0"/>
        <pt x="146" y="-53" on="1"/>
        <pt x="148" y="-57" on="0"/>
        <pt x="157" y="-59" on="0"/>
        <pt x="162" y="-59" on="1"/>
        <pt x="165" y="-59" on="0"/>
        <pt x="194" y="-57" on="0"/>
        <pt x="200" y="-57" on="1"/>
        <pt x="207" y="-57" on="0"/>
        <pt x="240" y="-62" on="0"/>
        <pt x="275" y="-77" on="0"/>
        <pt x="301" y="-104" on="0"/>
        <pt x="301" y="-126" on="1"/>
        <pt x="301" y="-144" on="0"/>
        <pt x="273" y="-169" on="0"/>
        <pt x="237" y="-186" on="0"/>
        <pt x="204" y="-194" on="0"/>
        <pt x="199" y="-194" on="1"/>
        <pt x="182" y="-194" on="0"/>
        <pt x="157" y="-168" on="0"/>
        <pt x="157" y="-151" on="1"/>
        <pt x="157" y="-148" on="0"/>
        <pt x="162" y="-148" on="1"/>
        <pt x="167" y="-148" on="0"/>
        <pt x="182" y="-152" on="0"/>
        <pt x="189" y="-152" on="1"/>
        <pt x="191" y="-152" on="0"/>
        <pt x="211" y="-147" on="0"/>
        <pt x="234" y="-138" on="0"/>
        <pt x="253" y="-126" on="0"/>
        <pt x="253" y="-118" on="1"/>
        <pt x="253" y="-113" on="0"/>
        <pt x="242" y="-104" on="0"/>
        <pt x="226" y="-98" on="0"/>
        <pt x="209" y="-94" on="0"/>
        <pt x="202" y="-94" on="1"/>
        <pt x="189" y="-94" on="0"/>
        <pt x="176" y="-96" on="0"/>
        <pt x="164" y="-96" on="1"/>
        <pt x="157" y="-96" on="0"/>
        <pt x="136" y="-94" on="0"/>
        <pt x="116" y="-85" on="0"/>
        <pt x="102" y="-70" on="0"/>
        <pt x="102" y="-56" on="1"/>
        <pt x="102" y="-49" on="0"/>
        <pt x="123" y="-18" on="0"/>
        <pt x="137" y="-2" on="1"/>
        <pt x="47" y="5" on="0"/>
        <pt x="47" y="109" on="1"/>
        <pt x="47" y="120" on="0"/>
        <pt x="65" y="184" on="0"/>
        <pt x="93" y="266" on="0"/>
        <pt x="131" y="356" on="0"/>
        <pt x="171" y="431" on="0"/>
        <pt x="210" y="479" on="0"/>
        <pt x="227" y="479" on="1"/>
        <pt x="238" y="479" on="0"/>
        <pt x="249" y="465" on="0"/>
        <pt x="249" y="457" on="1"/>
        <pt x="248" y="451" on="0"/>
        <pt x="222" y="412" on="0"/>
        <pt x="208" y="392" on="1"/>
        <pt x="206" y="389" on="0"/>
        <pt x="196" y="375" on="0"/>
        <pt x="191" y="368" on="1"/>
        <pt x="185" y="360" on="0"/>
        <pt x="179" y="351" on="1"/>
        <pt x="175" y="344" on="0"/>
        <pt x="148" y="287" on="0"/>
        <pt x="118" y="212" on="0"/>
        <pt x="94" y="131" on="0"/>
        <pt x="94" y="101" on="1"/>
        <pt x="94" y="84" on="0"/>
        <pt x="109" y="64" on="0"/>
        <pt x="130" y="54" on="0"/>
        <pt x="153" y="51" on="0"/>
        <pt x="162" y="51" on="1"/>
        <pt x="199" y="51" on="0"/>
        <pt x="282" y="84" on="0"/>
        <pt x="358" y="138" on="0"/>
        <pt x="422" y="209" on="0"/>
        <pt x="440" y="247" on="1"/>
        <pt x="444" y="254" on="0"/>
        <pt x="453" y="258" on="0"/>
        <pt x="457" y="258" on="1"/>
        <pt x="465" y="258" on="0"/>
        <pt x="477" y="236" on="0"/>
      </contour>
    </TTGlyph>
    <TTGlyph name="D" xMin="-142" yMin="-80" xMax="404" yMax="518">
      <contour>
        <pt x="404" y="300" on="1"/>
        <pt x="404" y="266" on="0"/>
        <pt x="380" y="204" on="0"/>
        <pt x="336" y="146" on="0"/>
        <pt x="277" y="91" on="0"/>
        <pt x="242" y="65" on="1"/>
        <pt x="205" y="37" on="0"/>
        <pt x="107" y="-15" on="0"/>
        <pt x="8" y="-56" on="0"/>
        <pt x="-80" y="-80" on="0"/>
        <pt x="-107" y="-80" on="1"/>
        <pt x="-125" y="-80" on="0"/>
        <pt x="-142" y="-71" on="0"/>
        <pt x="-142" y="-55" on="1"/>
        <pt x="-142" y="-44" on="0"/>
        <pt x="-126" y="-14" on="0"/>
        <pt x="-118" y="-14" on="1"/>
        <pt x="-110" y="-14" on="0"/>
        <pt x="-103" y="-24" on="0"/>
        <pt x="-103" y="-30" on="1"/>
        <pt x="-103" y="-33" on="0"/>
        <pt x="-104" y="-37" on="0"/>
        <pt x="-104" y="-38" on="1"/>
        <pt x="-104" y="-40" on="1"/>
        <pt x="-66" y="-36" on="0"/>
        <pt x="61" y="3" on="0"/>
        <pt x="149" y="51" on="1"/>
        <pt x="187" y="72" on="0"/>
        <pt x="261" y="129" on="0"/>
        <pt x="320" y="194" on="0"/>
        <pt x="356" y="265" on="0"/>
        <pt x="356" y="299" on="1"/>
        <pt x="356" y="323" on="0"/>
        <pt x="307" y="374" on="0"/>
        <pt x="232" y="419" on="0"/>
        <pt x="144" y="452" on="0"/>
        <pt x="106" y="458" on="1"/>
        <pt x="107" y="453" on="0"/>
        <pt x="111" y="414" on="0"/>
        <pt x="119" y="362" on="0"/>
        <pt x="130" y="303" on="0"/>
        <pt x="137" y="278" on="1"/>
        <pt x="145" y="250" on="0"/>
        <pt x="150" y="223" on="0"/>
        <pt x="151" y="214" on="1"/>
        <pt x="152" y="204" on="0"/>
        <pt x="157" y="173" on="0"/>
        <pt x="160" y="140" on="0"/>
        <pt x="163" y="111" on="0"/>
        <pt x="163" y="103" on="1"/>
        <pt x="163" y="94" on="0"/>
        <pt x="156" y="74" on="0"/>
        <pt x="151" y="74" on="1"/>
        <pt x="139" y="74" on="0"/>
        <pt x="130" y="91" on="0"/>
        <pt x="123" y="132" on="0"/>
        <pt x="113" y="198" on="0"/>
        <pt x="99" y="246" on="1"/>
        <pt x="79" y="313" on="0"/>
        <pt x="63" y="432" on="0"/>
        <pt x="61" y="467" on="1"/>
        <pt x="57" y="468" on="1"/>
        <pt x="45" y="468" on="1"/>
        <pt x="37" y="468" on="0"/>
        <pt x="18" y="469" on="0"/>
        <pt x="10" y="469" on="1"/>
        <pt x="-7" y="469" on="0"/>
        <pt x="-35" y="456" on="0"/>
        <pt x="-54" y="440" on="0"/>
        <pt x="-67" y="427" on="0"/>
        <pt x="-69" y="427" on="1"/>
        <pt x="-76" y="427" on="0"/>
        <pt x="-101" y="434" on="0"/>
        <pt x="-101" y="444" on="1"/>
        <pt x="-101" y="457" on="0"/>
        <pt x="-76" y="484" on="0"/>
        <pt x="-40" y="505" on="0"/>
        <pt x="2" y="518" on="0"/>
        <pt x="20" y="518" on="1"/>
        <pt x="50" y="518" on="0"/>
        <pt x="130" y="502" on="0"/>
        <pt x="215" y="474" on="0"/>
        <pt x="298" y="434" on="0"/>
        <pt x="364" y="386" on="0"/>
        <pt x="404" y="330" on="0"/>
      </contour>
    </TTGlyph>
    <TTGlyph name="Dcaron" xMin="-142" yMin="-80" xMax="404" yMax="729">
      <contour>
        <pt x="404" y="300" on="1"/>
        <pt x="404" y="266" on="0"/>
        <pt x="380" y="204" on="0"/>
        <pt x="336" y="146" on="0"/>
        <pt x="277" y="91" on="0"/>
        <pt x="242" y="65" on="1"/>
        <pt x="205" y="37" on="0"/>
        <pt x="107" y="-15" on="0"/>
        <pt x="8" y="-56" on="0"/>
        <pt x="-80" y="-80" on="0"/>
        <pt x="-107" y="-80" on="1"/>
        <pt x="-125" y="-80" on="0"/>
        <pt x="-142" y="-71" on="0"/>
        <pt x="-142" y="-55" on="1"/>
        <pt x="-142" y="-44" on="0"/>
        <pt x="-126" y="-14" on="0"/>
        <pt x="-118" y="-14" on="1"/>
        <pt x="-110" y="-14" on="0"/>
        <pt x="-103" y="-24" on="0"/>
        <pt x="-103" y="-30" on="1"/>
        <pt x="-103" y="-33" on="0"/>
        <pt x="-104" y="-37" on="0"/>
        <pt x="-104" y="-38" on="1"/>
        <pt x="-104" y="-40" on="1"/>
        <pt x="-66" y="-36" on="0"/>
        <pt x="61" y="3" on="0"/>
        <pt x="149" y="51" on="1"/>
        <pt x="187" y="72" on="0"/>
        <pt x="261" y="129" on="0"/>
        <pt x="320" y="194" on="0"/>
        <pt x="356" y="265" on="0"/>
        <pt x="356" y="299" on="1"/>
        <pt x="356" y="323" on="0"/>
        <pt x="307" y="374" on="0"/>
        <pt x="232" y="419" on="0"/>
        <pt x="144" y="452" on="0"/>
        <pt x="106" y="458" on="1"/>
        <pt x="107" y="453" on="0"/>
        <pt x="111" y="414" on="0"/>
        <pt x="119" y="362" on="0"/>
        <pt x="130" y="303" on="0"/>
        <pt x="137" y="278" on="1"/>
        <pt x="145" y="250" on="0"/>
        <pt x="150" y="223" on="0"/>
        <pt x="151" y="214" on="1"/>
        <pt x="152" y="204" on="0"/>
        <pt x="157" y="173" on="0"/>
        <pt x="160" y="140" on="0"/>
        <pt x="163" y="111" on="0"/>
        <pt x="163" y="103" on="1"/>
        <pt x="163" y="94" on="0"/>
        <pt x="156" y="74" on="0"/>
        <pt x="151" y="74" on="1"/>
        <pt x="139" y="74" on="0"/>
        <pt x="130" y="91" on="0"/>
        <pt x="123" y="132" on="0"/>
        <pt x="113" y="198" on="0"/>
        <pt x="99" y="246" on="1"/>
        <pt x="79" y="313" on="0"/>
        <pt x="63" y="432" on="0"/>
        <pt x="61" y="467" on="1"/>
        <pt x="57" y="468" on="1"/>
        <pt x="45" y="468" on="1"/>
        <pt x="37" y="468" on="0"/>
        <pt x="18" y="469" on="0"/>
        <pt x="10" y="469" on="1"/>
        <pt x="-7" y="469" on="0"/>
        <pt x="-35" y="456" on="0"/>
        <pt x="-54" y="440" on="0"/>
        <pt x="-67" y="427" on="0"/>
        <pt x="-69" y="427" on="1"/>
        <pt x="-76" y="427" on="0"/>
        <pt x="-101" y="434" on="0"/>
        <pt x="-101" y="444" on="1"/>
        <pt x="-101" y="457" on="0"/>
        <pt x="-76" y="484" on="0"/>
        <pt x="-40" y="505" on="0"/>
        <pt x="2" y="518" on="0"/>
        <pt x="20" y="518" on="1"/>
        <pt x="50" y="518" on="0"/>
        <pt x="130" y="502" on="0"/>
        <pt x="215" y="474" on="0"/>
        <pt x="298" y="434" on="0"/>
        <pt x="364" y="386" on="0"/>
        <pt x="404" y="330" on="0"/>
      </contour>
      <contour>
        <pt x="237" y="720" on="1"/>
        <pt x="242" y="715" on="0"/>
        <pt x="242" y="706" on="1"/>
        <pt x="242" y="698" on="0"/>
        <pt x="231" y="682" on="0"/>
        <pt x="226" y="675" on="1"/>
        <pt x="212" y="659" on="0"/>
        <pt x="181" y="624" on="0"/>
        <pt x="147" y="595" on="0"/>
        <pt x="113" y="576" on="0"/>
        <pt x="96" y="576" on="1"/>
        <pt x="84" y="576" on="0"/>
        <pt x="68" y="602" on="0"/>
        <pt x="57" y="640" on="0"/>
        <pt x="53" y="681" on="0"/>
        <pt x="53" y="696" on="1"/>
        <pt x="53" y="705" on="0"/>
        <pt x="58" y="718" on="0"/>
        <pt x="69" y="718" on="1"/>
        <pt x="78" y="718" on="0"/>
        <pt x="80" y="710" on="1"/>
        <pt x="87" y="681" on="0"/>
        <pt x="104" y="642" on="0"/>
        <pt x="113" y="628" on="1"/>
        <pt x="121" y="633" on="0"/>
        <pt x="142" y="650" on="0"/>
        <pt x="163" y="671" on="0"/>
        <pt x="182" y="693" on="0"/>
        <pt x="189" y="703" on="1"/>
        <pt x="196" y="712" on="0"/>
        <pt x="202" y="729" on="0"/>
        <pt x="215" y="729" on="1"/>
        <pt x="221" y="729" on="0"/>
        <pt x="235" y="722" on="0"/>
      </contour>
    </TTGlyph>
    <TTGlyph name="Dcroat" xMin="-100" yMin="-61" xMax="404" yMax="517">
      <contour>
        <pt x="168" y="275" on="1"/>
        <pt x="168" y="269" on="0"/>
        <pt x="153" y="258" on="0"/>
        <pt x="142" y="253" on="1"/>
        <pt x="146" y="238" on="0"/>
        <pt x="148" y="222" on="0"/>
        <pt x="149" y="210" on="0"/>
        <pt x="150" y="197" on="0"/>
        <pt x="153" y="184" on="1"/>
        <pt x="158" y="161" on="0"/>
        <pt x="162" y="115" on="0"/>
        <pt x="162" y="102" on="1"/>
        <pt x="162" y="94" on="0"/>
        <pt x="156" y="74" on="0"/>
        <pt x="151" y="74" on="1"/>
        <pt x="142" y="74" on="0"/>
        <pt x="133" y="92" on="0"/>
        <pt x="128" y="121" on="0"/>
        <pt x="123" y="159" on="0"/>
        <pt x="118" y="179" on="1"/>
        <pt x="103" y="238" on="1"/>
        <pt x="83" y="233" on="0"/>
        <pt x="52" y="226" on="0"/>
        <pt x="48" y="226" on="1"/>
        <pt x="33" y="226" on="0"/>
        <pt x="21" y="230" on="0"/>
        <pt x="17" y="239" on="1"/>
        <pt x="15" y="243" on="0"/>
        <pt x="9" y="252" on="0"/>
        <pt x="9" y="255" on="1"/>
        <pt x="9" y="260" on="0"/>
        <pt x="17" y="260" on="1"/>
        <pt x="27" y="260" on="0"/>
        <pt x="70" y="270" on="0"/>
        <pt x="93" y="276" on="1"/>
        <pt x="88" y="296" on="0"/>
        <pt x="80" y="330" on="0"/>
        <pt x="78" y="338" on="1"/>
        <pt x="76" y="349" on="0"/>
        <pt x="71" y="390" on="0"/>
        <pt x="69" y="412" on="1"/>
        <pt x="66" y="437" on="0"/>
        <pt x="63" y="466" on="1"/>
        <pt x="58" y="467" on="1"/>
        <pt x="53" y="468" on="0"/>
        <pt x="37" y="470" on="0"/>
        <pt x="18" y="472" on="0"/>
        <pt x="10" y="472" on="1"/>
        <pt x="-7" y="472" on="0"/>
        <pt x="-34" y="459" on="0"/>
        <pt x="-55" y="442" on="0"/>
        <pt x="-68" y="429" on="0"/>
        <pt x="-70" y="429" on="1"/>
        <pt x="-76" y="429" on="0"/>
        <pt x="-100" y="436" on="0"/>
        <pt x="-100" y="445" on="1"/>
        <pt x="-100" y="458" on="0"/>
        <pt x="-76" y="484" on="0"/>
        <pt x="-40" y="504" on="0"/>
        <pt x="2" y="517" on="0"/>
        <pt x="20" y="517" on="1"/>
        <pt x="49" y="517" on="0"/>
        <pt x="129" y="501" on="0"/>
        <pt x="215" y="473" on="0"/>
        <pt x="298" y="433" on="0"/>
        <pt x="364" y="385" on="0"/>
        <pt x="404" y="330" on="0"/>
        <pt x="404" y="300" on="1"/>
        <pt x="404" y="232" on="0"/>
        <pt x="314" y="119" on="0"/>
        <pt x="242" y="65" on="1"/>
        <pt x="205" y="37" on="0"/>
        <pt x="120" y="-10" on="0"/>
        <pt x="36" y="-43" on="0"/>
        <pt x="-39" y="-61" on="0"/>
        <pt x="-67" y="-61" on="1"/>
        <pt x="-84" y="-61" on="0"/>
        <pt x="-100" y="-52" on="0"/>
        <pt x="-100" y="-38" on="1"/>
        <pt x="-100" y="-28" on="0"/>
        <pt x="-85" y="1" on="0"/>
        <pt x="-78" y="1" on="1"/>
        <pt x="-71" y="1" on="0"/>
        <pt x="-65" y="-8" on="0"/>
        <pt x="-65" y="-13" on="1"/>
        <pt x="-65" y="-16" on="0"/>
        <pt x="-66" y="-20" on="0"/>
        <pt x="-66" y="-22" on="1"/>
        <pt x="-66" y="-25" on="1"/>
        <pt x="-63" y="-25" on="0"/>
        <pt x="-57" y="-24" on="0"/>
        <pt x="-54" y="-24" on="1"/>
        <pt x="-36" y="-23" on="0"/>
        <pt x="-1" y="-19" on="0"/>
        <pt x="44" y="-5" on="0"/>
        <pt x="105" y="22" on="0"/>
        <pt x="150" y="47" on="1"/>
        <pt x="189" y="68" on="0"/>
        <pt x="264" y="126" on="0"/>
        <pt x="323" y="192" on="0"/>
        <pt x="360" y="263" on="0"/>
        <pt x="360" y="299" on="1"/>
        <pt x="360" y="323" on="0"/>
        <pt x="309" y="375" on="0"/>
        <pt x="233" y="421" on="0"/>
        <pt x="143" y="455" on="0"/>
        <pt x="104" y="461" on="1"/>
        <pt x="104" y="457" on="0"/>
        <pt x="108" y="421" on="0"/>
        <pt x="115" y="371" on="0"/>
        <pt x="125" y="313" on="0"/>
        <pt x="132" y="287" on="1"/>
        <pt x="149" y="292" on="0"/>
        <pt x="153" y="292" on="1"/>
        <pt x="157" y="292" on="0"/>
        <pt x="168" y="279" on="0"/>
      </contour>
    </TTGlyph>
    <TTGlyph name="Delta" xMin="55" yMin="-38" xMax="341" yMax="660">
      <contour>
        <pt x="303" y="-34" on="1"/>
        <pt x="297" y="-28" on="0"/>
        <pt x="286" y="-2" on="0"/>
        <pt x="278" y="26" on="1"/>
        <pt x="267" y="21" on="0"/>
        <pt x="246" y="14" on="0"/>
        <pt x="235" y="10" on="1"/>
        <pt x="222" y="6" on="0"/>
        <pt x="178" y="-7" on="0"/>
        <pt x="131" y="-19" on="0"/>
        <pt x="87" y="-28" on="0"/>
        <pt x="75" y="-28" on="1"/>
        <pt x="67" y="-28" on="0"/>
        <pt x="55" y="-10" on="0"/>
        <pt x="55" y="8" on="1"/>
        <pt x="55" y="17" on="0"/>
        <pt x="65" y="83" on="0"/>
        <pt x="77" y="164" on="0"/>
        <pt x="89" y="244" on="0"/>
        <pt x="91" y="267" on="1"/>
        <pt x="92" y="279" on="0"/>
        <pt x="103" y="333" on="0"/>
        <pt x="115" y="390" on="0"/>
        <pt x="127" y="436" on="0"/>
        <pt x="129" y="439" on="1"/>
        <pt x="139" y="476" on="0"/>
        <pt x="150" y="554" on="0"/>
        <pt x="162" y="619" on="0"/>
        <pt x="177" y="660" on="0"/>
        <pt x="190" y="660" on="1"/>
        <pt x="195" y="660" on="0"/>
        <pt x="206" y="644" on="0"/>
        <pt x="216" y="622" on="0"/>
        <pt x="222" y="601" on="0"/>
        <pt x="223" y="595" on="1"/>
        <pt x="224" y="589" on="0"/>
        <pt x="227" y="553" on="0"/>
        <pt x="230" y="510" on="0"/>
        <pt x="233" y="469" on="0"/>
        <pt x="234" y="458" on="1"/>
        <pt x="238" y="413" on="0"/>
        <pt x="254" y="320" on="0"/>
        <pt x="271" y="235" on="0"/>
        <pt x="289" y="164" on="0"/>
        <pt x="295" y="141" on="1"/>
        <pt x="311" y="82" on="1"/>
        <pt x="330" y="84" on="1"/>
        <pt x="341" y="84" on="0"/>
        <pt x="341" y="72" on="1"/>
        <pt x="341" y="67" on="0"/>
        <pt x="326" y="56" on="0"/>
        <pt x="321" y="51" on="1"/>
        <pt x="327" y="33" on="0"/>
        <pt x="335" y="14" on="0"/>
        <pt x="339" y="0" on="0"/>
        <pt x="341" y="-11" on="0"/>
        <pt x="341" y="-20" on="1"/>
        <pt x="341" y="-30" on="0"/>
        <pt x="332" y="-38" on="0"/>
        <pt x="319" y="-38" on="1"/>
        <pt x="307" y="-38" on="0"/>
      </contour>
      <contour>
        <pt x="123" y="134" on="1"/>
        <pt x="118" y="102" on="0"/>
        <pt x="112" y="48" on="0"/>
        <pt x="109" y="30" on="1"/>
        <pt x="129" y="33" on="0"/>
        <pt x="164" y="41" on="0"/>
        <pt x="201" y="52" on="0"/>
        <pt x="241" y="64" on="0"/>
        <pt x="265" y="70" on="1"/>
        <pt x="256" y="103" on="0"/>
        <pt x="238" y="176" on="0"/>
        <pt x="230" y="215" on="1"/>
        <pt x="230" y="218" on="0"/>
        <pt x="223" y="243" on="0"/>
        <pt x="214" y="282" on="0"/>
        <pt x="204" y="332" on="0"/>
        <pt x="200" y="360" on="1"/>
        <pt x="198" y="378" on="0"/>
        <pt x="192" y="440" on="0"/>
        <pt x="186" y="501" on="0"/>
        <pt x="184" y="523" on="1"/>
        <pt x="182" y="545" on="1"/>
        <pt x="179" y="530" on="1"/>
        <pt x="176" y="515" on="0"/>
        <pt x="169" y="475" on="0"/>
        <pt x="164" y="433" on="0"/>
        <pt x="164" y="420" on="1"/>
      </contour>
    </TTGlyph>
    <TTGlyph name="E" xMin="28" yMin="-5" xMax="335" yMax="536">
      <contour>
        <pt x="331" y="353" on="1"/>
        <pt x="332" y="351" on="0"/>
        <pt x="334" y="350" on="0"/>
        <pt x="334" y="348" on="1"/>
        <pt x="334" y="342" on="0"/>
        <pt x="284" y="309" on="0"/>
        <pt x="210" y="268" on="0"/>
        <pt x="128" y="227" on="0"/>
        <pt x="96" y="214" on="1"/>
        <pt x="96" y="212" on="0"/>
        <pt x="92" y="190" on="0"/>
        <pt x="92" y="187" on="1"/>
        <pt x="92" y="168" on="1"/>
        <pt x="92" y="145" on="0"/>
        <pt x="106" y="100" on="0"/>
        <pt x="135" y="64" on="0"/>
        <pt x="177" y="42" on="0"/>
        <pt x="205" y="42" on="1"/>
        <pt x="217" y="42" on="0"/>
        <pt x="252" y="51" on="0"/>
        <pt x="285" y="68" on="0"/>
        <pt x="311" y="92" on="0"/>
        <pt x="314" y="107" on="1"/>
        <pt x="326" y="106" on="0"/>
        <pt x="331" y="94" on="0"/>
        <pt x="331" y="92" on="1"/>
        <pt x="331" y="66" on="0"/>
        <pt x="306" y="29" on="0"/>
        <pt x="269" y="6" on="0"/>
        <pt x="228" y="-5" on="0"/>
        <pt x="212" y="-5" on="1"/>
        <pt x="126" y="-5" on="0"/>
        <pt x="48" y="91" on="0"/>
        <pt x="48" y="169" on="1"/>
        <pt x="48" y="173" on="0"/>
        <pt x="52" y="201" on="0"/>
        <pt x="52" y="206" on="1"/>
        <pt x="52" y="207" on="0"/>
        <pt x="44" y="210" on="0"/>
        <pt x="35" y="214" on="0"/>
        <pt x="28" y="223" on="0"/>
        <pt x="28" y="231" on="1"/>
        <pt x="28" y="239" on="0"/>
        <pt x="40" y="249" on="0"/>
        <pt x="48" y="253" on="1"/>
        <pt x="58" y="259" on="1"/>
        <pt x="67" y="297" on="0"/>
        <pt x="92" y="368" on="0"/>
        <pt x="111" y="404" on="1"/>
        <pt x="103" y="404" on="0"/>
        <pt x="85" y="408" on="0"/>
        <pt x="85" y="420" on="1"/>
        <pt x="85" y="434" on="0"/>
        <pt x="118" y="468" on="0"/>
        <pt x="161" y="498" on="0"/>
        <pt x="203" y="519" on="0"/>
        <pt x="212" y="519" on="1"/>
        <pt x="216" y="519" on="0"/>
        <pt x="219" y="516" on="0"/>
        <pt x="223" y="516" on="1"/>
        <pt x="231" y="516" on="0"/>
        <pt x="256" y="522" on="0"/>
        <pt x="284" y="530" on="0"/>
        <pt x="309" y="536" on="0"/>
        <pt x="317" y="536" on="1"/>
        <pt x="326" y="536" on="0"/>
        <pt x="335" y="524" on="0"/>
        <pt x="335" y="517" on="1"/>
        <pt x="335" y="509" on="0"/>
        <pt x="315" y="502" on="0"/>
        <pt x="307" y="500" on="1"/>
        <pt x="279" y="495" on="0"/>
        <pt x="218" y="470" on="0"/>
        <pt x="192" y="455" on="1"/>
        <pt x="182" y="444" on="0"/>
        <pt x="154" y="403" on="0"/>
        <pt x="128" y="351" on="0"/>
        <pt x="107" y="295" on="0"/>
        <pt x="104" y="270" on="1"/>
        <pt x="121" y="278" on="1"/>
        <pt x="198" y="315" on="0"/>
        <pt x="295" y="357" on="0"/>
        <pt x="322" y="357" on="1"/>
        <pt x="327" y="357" on="0"/>
      </contour>
    </TTGlyph>
    <TTGlyph name="Eacute" xMin="28" yMin="-5" xMax="335" yMax="682">
      <contour>
        <pt x="331" y="353" on="1"/>
        <pt x="332" y="351" on="0"/>
        <pt x="334" y="350" on="0"/>
        <pt x="334" y="348" on="1"/>
        <pt x="334" y="342" on="0"/>
        <pt x="284" y="309" on="0"/>
        <pt x="210" y="268" on="0"/>
        <pt x="128" y="227" on="0"/>
        <pt x="96" y="214" on="1"/>
        <pt x="96" y="212" on="0"/>
        <pt x="92" y="190" on="0"/>
        <pt x="92" y="187" on="1"/>
        <pt x="92" y="168" on="1"/>
        <pt x="92" y="145" on="0"/>
        <pt x="106" y="100" on="0"/>
        <pt x="135" y="64" on="0"/>
        <pt x="177" y="42" on="0"/>
        <pt x="205" y="42" on="1"/>
        <pt x="217" y="42" on="0"/>
        <pt x="252" y="51" on="0"/>
        <pt x="285" y="68" on="0"/>
        <pt x="311" y="92" on="0"/>
        <pt x="314" y="107" on="1"/>
        <pt x="326" y="106" on="0"/>
        <pt x="331" y="94" on="0"/>
        <pt x="331" y="92" on="1"/>
        <pt x="331" y="66" on="0"/>
        <pt x="306" y="29" on="0"/>
        <pt x="269" y="6" on="0"/>
        <pt x="228" y="-5" on="0"/>
        <pt x="212" y="-5" on="1"/>
        <pt x="126" y="-5" on="0"/>
        <pt x="48" y="91" on="0"/>
        <pt x="48" y="169" on="1"/>
        <pt x="48" y="173" on="0"/>
        <pt x="52" y="201" on="0"/>
        <pt x="52" y="206" on="1"/>
        <pt x="52" y="207" on="0"/>
        <pt x="44" y="210" on="0"/>
        <pt x="35" y="214" on="0"/>
        <pt x="28" y="223" on="0"/>
        <pt x="28" y="231" on="1"/>
        <pt x="28" y="239" on="0"/>
        <pt x="40" y="249" on="0"/>
        <pt x="48" y="253" on="1"/>
        <pt x="58" y="259" on="1"/>
        <pt x="67" y="297" on="0"/>
        <pt x="92" y="368" on="0"/>
        <pt x="111" y="404" on="1"/>
        <pt x="103" y="404" on="0"/>
        <pt x="85" y="408" on="0"/>
        <pt x="85" y="420" on="1"/>
        <pt x="85" y="434" on="0"/>
        <pt x="118" y="468" on="0"/>
        <pt x="161" y="498" on="0"/>
        <pt x="203" y="519" on="0"/>
        <pt x="212" y="519" on="1"/>
        <pt x="216" y="519" on="0"/>
        <pt x="219" y="516" on="0"/>
        <pt x="223" y="516" on="1"/>
        <pt x="231" y="516" on="0"/>
        <pt x="256" y="522" on="0"/>
        <pt x="284" y="530" on="0"/>
        <pt x="309" y="536" on="0"/>
        <pt x="317" y="536" on="1"/>
        <pt x="326" y="536" on="0"/>
        <pt x="335" y="524" on="0"/>
        <pt x="335" y="517" on="1"/>
        <pt x="335" y="509" on="0"/>
        <pt x="315" y="502" on="0"/>
        <pt x="307" y="500" on="1"/>
        <pt x="279" y="495" on="0"/>
        <pt x="218" y="470" on="0"/>
        <pt x="192" y="455" on="1"/>
        <pt x="182" y="444" on="0"/>
        <pt x="154" y="403" on="0"/>
        <pt x="128" y="351" on="0"/>
        <pt x="107" y="295" on="0"/>
        <pt x="104" y="270" on="1"/>
        <pt x="121" y="278" on="1"/>
        <pt x="198" y="315" on="0"/>
        <pt x="295" y="357" on="0"/>
        <pt x="322" y="357" on="1"/>
        <pt x="327" y="357" on="0"/>
      </contour>
      <contour>
        <pt x="322" y="669" on="1"/>
        <pt x="322" y="661" on="0"/>
        <pt x="298" y="631" on="0"/>
        <pt x="265" y="599" on="0"/>
        <pt x="230" y="572" on="0"/>
        <pt x="220" y="567" on="1"/>
        <pt x="212" y="563" on="0"/>
        <pt x="200" y="561" on="0"/>
        <pt x="196" y="561" on="1"/>
        <pt x="188" y="561" on="0"/>
        <pt x="164" y="579" on="0"/>
        <pt x="164" y="587" on="1"/>
        <pt x="164" y="589" on="0"/>
        <pt x="182" y="596" on="0"/>
        <pt x="193" y="602" on="1"/>
        <pt x="203" y="608" on="0"/>
        <pt x="236" y="635" on="0"/>
        <pt x="269" y="662" on="0"/>
        <pt x="296" y="682" on="0"/>
        <pt x="301" y="682" on="1"/>
        <pt x="308" y="682" on="0"/>
        <pt x="322" y="674" on="0"/>
      </contour>
    </TTGlyph>
    <TTGlyph name="Ecaron" xMin="28" yMin="-5" xMax="357" yMax="722">
      <contour>
        <pt x="331" y="353" on="1"/>
        <pt x="332" y="351" on="0"/>
        <pt x="334" y="350" on="0"/>
        <pt x="334" y="348" on="1"/>
        <pt x="334" y="342" on="0"/>
        <pt x="284" y="309" on="0"/>
        <pt x="210" y="268" on="0"/>
        <pt x="128" y="227" on="0"/>
        <pt x="96" y="214" on="1"/>
        <pt x="96" y="212" on="0"/>
        <pt x="92" y="190" on="0"/>
        <pt x="92" y="187" on="1"/>
        <pt x="92" y="168" on="1"/>
        <pt x="92" y="145" on="0"/>
        <pt x="106" y="100" on="0"/>
        <pt x="135" y="64" on="0"/>
        <pt x="177" y="42" on="0"/>
        <pt x="205" y="42" on="1"/>
        <pt x="217" y="42" on="0"/>
        <pt x="252" y="51" on="0"/>
        <pt x="285" y="68" on="0"/>
        <pt x="311" y="92" on="0"/>
        <pt x="314" y="107" on="1"/>
        <pt x="326" y="106" on="0"/>
        <pt x="331" y="94" on="0"/>
        <pt x="331" y="92" on="1"/>
        <pt x="331" y="66" on="0"/>
        <pt x="306" y="29" on="0"/>
        <pt x="269" y="6" on="0"/>
        <pt x="228" y="-5" on="0"/>
        <pt x="212" y="-5" on="1"/>
        <pt x="126" y="-5" on="0"/>
        <pt x="48" y="91" on="0"/>
        <pt x="48" y="169" on="1"/>
        <pt x="48" y="173" on="0"/>
        <pt x="52" y="201" on="0"/>
        <pt x="52" y="206" on="1"/>
        <pt x="52" y="207" on="0"/>
        <pt x="44" y="210" on="0"/>
        <pt x="35" y="214" on="0"/>
        <pt x="28" y="223" on="0"/>
        <pt x="28" y="231" on="1"/>
        <pt x="28" y="239" on="0"/>
        <pt x="40" y="249" on="0"/>
        <pt x="48" y="253" on="1"/>
        <pt x="58" y="259" on="1"/>
        <pt x="67" y="297" on="0"/>
        <pt x="92" y="368" on="0"/>
        <pt x="111" y="404" on="1"/>
        <pt x="103" y="404" on="0"/>
        <pt x="85" y="408" on="0"/>
        <pt x="85" y="420" on="1"/>
        <pt x="85" y="434" on="0"/>
        <pt x="118" y="468" on="0"/>
        <pt x="161" y="498" on="0"/>
        <pt x="203" y="519" on="0"/>
        <pt x="212" y="519" on="1"/>
        <pt x="216" y="519" on="0"/>
        <pt x="219" y="516" on="0"/>
        <pt x="223" y="516" on="1"/>
        <pt x="231" y="516" on="0"/>
        <pt x="256" y="522" on="0"/>
        <pt x="284" y="530" on="0"/>
        <pt x="309" y="536" on="0"/>
        <pt x="317" y="536" on="1"/>
        <pt x="326" y="536" on="0"/>
        <pt x="335" y="524" on="0"/>
        <pt x="335" y="517" on="1"/>
        <pt x="335" y="509" on="0"/>
        <pt x="315" y="502" on="0"/>
        <pt x="307" y="500" on="1"/>
        <pt x="279" y="495" on="0"/>
        <pt x="218" y="470" on="0"/>
        <pt x="192" y="455" on="1"/>
        <pt x="182" y="444" on="0"/>
        <pt x="154" y="403" on="0"/>
        <pt x="128" y="351" on="0"/>
        <pt x="107" y="295" on="0"/>
        <pt x="104" y="270" on="1"/>
        <pt x="121" y="278" on="1"/>
        <pt x="198" y="315" on="0"/>
        <pt x="295" y="357" on="0"/>
        <pt x="322" y="357" on="1"/>
        <pt x="327" y="357" on="0"/>
      </contour>
      <contour>
        <pt x="352" y="713" on="1"/>
        <pt x="357" y="708" on="0"/>
        <pt x="357" y="699" on="1"/>
        <pt x="357" y="691" on="0"/>
        <pt x="346" y="675" on="0"/>
        <pt x="341" y="668" on="1"/>
        <pt x="327" y="652" on="0"/>
        <pt x="296" y="617" on="0"/>
        <pt x="262" y="588" on="0"/>
        <pt x="228" y="569" on="0"/>
        <pt x="211" y="569" on="1"/>
        <pt x="199" y="569" on="0"/>
        <pt x="183" y="595" on="0"/>
        <pt x="172" y="633" on="0"/>
        <pt x="168" y="674" on="0"/>
        <pt x="168" y="689" on="1"/>
        <pt x="168" y="698" on="0"/>
        <pt x="173" y="711" on="0"/>
        <pt x="184" y="711" on="1"/>
        <pt x="193" y="711" on="0"/>
        <pt x="195" y="703" on="1"/>
        <pt x="202" y="674" on="0"/>
        <pt x="219" y="635" on="0"/>
        <pt x="228" y="621" on="1"/>
        <pt x="236" y="626" on="0"/>
        <pt x="257" y="643" on="0"/>
        <pt x="278" y="664" on="0"/>
        <pt x="297" y="686" on="0"/>
        <pt x="304" y="696" on="1"/>
        <pt x="311" y="705" on="0"/>
        <pt x="317" y="722" on="0"/>
        <pt x="330" y="722" on="1"/>
        <pt x="336" y="722" on="0"/>
        <pt x="350" y="715" on="0"/>
      </contour>
    </TTGlyph>
    <TTGlyph name="Ecircumflex" xMin="28" yMin="-5" xMax="356" yMax="719">
      <contour>
        <pt x="331" y="353" on="1"/>
        <pt x="332" y="351" on="0"/>
        <pt x="334" y="350" on="0"/>
        <pt x="334" y="348" on="1"/>
        <pt x="334" y="342" on="0"/>
        <pt x="284" y="309" on="0"/>
        <pt x="210" y="268" on="0"/>
        <pt x="128" y="227" on="0"/>
        <pt x="96" y="214" on="1"/>
        <pt x="96" y="212" on="0"/>
        <pt x="92" y="190" on="0"/>
        <pt x="92" y="187" on="1"/>
        <pt x="92" y="168" on="1"/>
        <pt x="92" y="145" on="0"/>
        <pt x="106" y="100" on="0"/>
        <pt x="135" y="64" on="0"/>
        <pt x="177" y="42" on="0"/>
        <pt x="205" y="42" on="1"/>
        <pt x="217" y="42" on="0"/>
        <pt x="252" y="51" on="0"/>
        <pt x="285" y="68" on="0"/>
        <pt x="311" y="92" on="0"/>
        <pt x="314" y="107" on="1"/>
        <pt x="326" y="106" on="0"/>
        <pt x="331" y="94" on="0"/>
        <pt x="331" y="92" on="1"/>
        <pt x="331" y="66" on="0"/>
        <pt x="306" y="29" on="0"/>
        <pt x="269" y="6" on="0"/>
        <pt x="228" y="-5" on="0"/>
        <pt x="212" y="-5" on="1"/>
        <pt x="126" y="-5" on="0"/>
        <pt x="48" y="91" on="0"/>
        <pt x="48" y="169" on="1"/>
        <pt x="48" y="173" on="0"/>
        <pt x="52" y="201" on="0"/>
        <pt x="52" y="206" on="1"/>
        <pt x="52" y="207" on="0"/>
        <pt x="44" y="210" on="0"/>
        <pt x="35" y="214" on="0"/>
        <pt x="28" y="223" on="0"/>
        <pt x="28" y="231" on="1"/>
        <pt x="28" y="239" on="0"/>
        <pt x="40" y="249" on="0"/>
        <pt x="48" y="253" on="1"/>
        <pt x="58" y="259" on="1"/>
        <pt x="67" y="297" on="0"/>
        <pt x="92" y="368" on="0"/>
        <pt x="111" y="404" on="1"/>
        <pt x="103" y="404" on="0"/>
        <pt x="85" y="408" on="0"/>
        <pt x="85" y="420" on="1"/>
        <pt x="85" y="434" on="0"/>
        <pt x="118" y="468" on="0"/>
        <pt x="161" y="498" on="0"/>
        <pt x="203" y="519" on="0"/>
        <pt x="212" y="519" on="1"/>
        <pt x="216" y="519" on="0"/>
        <pt x="219" y="516" on="0"/>
        <pt x="223" y="516" on="1"/>
        <pt x="231" y="516" on="0"/>
        <pt x="256" y="522" on="0"/>
        <pt x="284" y="530" on="0"/>
        <pt x="309" y="536" on="0"/>
        <pt x="317" y="536" on="1"/>
        <pt x="326" y="536" on="0"/>
        <pt x="335" y="524" on="0"/>
        <pt x="335" y="517" on="1"/>
        <pt x="335" y="509" on="0"/>
        <pt x="315" y="502" on="0"/>
        <pt x="307" y="500" on="1"/>
        <pt x="279" y="495" on="0"/>
        <pt x="218" y="470" on="0"/>
        <pt x="192" y="455" on="1"/>
        <pt x="182" y="444" on="0"/>
        <pt x="154" y="403" on="0"/>
        <pt x="128" y="351" on="0"/>
        <pt x="107" y="295" on="0"/>
        <pt x="104" y="270" on="1"/>
        <pt x="121" y="278" on="1"/>
        <pt x="198" y="315" on="0"/>
        <pt x="295" y="357" on="0"/>
        <pt x="322" y="357" on="1"/>
        <pt x="327" y="357" on="0"/>
      </contour>
      <contour>
        <pt x="346" y="561" on="1"/>
        <pt x="344" y="560" on="0"/>
        <pt x="333" y="555" on="0"/>
        <pt x="328" y="555" on="1"/>
        <pt x="317" y="555" on="0"/>
        <pt x="297" y="563" on="0"/>
        <pt x="289" y="568" on="1"/>
        <pt x="272" y="577" on="0"/>
        <pt x="247" y="604" on="0"/>
        <pt x="227" y="632" on="0"/>
        <pt x="211" y="658" on="0"/>
        <pt x="205" y="665" on="1"/>
        <pt x="191" y="648" on="0"/>
        <pt x="157" y="618" on="0"/>
        <pt x="133" y="603" on="1"/>
        <pt x="125" y="599" on="0"/>
        <pt x="122" y="599" on="1"/>
        <pt x="115" y="599" on="0"/>
        <pt x="108" y="610" on="0"/>
        <pt x="108" y="614" on="1"/>
        <pt x="108" y="620" on="0"/>
        <pt x="113" y="625" on="1"/>
        <pt x="125" y="637" on="0"/>
        <pt x="149" y="669" on="0"/>
        <pt x="173" y="699" on="0"/>
        <pt x="195" y="719" on="0"/>
        <pt x="204" y="719" on="1"/>
        <pt x="222" y="719" on="0"/>
        <pt x="249" y="690" on="0"/>
        <pt x="276" y="649" on="0"/>
        <pt x="306" y="606" on="0"/>
        <pt x="328" y="591" on="1"/>
        <pt x="338" y="591" on="0"/>
        <pt x="356" y="583" on="0"/>
        <pt x="356" y="576" on="1"/>
        <pt x="356" y="571" on="0"/>
        <pt x="348" y="563" on="0"/>
      </contour>
    </TTGlyph>
    <TTGlyph name="Edieresis" xMin="28" yMin="-5" xMax="335" yMax="643">
      <contour>
        <pt x="331" y="353" on="1"/>
        <pt x="332" y="351" on="0"/>
        <pt x="334" y="350" on="0"/>
        <pt x="334" y="348" on="1"/>
        <pt x="334" y="342" on="0"/>
        <pt x="284" y="309" on="0"/>
        <pt x="210" y="268" on="0"/>
        <pt x="128" y="227" on="0"/>
        <pt x="96" y="214" on="1"/>
        <pt x="96" y="212" on="0"/>
        <pt x="92" y="190" on="0"/>
        <pt x="92" y="187" on="1"/>
        <pt x="92" y="168" on="1"/>
        <pt x="92" y="145" on="0"/>
        <pt x="106" y="100" on="0"/>
        <pt x="135" y="64" on="0"/>
        <pt x="177" y="42" on="0"/>
        <pt x="205" y="42" on="1"/>
        <pt x="217" y="42" on="0"/>
        <pt x="252" y="51" on="0"/>
        <pt x="285" y="68" on="0"/>
        <pt x="311" y="92" on="0"/>
        <pt x="314" y="107" on="1"/>
        <pt x="326" y="106" on="0"/>
        <pt x="331" y="94" on="0"/>
        <pt x="331" y="92" on="1"/>
        <pt x="331" y="66" on="0"/>
        <pt x="306" y="29" on="0"/>
        <pt x="269" y="6" on="0"/>
        <pt x="228" y="-5" on="0"/>
        <pt x="212" y="-5" on="1"/>
        <pt x="126" y="-5" on="0"/>
        <pt x="48" y="91" on="0"/>
        <pt x="48" y="169" on="1"/>
        <pt x="48" y="173" on="0"/>
        <pt x="52" y="201" on="0"/>
        <pt x="52" y="206" on="1"/>
        <pt x="52" y="207" on="0"/>
        <pt x="44" y="210" on="0"/>
        <pt x="35" y="214" on="0"/>
        <pt x="28" y="223" on="0"/>
        <pt x="28" y="231" on="1"/>
        <pt x="28" y="239" on="0"/>
        <pt x="40" y="249" on="0"/>
        <pt x="48" y="253" on="1"/>
        <pt x="58" y="259" on="1"/>
        <pt x="67" y="297" on="0"/>
        <pt x="92" y="368" on="0"/>
        <pt x="111" y="404" on="1"/>
        <pt x="103" y="404" on="0"/>
        <pt x="85" y="408" on="0"/>
        <pt x="85" y="420" on="1"/>
        <pt x="85" y="434" on="0"/>
        <pt x="118" y="468" on="0"/>
        <pt x="161" y="498" on="0"/>
        <pt x="203" y="519" on="0"/>
        <pt x="212" y="519" on="1"/>
        <pt x="216" y="519" on="0"/>
        <pt x="219" y="516" on="0"/>
        <pt x="223" y="516" on="1"/>
        <pt x="231" y="516" on="0"/>
        <pt x="256" y="522" on="0"/>
        <pt x="284" y="530" on="0"/>
        <pt x="309" y="536" on="0"/>
        <pt x="317" y="536" on="1"/>
        <pt x="326" y="536" on="0"/>
        <pt x="335" y="524" on="0"/>
        <pt x="335" y="517" on="1"/>
        <pt x="335" y="509" on="0"/>
        <pt x="315" y="502" on="0"/>
        <pt x="307" y="500" on="1"/>
        <pt x="279" y="495" on="0"/>
        <pt x="218" y="470" on="0"/>
        <pt x="192" y="455" on="1"/>
        <pt x="182" y="444" on="0"/>
        <pt x="154" y="403" on="0"/>
        <pt x="128" y="351" on="0"/>
        <pt x="107" y="295" on="0"/>
        <pt x="104" y="270" on="1"/>
        <pt x="121" y="278" on="1"/>
        <pt x="198" y="315" on="0"/>
        <pt x="295" y="357" on="0"/>
        <pt x="322" y="357" on="1"/>
        <pt x="327" y="357" on="0"/>
      </contour>
      <contour>
        <pt x="180" y="601" on="1"/>
        <pt x="180" y="599" on="0"/>
        <pt x="170" y="587" on="0"/>
        <pt x="155" y="574" on="0"/>
        <pt x="138" y="564" on="0"/>
        <pt x="132" y="564" on="1"/>
        <pt x="128" y="564" on="0"/>
        <pt x="115" y="565" on="0"/>
        <pt x="102" y="571" on="0"/>
        <pt x="92" y="582" on="0"/>
        <pt x="92" y="591" on="1"/>
        <pt x="92" y="605" on="0"/>
        <pt x="112" y="630" on="0"/>
        <pt x="128" y="630" on="1"/>
        <pt x="131" y="630" on="0"/>
        <pt x="148" y="625" on="0"/>
        <pt x="166" y="617" on="0"/>
        <pt x="180" y="607" on="0"/>
      </contour>
      <contour>
        <pt x="303" y="604" on="1"/>
        <pt x="303" y="598" on="0"/>
        <pt x="291" y="587" on="0"/>
        <pt x="276" y="578" on="0"/>
        <pt x="262" y="573" on="0"/>
        <pt x="261" y="573" on="1"/>
        <pt x="252" y="573" on="0"/>
        <pt x="243" y="582" on="0"/>
        <pt x="238" y="593" on="0"/>
        <pt x="237" y="603" on="0"/>
        <pt x="237" y="605" on="1"/>
        <pt x="237" y="609" on="0"/>
        <pt x="241" y="622" on="0"/>
        <pt x="249" y="634" on="0"/>
        <pt x="260" y="643" on="0"/>
        <pt x="267" y="643" on="1"/>
        <pt x="280" y="643" on="0"/>
        <pt x="303" y="621" on="0"/>
      </contour>
    </TTGlyph>
    <TTGlyph name="Edotaccent" xMin="28" yMin="-5" xMax="335" yMax="639">
      <contour>
        <pt x="331" y="353" on="1"/>
        <pt x="332" y="351" on="0"/>
        <pt x="334" y="350" on="0"/>
        <pt x="334" y="348" on="1"/>
        <pt x="334" y="342" on="0"/>
        <pt x="284" y="309" on="0"/>
        <pt x="210" y="268" on="0"/>
        <pt x="128" y="227" on="0"/>
        <pt x="96" y="214" on="1"/>
        <pt x="96" y="212" on="0"/>
        <pt x="92" y="190" on="0"/>
        <pt x="92" y="187" on="1"/>
        <pt x="92" y="168" on="1"/>
        <pt x="92" y="145" on="0"/>
        <pt x="106" y="100" on="0"/>
        <pt x="135" y="64" on="0"/>
        <pt x="177" y="42" on="0"/>
        <pt x="205" y="42" on="1"/>
        <pt x="217" y="42" on="0"/>
        <pt x="252" y="51" on="0"/>
        <pt x="285" y="68" on="0"/>
        <pt x="311" y="92" on="0"/>
        <pt x="314" y="107" on="1"/>
        <pt x="326" y="106" on="0"/>
        <pt x="331" y="94" on="0"/>
        <pt x="331" y="92" on="1"/>
        <pt x="331" y="66" on="0"/>
        <pt x="306" y="29" on="0"/>
        <pt x="269" y="6" on="0"/>
        <pt x="228" y="-5" on="0"/>
        <pt x="212" y="-5" on="1"/>
        <pt x="126" y="-5" on="0"/>
        <pt x="48" y="91" on="0"/>
        <pt x="48" y="169" on="1"/>
        <pt x="48" y="173" on="0"/>
        <pt x="52" y="201" on="0"/>
        <pt x="52" y="206" on="1"/>
        <pt x="52" y="207" on="0"/>
        <pt x="44" y="210" on="0"/>
        <pt x="35" y="214" on="0"/>
        <pt x="28" y="223" on="0"/>
        <pt x="28" y="231" on="1"/>
        <pt x="28" y="239" on="0"/>
        <pt x="40" y="249" on="0"/>
        <pt x="48" y="253" on="1"/>
        <pt x="58" y="259" on="1"/>
        <pt x="67" y="297" on="0"/>
        <pt x="92" y="368" on="0"/>
        <pt x="111" y="404" on="1"/>
        <pt x="103" y="404" on="0"/>
        <pt x="85" y="408" on="0"/>
        <pt x="85" y="420" on="1"/>
        <pt x="85" y="434" on="0"/>
        <pt x="118" y="468" on="0"/>
        <pt x="161" y="498" on="0"/>
        <pt x="203" y="519" on="0"/>
        <pt x="212" y="519" on="1"/>
        <pt x="216" y="519" on="0"/>
        <pt x="219" y="516" on="0"/>
        <pt x="223" y="516" on="1"/>
        <pt x="231" y="516" on="0"/>
        <pt x="256" y="522" on="0"/>
        <pt x="284" y="530" on="0"/>
        <pt x="309" y="536" on="0"/>
        <pt x="317" y="536" on="1"/>
        <pt x="326" y="536" on="0"/>
        <pt x="335" y="524" on="0"/>
        <pt x="335" y="517" on="1"/>
        <pt x="335" y="509" on="0"/>
        <pt x="315" y="502" on="0"/>
        <pt x="307" y="500" on="1"/>
        <pt x="279" y="495" on="0"/>
        <pt x="218" y="470" on="0"/>
        <pt x="192" y="455" on="1"/>
        <pt x="182" y="444" on="0"/>
        <pt x="154" y="403" on="0"/>
        <pt x="128" y="351" on="0"/>
        <pt x="107" y="295" on="0"/>
        <pt x="104" y="270" on="1"/>
        <pt x="121" y="278" on="1"/>
        <pt x="198" y="315" on="0"/>
        <pt x="295" y="357" on="0"/>
        <pt x="322" y="357" on="1"/>
        <pt x="327" y="357" on="0"/>
      </contour>
      <contour>
        <pt x="233" y="600" on="1"/>
        <pt x="233" y="594" on="0"/>
        <pt x="221" y="583" on="0"/>
        <pt x="206" y="574" on="0"/>
        <pt x="192" y="569" on="0"/>
        <pt x="191" y="569" on="1"/>
        <pt x="182" y="569" on="0"/>
        <pt x="173" y="578" on="0"/>
        <pt x="168" y="589" on="0"/>
        <pt x="167" y="599" on="0"/>
        <pt x="167" y="601" on="1"/>
        <pt x="167" y="605" on="0"/>
        <pt x="171" y="618" on="0"/>
        <pt x="179" y="630" on="0"/>
        <pt x="190" y="639" on="0"/>
        <pt x="197" y="639" on="1"/>
        <pt x="210" y="639" on="0"/>
        <pt x="233" y="617" on="0"/>
      </contour>
    </TTGlyph>
    <TTGlyph name="Egrave" xMin="28" yMin="-5" xMax="335" yMax="709">
      <contour>
        <pt x="331" y="353" on="1"/>
        <pt x="332" y="351" on="0"/>
        <pt x="334" y="350" on="0"/>
        <pt x="334" y="348" on="1"/>
        <pt x="334" y="342" on="0"/>
        <pt x="284" y="309" on="0"/>
        <pt x="210" y="268" on="0"/>
        <pt x="128" y="227" on="0"/>
        <pt x="96" y="214" on="1"/>
        <pt x="96" y="212" on="0"/>
        <pt x="92" y="190" on="0"/>
        <pt x="92" y="187" on="1"/>
        <pt x="92" y="168" on="1"/>
        <pt x="92" y="145" on="0"/>
        <pt x="106" y="100" on="0"/>
        <pt x="135" y="64" on="0"/>
        <pt x="177" y="42" on="0"/>
        <pt x="205" y="42" on="1"/>
        <pt x="217" y="42" on="0"/>
        <pt x="252" y="51" on="0"/>
        <pt x="285" y="68" on="0"/>
        <pt x="311" y="92" on="0"/>
        <pt x="314" y="107" on="1"/>
        <pt x="326" y="106" on="0"/>
        <pt x="331" y="94" on="0"/>
        <pt x="331" y="92" on="1"/>
        <pt x="331" y="66" on="0"/>
        <pt x="306" y="29" on="0"/>
        <pt x="269" y="6" on="0"/>
        <pt x="228" y="-5" on="0"/>
        <pt x="212" y="-5" on="1"/>
        <pt x="126" y="-5" on="0"/>
        <pt x="48" y="91" on="0"/>
        <pt x="48" y="169" on="1"/>
        <pt x="48" y="173" on="0"/>
        <pt x="52" y="201" on="0"/>
        <pt x="52" y="206" on="1"/>
        <pt x="52" y="207" on="0"/>
        <pt x="44" y="210" on="0"/>
        <pt x="35" y="214" on="0"/>
        <pt x="28" y="223" on="0"/>
        <pt x="28" y="231" on="1"/>
        <pt x="28" y="239" on="0"/>
        <pt x="40" y="249" on="0"/>
        <pt x="48" y="253" on="1"/>
        <pt x="58" y="259" on="1"/>
        <pt x="67" y="297" on="0"/>
        <pt x="92" y="368" on="0"/>
        <pt x="111" y="404" on="1"/>
        <pt x="103" y="404" on="0"/>
        <pt x="85" y="408" on="0"/>
        <pt x="85" y="420" on="1"/>
        <pt x="85" y="434" on="0"/>
        <pt x="118" y="468" on="0"/>
        <pt x="161" y="498" on="0"/>
        <pt x="203" y="519" on="0"/>
        <pt x="212" y="519" on="1"/>
        <pt x="216" y="519" on="0"/>
        <pt x="219" y="516" on="0"/>
        <pt x="223" y="516" on="1"/>
        <pt x="231" y="516" on="0"/>
        <pt x="256" y="522" on="0"/>
        <pt x="284" y="530" on="0"/>
        <pt x="309" y="536" on="0"/>
        <pt x="317" y="536" on="1"/>
        <pt x="326" y="536" on="0"/>
        <pt x="335" y="524" on="0"/>
        <pt x="335" y="517" on="1"/>
        <pt x="335" y="509" on="0"/>
        <pt x="315" y="502" on="0"/>
        <pt x="307" y="500" on="1"/>
        <pt x="279" y="495" on="0"/>
        <pt x="218" y="470" on="0"/>
        <pt x="192" y="455" on="1"/>
        <pt x="182" y="444" on="0"/>
        <pt x="154" y="403" on="0"/>
        <pt x="128" y="351" on="0"/>
        <pt x="107" y="295" on="0"/>
        <pt x="104" y="270" on="1"/>
        <pt x="121" y="278" on="1"/>
        <pt x="198" y="315" on="0"/>
        <pt x="295" y="357" on="0"/>
        <pt x="322" y="357" on="1"/>
        <pt x="327" y="357" on="0"/>
      </contour>
      <contour>
        <pt x="94" y="706" on="1"/>
        <pt x="97" y="709" on="0"/>
        <pt x="101" y="709" on="1"/>
        <pt x="106" y="709" on="0"/>
        <pt x="121" y="702" on="0"/>
        <pt x="128" y="697" on="1"/>
        <pt x="135" y="692" on="0"/>
        <pt x="163" y="663" on="0"/>
        <pt x="191" y="630" on="0"/>
        <pt x="215" y="602" on="0"/>
        <pt x="219" y="599" on="1"/>
        <pt x="220" y="598" on="0"/>
        <pt x="228" y="596" on="0"/>
        <pt x="238" y="593" on="0"/>
        <pt x="246" y="589" on="0"/>
        <pt x="246" y="586" on="1"/>
        <pt x="246" y="578" on="0"/>
        <pt x="225" y="556" on="0"/>
        <pt x="218" y="556" on="1"/>
        <pt x="212" y="556" on="0"/>
        <pt x="199" y="563" on="1"/>
        <pt x="185" y="570" on="0"/>
        <pt x="149" y="609" on="0"/>
        <pt x="116" y="653" on="0"/>
        <pt x="93" y="694" on="0"/>
        <pt x="93" y="703" on="1"/>
        <pt x="93" y="704" on="0"/>
        <pt x="94" y="705" on="0"/>
      </contour>
    </TTGlyph>
    <TTGlyph name="Emacron" xMin="28" yMin="-5" xMax="335" yMax="613">
      <contour>
        <pt x="331" y="353" on="1"/>
        <pt x="332" y="351" on="0"/>
        <pt x="334" y="350" on="0"/>
        <pt x="334" y="348" on="1"/>
        <pt x="334" y="342" on="0"/>
        <pt x="284" y="309" on="0"/>
        <pt x="210" y="268" on="0"/>
        <pt x="128" y="227" on="0"/>
        <pt x="96" y="214" on="1"/>
        <pt x="96" y="212" on="0"/>
        <pt x="92" y="190" on="0"/>
        <pt x="92" y="187" on="1"/>
        <pt x="92" y="168" on="1"/>
        <pt x="92" y="145" on="0"/>
        <pt x="106" y="100" on="0"/>
        <pt x="135" y="64" on="0"/>
        <pt x="177" y="42" on="0"/>
        <pt x="205" y="42" on="1"/>
        <pt x="217" y="42" on="0"/>
        <pt x="252" y="51" on="0"/>
        <pt x="285" y="68" on="0"/>
        <pt x="311" y="92" on="0"/>
        <pt x="314" y="107" on="1"/>
        <pt x="326" y="106" on="0"/>
        <pt x="331" y="94" on="0"/>
        <pt x="331" y="92" on="1"/>
        <pt x="331" y="66" on="0"/>
        <pt x="306" y="29" on="0"/>
        <pt x="269" y="6" on="0"/>
        <pt x="228" y="-5" on="0"/>
        <pt x="212" y="-5" on="1"/>
        <pt x="126" y="-5" on="0"/>
        <pt x="48" y="91" on="0"/>
        <pt x="48" y="169" on="1"/>
        <pt x="48" y="173" on="0"/>
        <pt x="52" y="201" on="0"/>
        <pt x="52" y="206" on="1"/>
        <pt x="52" y="207" on="0"/>
        <pt x="44" y="210" on="0"/>
        <pt x="35" y="214" on="0"/>
        <pt x="28" y="223" on="0"/>
        <pt x="28" y="231" on="1"/>
        <pt x="28" y="239" on="0"/>
        <pt x="40" y="249" on="0"/>
        <pt x="48" y="253" on="1"/>
        <pt x="58" y="259" on="1"/>
        <pt x="67" y="297" on="0"/>
        <pt x="92" y="368" on="0"/>
        <pt x="111" y="404" on="1"/>
        <pt x="103" y="404" on="0"/>
        <pt x="85" y="408" on="0"/>
        <pt x="85" y="420" on="1"/>
        <pt x="85" y="434" on="0"/>
        <pt x="118" y="468" on="0"/>
        <pt x="161" y="498" on="0"/>
        <pt x="203" y="519" on="0"/>
        <pt x="212" y="519" on="1"/>
        <pt x="216" y="519" on="0"/>
        <pt x="219" y="516" on="0"/>
        <pt x="223" y="516" on="1"/>
        <pt x="231" y="516" on="0"/>
        <pt x="256" y="522" on="0"/>
        <pt x="284" y="530" on="0"/>
        <pt x="309" y="536" on="0"/>
        <pt x="317" y="536" on="1"/>
        <pt x="326" y="536" on="0"/>
        <pt x="335" y="524" on="0"/>
        <pt x="335" y="517" on="1"/>
        <pt x="335" y="509" on="0"/>
        <pt x="315" y="502" on="0"/>
        <pt x="307" y="500" on="1"/>
        <pt x="279" y="495" on="0"/>
        <pt x="218" y="470" on="0"/>
        <pt x="192" y="455" on="1"/>
        <pt x="182" y="444" on="0"/>
        <pt x="154" y="403" on="0"/>
        <pt x="128" y="351" on="0"/>
        <pt x="107" y="295" on="0"/>
        <pt x="104" y="270" on="1"/>
        <pt x="121" y="278" on="1"/>
        <pt x="198" y="315" on="0"/>
        <pt x="295" y="357" on="0"/>
        <pt x="322" y="357" on="1"/>
        <pt x="327" y="357" on="0"/>
      </contour>
      <contour>
        <pt x="331" y="595" on="1"/>
        <pt x="330" y="590" on="0"/>
        <pt x="299" y="581" on="0"/>
        <pt x="252" y="573" on="0"/>
        <pt x="196" y="567" on="0"/>
        <pt x="145" y="562" on="0"/>
        <pt x="107" y="560" on="0"/>
        <pt x="101" y="560" on="1"/>
        <pt x="88" y="560" on="0"/>
        <pt x="76" y="575" on="0"/>
        <pt x="76" y="584" on="1"/>
        <pt x="76" y="589" on="0"/>
        <pt x="84" y="613" on="0"/>
        <pt x="92" y="613" on="1"/>
        <pt x="97" y="613" on="0"/>
        <pt x="103" y="605" on="0"/>
        <pt x="107" y="604" on="1"/>
        <pt x="152" y="604" on="0"/>
        <pt x="239" y="612" on="0"/>
        <pt x="286" y="612" on="1"/>
        <pt x="292" y="612" on="0"/>
        <pt x="307" y="610" on="0"/>
        <pt x="320" y="606" on="0"/>
        <pt x="330" y="600" on="0"/>
      </contour>
    </TTGlyph>
    <TTGlyph name="Eogonek" xMin="28" yMin="-169" xMax="358" yMax="536">
      <contour>
        <pt x="358" y="-111" on="1"/>
        <pt x="358" y="-119" on="0"/>
        <pt x="356" y="-131" on="0"/>
        <pt x="350" y="-139" on="1"/>
        <pt x="348" y="-142" on="0"/>
        <pt x="333" y="-152" on="0"/>
        <pt x="310" y="-162" on="0"/>
        <pt x="283" y="-169" on="0"/>
        <pt x="268" y="-169" on="1"/>
        <pt x="255" y="-169" on="0"/>
        <pt x="228" y="-159" on="0"/>
        <pt x="205" y="-141" on="0"/>
        <pt x="191" y="-114" on="0"/>
        <pt x="191" y="-96" on="1"/>
        <pt x="191" y="-71" on="0"/>
        <pt x="213" y="-24" on="0"/>
        <pt x="227" y="-4" on="1"/>
        <pt x="223" y="-4" on="0"/>
        <pt x="215" y="-5" on="0"/>
        <pt x="212" y="-5" on="1"/>
        <pt x="126" y="-5" on="0"/>
        <pt x="48" y="91" on="0"/>
        <pt x="48" y="169" on="1"/>
        <pt x="48" y="173" on="0"/>
        <pt x="52" y="201" on="0"/>
        <pt x="52" y="206" on="1"/>
        <pt x="52" y="207" on="0"/>
        <pt x="44" y="210" on="0"/>
        <pt x="35" y="214" on="0"/>
        <pt x="28" y="223" on="0"/>
        <pt x="28" y="231" on="1"/>
        <pt x="28" y="239" on="0"/>
        <pt x="40" y="249" on="0"/>
        <pt x="48" y="253" on="1"/>
        <pt x="58" y="259" on="1"/>
        <pt x="67" y="297" on="0"/>
        <pt x="92" y="368" on="0"/>
        <pt x="111" y="404" on="1"/>
        <pt x="103" y="404" on="0"/>
        <pt x="85" y="408" on="0"/>
        <pt x="85" y="420" on="1"/>
        <pt x="85" y="434" on="0"/>
        <pt x="118" y="468" on="0"/>
        <pt x="161" y="498" on="0"/>
        <pt x="203" y="519" on="0"/>
        <pt x="212" y="519" on="1"/>
        <pt x="216" y="519" on="0"/>
        <pt x="219" y="516" on="0"/>
        <pt x="223" y="516" on="1"/>
        <pt x="231" y="516" on="0"/>
        <pt x="256" y="522" on="0"/>
        <pt x="284" y="530" on="0"/>
        <pt x="309" y="536" on="0"/>
        <pt x="317" y="536" on="1"/>
        <pt x="326" y="536" on="0"/>
        <pt x="335" y="524" on="0"/>
        <pt x="335" y="517" on="1"/>
        <pt x="335" y="509" on="0"/>
        <pt x="315" y="502" on="0"/>
        <pt x="307" y="500" on="1"/>
        <pt x="279" y="495" on="0"/>
        <pt x="218" y="470" on="0"/>
        <pt x="192" y="455" on="1"/>
        <pt x="182" y="444" on="0"/>
        <pt x="154" y="403" on="0"/>
        <pt x="128" y="351" on="0"/>
        <pt x="107" y="295" on="0"/>
        <pt x="104" y="270" on="1"/>
        <pt x="121" y="278" on="1"/>
        <pt x="198" y="315" on="0"/>
        <pt x="295" y="357" on="0"/>
        <pt x="322" y="357" on="1"/>
        <pt x="327" y="357" on="0"/>
        <pt x="331" y="353" on="1"/>
        <pt x="332" y="351" on="0"/>
        <pt x="334" y="350" on="0"/>
        <pt x="334" y="348" on="1"/>
        <pt x="334" y="342" on="0"/>
        <pt x="284" y="309" on="0"/>
        <pt x="210" y="268" on="0"/>
        <pt x="128" y="227" on="0"/>
        <pt x="96" y="214" on="1"/>
        <pt x="96" y="212" on="0"/>
        <pt x="92" y="190" on="0"/>
        <pt x="92" y="187" on="1"/>
        <pt x="92" y="168" on="1"/>
        <pt x="92" y="145" on="0"/>
        <pt x="106" y="100" on="0"/>
        <pt x="135" y="64" on="0"/>
        <pt x="177" y="42" on="0"/>
        <pt x="205" y="42" on="1"/>
        <pt x="217" y="42" on="0"/>
        <pt x="252" y="51" on="0"/>
        <pt x="285" y="68" on="0"/>
        <pt x="311" y="92" on="0"/>
        <pt x="314" y="107" on="1"/>
        <pt x="326" y="106" on="0"/>
        <pt x="336" y="93" on="0"/>
        <pt x="336" y="91" on="1"/>
        <pt x="336" y="73" on="0"/>
        <pt x="315" y="41" on="0"/>
        <pt x="301" y="27" on="1"/>
        <pt x="271" y="-2" on="0"/>
        <pt x="234" y="-66" on="0"/>
        <pt x="234" y="-89" on="1"/>
        <pt x="234" y="-107" on="0"/>
        <pt x="261" y="-126" on="0"/>
        <pt x="278" y="-126" on="1"/>
        <pt x="293" y="-126" on="0"/>
        <pt x="315" y="-119" on="0"/>
        <pt x="332" y="-110" on="0"/>
        <pt x="345" y="-102" on="0"/>
        <pt x="350" y="-102" on="1"/>
        <pt x="358" y="-102" on="0"/>
      </contour>
    </TTGlyph>
    <TTGlyph name="Eth" xMin="-100" yMin="-61" xMax="404" yMax="517">
      <contour>
        <pt x="168" y="275" on="1"/>
        <pt x="168" y="269" on="0"/>
        <pt x="153" y="258" on="0"/>
        <pt x="142" y="253" on="1"/>
        <pt x="146" y="238" on="0"/>
        <pt x="148" y="222" on="0"/>
        <pt x="149" y="210" on="0"/>
        <pt x="150" y="197" on="0"/>
        <pt x="153" y="184" on="1"/>
        <pt x="158" y="161" on="0"/>
        <pt x="162" y="115" on="0"/>
        <pt x="162" y="102" on="1"/>
        <pt x="162" y="94" on="0"/>
        <pt x="156" y="74" on="0"/>
        <pt x="151" y="74" on="1"/>
        <pt x="142" y="74" on="0"/>
        <pt x="133" y="92" on="0"/>
        <pt x="128" y="121" on="0"/>
        <pt x="123" y="159" on="0"/>
        <pt x="118" y="179" on="1"/>
        <pt x="103" y="238" on="1"/>
        <pt x="83" y="233" on="0"/>
        <pt x="52" y="226" on="0"/>
        <pt x="48" y="226" on="1"/>
        <pt x="33" y="226" on="0"/>
        <pt x="21" y="230" on="0"/>
        <pt x="17" y="239" on="1"/>
        <pt x="15" y="243" on="0"/>
        <pt x="9" y="252" on="0"/>
        <pt x="9" y="255" on="1"/>
        <pt x="9" y="260" on="0"/>
        <pt x="17" y="260" on="1"/>
        <pt x="27" y="260" on="0"/>
        <pt x="70" y="270" on="0"/>
        <pt x="93" y="276" on="1"/>
        <pt x="88" y="296" on="0"/>
        <pt x="80" y="330" on="0"/>
        <pt x="78" y="338" on="1"/>
        <pt x="76" y="349" on="0"/>
        <pt x="71" y="390" on="0"/>
        <pt x="69" y="412" on="1"/>
        <pt x="66" y="437" on="0"/>
        <pt x="63" y="466" on="1"/>
        <pt x="58" y="467" on="1"/>
        <pt x="53" y="468" on="0"/>
        <pt x="37" y="470" on="0"/>
        <pt x="18" y="472" on="0"/>
        <pt x="10" y="472" on="1"/>
        <pt x="-7" y="472" on="0"/>
        <pt x="-34" y="459" on="0"/>
        <pt x="-55" y="442" on="0"/>
        <pt x="-68" y="429" on="0"/>
        <pt x="-70" y="429" on="1"/>
        <pt x="-76" y="429" on="0"/>
        <pt x="-100" y="436" on="0"/>
        <pt x="-100" y="445" on="1"/>
        <pt x="-100" y="458" on="0"/>
        <pt x="-76" y="484" on="0"/>
        <pt x="-40" y="504" on="0"/>
        <pt x="2" y="517" on="0"/>
        <pt x="20" y="517" on="1"/>
        <pt x="49" y="517" on="0"/>
        <pt x="129" y="501" on="0"/>
        <pt x="215" y="473" on="0"/>
        <pt x="298" y="433" on="0"/>
        <pt x="364" y="385" on="0"/>
        <pt x="404" y="330" on="0"/>
        <pt x="404" y="300" on="1"/>
        <pt x="404" y="232" on="0"/>
        <pt x="314" y="119" on="0"/>
        <pt x="242" y="65" on="1"/>
        <pt x="205" y="37" on="0"/>
        <pt x="120" y="-10" on="0"/>
        <pt x="36" y="-43" on="0"/>
        <pt x="-39" y="-61" on="0"/>
        <pt x="-67" y="-61" on="1"/>
        <pt x="-84" y="-61" on="0"/>
        <pt x="-100" y="-52" on="0"/>
        <pt x="-100" y="-38" on="1"/>
        <pt x="-100" y="-28" on="0"/>
        <pt x="-85" y="1" on="0"/>
        <pt x="-78" y="1" on="1"/>
        <pt x="-71" y="1" on="0"/>
        <pt x="-65" y="-8" on="0"/>
        <pt x="-65" y="-13" on="1"/>
        <pt x="-65" y="-16" on="0"/>
        <pt x="-66" y="-20" on="0"/>
        <pt x="-66" y="-22" on="1"/>
        <pt x="-66" y="-25" on="1"/>
        <pt x="-63" y="-25" on="0"/>
        <pt x="-57" y="-24" on="0"/>
        <pt x="-54" y="-24" on="1"/>
        <pt x="-36" y="-23" on="0"/>
        <pt x="-1" y="-19" on="0"/>
        <pt x="44" y="-5" on="0"/>
        <pt x="105" y="22" on="0"/>
        <pt x="150" y="47" on="1"/>
        <pt x="189" y="68" on="0"/>
        <pt x="264" y="126" on="0"/>
        <pt x="323" y="192" on="0"/>
        <pt x="360" y="263" on="0"/>
        <pt x="360" y="299" on="1"/>
        <pt x="360" y="323" on="0"/>
        <pt x="309" y="375" on="0"/>
        <pt x="233" y="421" on="0"/>
        <pt x="143" y="455" on="0"/>
        <pt x="104" y="461" on="1"/>
        <pt x="104" y="457" on="0"/>
        <pt x="108" y="421" on="0"/>
        <pt x="115" y="371" on="0"/>
        <pt x="125" y="313" on="0"/>
        <pt x="132" y="287" on="1"/>
        <pt x="149" y="292" on="0"/>
        <pt x="153" y="292" on="1"/>
        <pt x="157" y="292" on="0"/>
        <pt x="168" y="279" on="0"/>
      </contour>
    </TTGlyph>
    <TTGlyph name="Euro" xMin="24" yMin="-5" xMax="351" yMax="453">
      <contour>
        <pt x="314" y="304" on="1"/>
        <pt x="319" y="304" on="0"/>
        <pt x="324" y="296" on="0"/>
        <pt x="324" y="292" on="1"/>
        <pt x="324" y="288" on="0"/>
        <pt x="321" y="287" on="1"/>
        <pt x="307" y="282" on="0"/>
        <pt x="259" y="264" on="0"/>
        <pt x="200" y="243" on="0"/>
        <pt x="139" y="221" on="0"/>
        <pt x="114" y="212" on="1"/>
        <pt x="112" y="200" on="1"/>
        <pt x="111" y="195" on="0"/>
        <pt x="111" y="192" on="1"/>
        <pt x="111" y="169" on="1"/>
        <pt x="130" y="173" on="0"/>
        <pt x="171" y="184" on="0"/>
        <pt x="209" y="192" on="0"/>
        <pt x="237" y="198" on="0"/>
        <pt x="243" y="198" on="1"/>
        <pt x="254" y="198" on="0"/>
        <pt x="275" y="194" on="0"/>
        <pt x="275" y="186" on="1"/>
        <pt x="275" y="181" on="0"/>
        <pt x="243" y="167" on="0"/>
        <pt x="195" y="151" on="0"/>
        <pt x="139" y="136" on="0"/>
        <pt x="115" y="130" on="1"/>
        <pt x="125" y="93" on="0"/>
        <pt x="181" y="38" on="0"/>
        <pt x="227" y="38" on="1"/>
        <pt x="239" y="38" on="0"/>
        <pt x="275" y="47" on="0"/>
        <pt x="309" y="65" on="0"/>
        <pt x="335" y="89" on="0"/>
        <pt x="338" y="104" on="1"/>
        <pt x="347" y="103" on="0"/>
        <pt x="351" y="93" on="0"/>
        <pt x="351" y="91" on="1"/>
        <pt x="351" y="65" on="0"/>
        <pt x="326" y="28" on="0"/>
        <pt x="290" y="5" on="0"/>
        <pt x="250" y="-5" on="0"/>
        <pt x="234" y="-5" on="1"/>
        <pt x="161" y="-5" on="0"/>
        <pt x="85" y="62" on="0"/>
        <pt x="75" y="120" on="1"/>
        <pt x="58" y="117" on="0"/>
        <pt x="55" y="117" on="1"/>
        <pt x="38" y="117" on="0"/>
        <pt x="24" y="129" on="0"/>
        <pt x="24" y="144" on="1"/>
        <pt x="24" y="155" on="0"/>
        <pt x="34" y="163" on="0"/>
        <pt x="38" y="163" on="1"/>
        <pt x="43" y="163" on="0"/>
        <pt x="50" y="157" on="0"/>
        <pt x="54" y="157" on="1"/>
        <pt x="57" y="157" on="0"/>
        <pt x="71" y="160" on="1"/>
        <pt x="71" y="168" on="1"/>
        <pt x="71" y="172" on="0"/>
        <pt x="74" y="198" on="0"/>
        <pt x="74" y="203" on="1"/>
        <pt x="74" y="206" on="0"/>
        <pt x="63" y="209" on="0"/>
        <pt x="50" y="213" on="0"/>
        <pt x="39" y="221" on="0"/>
        <pt x="39" y="228" on="1"/>
        <pt x="39" y="233" on="0"/>
        <pt x="49" y="241" on="0"/>
        <pt x="63" y="248" on="0"/>
        <pt x="78" y="254" on="0"/>
        <pt x="82" y="257" on="1"/>
        <pt x="92" y="302" on="0"/>
        <pt x="136" y="375" on="0"/>
        <pt x="196" y="426" on="0"/>
        <pt x="269" y="453" on="0"/>
        <pt x="308" y="453" on="1"/>
        <pt x="316" y="453" on="0"/>
        <pt x="324" y="442" on="0"/>
        <pt x="324" y="436" on="1"/>
        <pt x="324" y="430" on="0"/>
        <pt x="300" y="422" on="0"/>
        <pt x="294" y="421" on="1"/>
        <pt x="266" y="416" on="0"/>
        <pt x="216" y="396" on="0"/>
        <pt x="172" y="359" on="0"/>
        <pt x="136" y="302" on="0"/>
        <pt x="122" y="262" on="1"/>
        <pt x="153" y="274" on="0"/>
        <pt x="215" y="290" on="0"/>
        <pt x="267" y="300" on="0"/>
        <pt x="306" y="304" on="0"/>
      </contour>
    </TTGlyph>
    <TTGlyph name="F" xMin="41" yMin="-13" xMax="356" yMax="573">
      <contour>
        <pt x="356" y="537" on="1"/>
        <pt x="356" y="533" on="0"/>
        <pt x="350" y="529" on="0"/>
        <pt x="347" y="527" on="1"/>
        <pt x="343" y="525" on="0"/>
        <pt x="338" y="524" on="1"/>
        <pt x="330" y="524" on="0"/>
        <pt x="318" y="526" on="0"/>
        <pt x="310" y="526" on="1"/>
        <pt x="299" y="526" on="0"/>
        <pt x="234" y="501" on="0"/>
        <pt x="164" y="463" on="0"/>
        <pt x="109" y="421" on="0"/>
        <pt x="108" y="405" on="1"/>
        <pt x="120" y="337" on="1"/>
        <pt x="125" y="311" on="0"/>
        <pt x="132" y="269" on="0"/>
        <pt x="133" y="269" on="1"/>
        <pt x="135" y="270" on="0"/>
        <pt x="158" y="285" on="0"/>
        <pt x="192" y="304" on="0"/>
        <pt x="233" y="326" on="0"/>
        <pt x="271" y="344" on="0"/>
        <pt x="303" y="356" on="0"/>
        <pt x="312" y="356" on="1"/>
        <pt x="319" y="356" on="0"/>
        <pt x="330" y="350" on="0"/>
        <pt x="330" y="342" on="1"/>
        <pt x="330" y="336" on="0"/>
        <pt x="302" y="314" on="0"/>
        <pt x="260" y="288" on="0"/>
        <pt x="211" y="259" on="0"/>
        <pt x="169" y="234" on="0"/>
        <pt x="141" y="213" on="0"/>
        <pt x="141" y="208" on="1"/>
        <pt x="141" y="203" on="0"/>
        <pt x="148" y="150" on="0"/>
        <pt x="161" y="86" on="0"/>
        <pt x="178" y="26" on="0"/>
        <pt x="188" y="14" on="1"/>
        <pt x="190" y="12" on="0"/>
        <pt x="190" y="8" on="1"/>
        <pt x="190" y="2" on="0"/>
        <pt x="174" y="-13" on="0"/>
        <pt x="168" y="-13" on="1"/>
        <pt x="160" y="-13" on="0"/>
        <pt x="143" y="17" on="0"/>
        <pt x="129" y="63" on="0"/>
        <pt x="116" y="115" on="0"/>
        <pt x="107" y="161" on="0"/>
        <pt x="101" y="191" on="0"/>
        <pt x="100" y="191" on="1"/>
        <pt x="97" y="191" on="0"/>
        <pt x="75" y="184" on="0"/>
        <pt x="63" y="184" on="1"/>
        <pt x="54" y="184" on="0"/>
        <pt x="41" y="199" on="0"/>
        <pt x="41" y="207" on="1"/>
        <pt x="41" y="215" on="0"/>
        <pt x="51" y="227" on="0"/>
        <pt x="65" y="237" on="0"/>
        <pt x="81" y="245" on="0"/>
        <pt x="87" y="249" on="1"/>
        <pt x="59" y="440" on="1"/>
        <pt x="59" y="448" on="0"/>
        <pt x="65" y="465" on="0"/>
        <pt x="75" y="465" on="1"/>
        <pt x="77" y="465" on="0"/>
        <pt x="85" y="456" on="0"/>
        <pt x="87" y="456" on="1"/>
        <pt x="90" y="458" on="0"/>
        <pt x="136" y="495" on="0"/>
        <pt x="203" y="538" on="0"/>
        <pt x="280" y="573" on="0"/>
        <pt x="313" y="573" on="1"/>
        <pt x="326" y="573" on="0"/>
        <pt x="356" y="551" on="0"/>
      </contour>
    </TTGlyph>
    <TTGlyph name="G" xMin="46" yMin="-10" xMax="439" yMax="653">
      <contour>
        <pt x="439" y="234" on="1"/>
        <pt x="439" y="214" on="0"/>
        <pt x="434" y="178" on="0"/>
        <pt x="417" y="141" on="0"/>
        <pt x="387" y="99" on="0"/>
        <pt x="363" y="72" on="1"/>
        <pt x="334" y="40" on="0"/>
        <pt x="256" y="-10" on="0"/>
        <pt x="208" y="-10" on="1"/>
        <pt x="178" y="-10" on="0"/>
        <pt x="119" y="10" on="0"/>
        <pt x="74" y="50" on="0"/>
        <pt x="46" y="110" on="0"/>
        <pt x="46" y="150" on="1"/>
        <pt x="46" y="214" on="0"/>
        <pt x="94" y="355" on="0"/>
        <pt x="137" y="436" on="1"/>
        <pt x="165" y="489" on="0"/>
        <pt x="213" y="570" on="0"/>
        <pt x="259" y="625" on="0"/>
        <pt x="305" y="653" on="0"/>
        <pt x="331" y="653" on="1"/>
        <pt x="351" y="653" on="0"/>
        <pt x="380" y="638" on="0"/>
        <pt x="380" y="616" on="1"/>
        <pt x="380" y="609" on="0"/>
        <pt x="374" y="598" on="0"/>
        <pt x="368" y="598" on="1"/>
        <pt x="360" y="598" on="0"/>
        <pt x="353" y="607" on="0"/>
        <pt x="337" y="607" on="1"/>
        <pt x="310" y="607" on="0"/>
        <pt x="258" y="557" on="0"/>
        <pt x="213" y="492" on="0"/>
        <pt x="180" y="428" on="0"/>
        <pt x="173" y="413" on="1"/>
        <pt x="161" y="388" on="0"/>
        <pt x="132" y="320" on="0"/>
        <pt x="106" y="248" on="0"/>
        <pt x="88" y="181" on="0"/>
        <pt x="88" y="159" on="1"/>
        <pt x="88" y="131" on="0"/>
        <pt x="107" y="88" on="0"/>
        <pt x="139" y="58" on="0"/>
        <pt x="182" y="43" on="0"/>
        <pt x="206" y="43" on="1"/>
        <pt x="239" y="43" on="0"/>
        <pt x="308" y="75" on="0"/>
        <pt x="363" y="127" on="0"/>
        <pt x="398" y="195" on="0"/>
        <pt x="398" y="230" on="1"/>
        <pt x="398" y="265" on="0"/>
        <pt x="362" y="311" on="0"/>
        <pt x="340" y="311" on="1"/>
        <pt x="326" y="311" on="0"/>
        <pt x="315" y="302" on="0"/>
        <pt x="310" y="295" on="1"/>
        <pt x="303" y="284" on="0"/>
        <pt x="291" y="270" on="0"/>
        <pt x="276" y="265" on="1"/>
        <pt x="252" y="257" on="0"/>
        <pt x="225" y="250" on="0"/>
        <pt x="219" y="248" on="1"/>
        <pt x="211" y="246" on="1"/>
        <pt x="205" y="246" on="0"/>
        <pt x="184" y="263" on="0"/>
        <pt x="184" y="268" on="1"/>
        <pt x="184" y="286" on="0"/>
        <pt x="227" y="319" on="0"/>
        <pt x="281" y="346" on="0"/>
        <pt x="331" y="362" on="0"/>
        <pt x="337" y="362" on="1"/>
        <pt x="367" y="362" on="0"/>
        <pt x="406" y="338" on="0"/>
        <pt x="429" y="300" on="0"/>
        <pt x="439" y="255" on="0"/>
      </contour>
    </TTGlyph>
    <TTGlyph name="Gcommaaccent" xMin="46" yMin="-229" xMax="439" yMax="653">
      <contour>
        <pt x="336" y="-85" on="1"/>
        <pt x="336" y="-107" on="0"/>
        <pt x="324" y="-157" on="0"/>
        <pt x="298" y="-200" on="0"/>
        <pt x="256" y="-229" on="0"/>
        <pt x="225" y="-229" on="1"/>
        <pt x="215" y="-229" on="0"/>
        <pt x="200" y="-218" on="0"/>
        <pt x="200" y="-206" on="1"/>
        <pt x="200" y="-195" on="0"/>
        <pt x="215" y="-186" on="0"/>
        <pt x="223" y="-186" on="1"/>
        <pt x="227" y="-186" on="0"/>
        <pt x="227" y="-187" on="1"/>
        <pt x="226" y="-188" on="1"/>
        <pt x="226" y="-189" on="0"/>
        <pt x="229" y="-189" on="1"/>
        <pt x="256" y="-189" on="0"/>
        <pt x="276" y="-146" on="0"/>
        <pt x="286" y="-94" on="0"/>
        <pt x="296" y="-51" on="0"/>
        <pt x="313" y="-51" on="1"/>
        <pt x="327" y="-51" on="0"/>
        <pt x="336" y="-78" on="0"/>
      </contour>
      <contour>
        <pt x="439" y="234" on="1"/>
        <pt x="439" y="214" on="0"/>
        <pt x="434" y="178" on="0"/>
        <pt x="417" y="141" on="0"/>
        <pt x="387" y="99" on="0"/>
        <pt x="363" y="72" on="1"/>
        <pt x="334" y="40" on="0"/>
        <pt x="256" y="-10" on="0"/>
        <pt x="208" y="-10" on="1"/>
        <pt x="178" y="-10" on="0"/>
        <pt x="119" y="10" on="0"/>
        <pt x="74" y="50" on="0"/>
        <pt x="46" y="110" on="0"/>
        <pt x="46" y="150" on="1"/>
        <pt x="46" y="214" on="0"/>
        <pt x="94" y="355" on="0"/>
        <pt x="137" y="436" on="1"/>
        <pt x="165" y="489" on="0"/>
        <pt x="213" y="570" on="0"/>
        <pt x="259" y="625" on="0"/>
        <pt x="305" y="653" on="0"/>
        <pt x="331" y="653" on="1"/>
        <pt x="351" y="653" on="0"/>
        <pt x="380" y="638" on="0"/>
        <pt x="380" y="616" on="1"/>
        <pt x="380" y="609" on="0"/>
        <pt x="374" y="598" on="0"/>
        <pt x="368" y="598" on="1"/>
        <pt x="360" y="598" on="0"/>
        <pt x="353" y="607" on="0"/>
        <pt x="337" y="607" on="1"/>
        <pt x="310" y="607" on="0"/>
        <pt x="258" y="557" on="0"/>
        <pt x="213" y="492" on="0"/>
        <pt x="180" y="428" on="0"/>
        <pt x="173" y="413" on="1"/>
        <pt x="161" y="388" on="0"/>
        <pt x="132" y="320" on="0"/>
        <pt x="106" y="248" on="0"/>
        <pt x="88" y="181" on="0"/>
        <pt x="88" y="159" on="1"/>
        <pt x="88" y="131" on="0"/>
        <pt x="107" y="88" on="0"/>
        <pt x="139" y="58" on="0"/>
        <pt x="182" y="43" on="0"/>
        <pt x="206" y="43" on="1"/>
        <pt x="239" y="43" on="0"/>
        <pt x="308" y="75" on="0"/>
        <pt x="363" y="127" on="0"/>
        <pt x="398" y="195" on="0"/>
        <pt x="398" y="230" on="1"/>
        <pt x="398" y="265" on="0"/>
        <pt x="362" y="311" on="0"/>
        <pt x="340" y="311" on="1"/>
        <pt x="326" y="311" on="0"/>
        <pt x="315" y="302" on="0"/>
        <pt x="310" y="295" on="1"/>
        <pt x="303" y="284" on="0"/>
        <pt x="291" y="270" on="0"/>
        <pt x="276" y="265" on="1"/>
        <pt x="252" y="257" on="0"/>
        <pt x="225" y="250" on="0"/>
        <pt x="219" y="248" on="1"/>
        <pt x="211" y="246" on="1"/>
        <pt x="205" y="246" on="0"/>
        <pt x="184" y="263" on="0"/>
        <pt x="184" y="268" on="1"/>
        <pt x="184" y="286" on="0"/>
        <pt x="227" y="319" on="0"/>
        <pt x="281" y="346" on="0"/>
        <pt x="331" y="362" on="0"/>
        <pt x="337" y="362" on="1"/>
        <pt x="367" y="362" on="0"/>
        <pt x="406" y="338" on="0"/>
        <pt x="429" y="300" on="0"/>
        <pt x="439" y="255" on="0"/>
      </contour>
    </TTGlyph>
    <TTGlyph name="H" xMin="59" yMin="-15" xMax="333" yMax="579">
      <contour>
        <pt x="333" y="285" on="1"/>
        <pt x="333" y="280" on="0"/>
        <pt x="324" y="274" on="0"/>
        <pt x="313" y="270" on="0"/>
        <pt x="301" y="265" on="0"/>
        <pt x="298" y="262" on="1"/>
        <pt x="305" y="215" on="1"/>
        <pt x="311" y="176" on="0"/>
        <pt x="320" y="102" on="0"/>
        <pt x="320" y="69" on="1"/>
        <pt x="320" y="43" on="0"/>
        <pt x="309" y="2" on="0"/>
        <pt x="295" y="2" on="1"/>
        <pt x="288" y="2" on="0"/>
        <pt x="277" y="37" on="0"/>
        <pt x="270" y="82" on="0"/>
        <pt x="267" y="127" on="0"/>
        <pt x="267" y="137" on="1"/>
        <pt x="267" y="144" on="0"/>
        <pt x="265" y="175" on="0"/>
        <pt x="261" y="210" on="0"/>
        <pt x="257" y="241" on="0"/>
        <pt x="256" y="249" on="1"/>
        <pt x="239" y="248" on="0"/>
        <pt x="181" y="241" on="0"/>
        <pt x="139" y="230" on="1"/>
        <pt x="139" y="218" on="1"/>
        <pt x="139" y="196" on="0"/>
        <pt x="143" y="143" on="0"/>
        <pt x="148" y="88" on="0"/>
        <pt x="152" y="33" on="0"/>
        <pt x="152" y="8" on="1"/>
        <pt x="152" y="-2" on="0"/>
        <pt x="148" y="-15" on="0"/>
        <pt x="141" y="-15" on="1"/>
        <pt x="129" y="-15" on="0"/>
        <pt x="116" y="9" on="0"/>
        <pt x="110" y="42" on="0"/>
        <pt x="107" y="78" on="0"/>
        <pt x="106" y="90" on="1"/>
        <pt x="102" y="116" on="0"/>
        <pt x="97" y="185" on="0"/>
        <pt x="95" y="221" on="1"/>
        <pt x="91" y="221" on="0"/>
        <pt x="79" y="226" on="0"/>
        <pt x="67" y="233" on="0"/>
        <pt x="59" y="241" on="0"/>
        <pt x="59" y="246" on="1"/>
        <pt x="59" y="258" on="0"/>
        <pt x="81" y="273" on="0"/>
        <pt x="94" y="278" on="1"/>
        <pt x="93" y="287" on="0"/>
        <pt x="93" y="298" on="1"/>
        <pt x="93" y="416" on="1"/>
        <pt x="93" y="443" on="0"/>
        <pt x="94" y="509" on="0"/>
        <pt x="94" y="543" on="1"/>
        <pt x="95" y="551" on="0"/>
        <pt x="103" y="574" on="0"/>
        <pt x="112" y="574" on="1"/>
        <pt x="119" y="574" on="0"/>
        <pt x="129" y="563" on="0"/>
        <pt x="135" y="547" on="0"/>
        <pt x="138" y="530" on="0"/>
        <pt x="138" y="524" on="1"/>
        <pt x="138" y="285" on="1"/>
        <pt x="147" y="285" on="0"/>
        <pt x="177" y="287" on="0"/>
        <pt x="209" y="290" on="0"/>
        <pt x="240" y="294" on="0"/>
        <pt x="250" y="296" on="1"/>
        <pt x="227" y="506" on="1"/>
        <pt x="226" y="513" on="0"/>
        <pt x="225" y="529" on="0"/>
        <pt x="225" y="534" on="1"/>
        <pt x="225" y="554" on="0"/>
        <pt x="236" y="579" on="0"/>
        <pt x="247" y="579" on="1"/>
        <pt x="261" y="579" on="0"/>
        <pt x="267" y="553" on="0"/>
        <pt x="268" y="528" on="1"/>
        <pt x="269" y="512" on="0"/>
        <pt x="271" y="481" on="0"/>
        <pt x="273" y="466" on="1"/>
        <pt x="296" y="297" on="1"/>
        <pt x="308" y="297" on="0"/>
        <pt x="333" y="294" on="0"/>
      </contour>
    </TTGlyph>
    <TTGlyph name="I" xMin="5" yMin="-7" xMax="512" yMax="502">
      <contour>
        <pt x="512" y="143" on="1"/>
        <pt x="512" y="124" on="0"/>
        <pt x="489" y="115" on="1"/>
        <pt x="466" y="106" on="0"/>
        <pt x="405" y="87" on="0"/>
        <pt x="349" y="72" on="0"/>
        <pt x="306" y="59" on="0"/>
        <pt x="301" y="56" on="1"/>
        <pt x="301" y="51" on="1"/>
        <pt x="301" y="48" on="0"/>
        <pt x="302" y="45" on="1"/>
        <pt x="305" y="21" on="1"/>
        <pt x="305" y="12" on="0"/>
        <pt x="300" y="2" on="0"/>
        <pt x="292" y="2" on="1"/>
        <pt x="283" y="2" on="0"/>
        <pt x="276" y="13" on="0"/>
        <pt x="271" y="28" on="0"/>
        <pt x="268" y="44" on="0"/>
        <pt x="264" y="48" on="1"/>
        <pt x="262" y="48" on="0"/>
        <pt x="234" y="40" on="0"/>
        <pt x="191" y="28" on="0"/>
        <pt x="138" y="13" on="0"/>
        <pt x="88" y="1" on="0"/>
        <pt x="44" y="-7" on="0"/>
        <pt x="32" y="-7" on="1"/>
        <pt x="5" y="-7" on="0"/>
        <pt x="5" y="10" on="1"/>
        <pt x="5" y="23" on="0"/>
        <pt x="20" y="35" on="0"/>
        <pt x="30" y="38" on="1"/>
        <pt x="32" y="39" on="0"/>
        <pt x="67" y="47" on="0"/>
        <pt x="117" y="58" on="0"/>
        <pt x="174" y="72" on="0"/>
        <pt x="223" y="84" on="0"/>
        <pt x="254" y="94" on="0"/>
        <pt x="254" y="96" on="1"/>
        <pt x="254" y="102" on="0"/>
        <pt x="245" y="134" on="0"/>
        <pt x="241" y="148" on="1"/>
        <pt x="235" y="168" on="1"/>
        <pt x="221" y="232" on="0"/>
        <pt x="205" y="362" on="0"/>
        <pt x="200" y="425" on="1"/>
        <pt x="198" y="427" on="0"/>
        <pt x="195" y="427" on="1"/>
        <pt x="190" y="427" on="0"/>
        <pt x="148" y="407" on="0"/>
        <pt x="100" y="384" on="0"/>
        <pt x="59" y="364" on="0"/>
        <pt x="55" y="364" on="1"/>
        <pt x="48" y="364" on="0"/>
        <pt x="35" y="376" on="0"/>
        <pt x="35" y="382" on="1"/>
        <pt x="35" y="390" on="0"/>
        <pt x="61" y="411" on="0"/>
        <pt x="100" y="434" on="0"/>
        <pt x="147" y="455" on="0"/>
        <pt x="190" y="472" on="0"/>
        <pt x="221" y="482" on="0"/>
        <pt x="226" y="482" on="1"/>
        <pt x="234" y="482" on="0"/>
        <pt x="260" y="488" on="0"/>
        <pt x="290" y="496" on="0"/>
        <pt x="321" y="502" on="0"/>
        <pt x="333" y="502" on="1"/>
        <pt x="346" y="502" on="0"/>
        <pt x="346" y="493" on="1"/>
        <pt x="346" y="488" on="0"/>
        <pt x="342" y="485" on="1"/>
        <pt x="313" y="477" on="1"/>
        <pt x="302" y="474" on="0"/>
        <pt x="277" y="467" on="0"/>
        <pt x="256" y="458" on="0"/>
        <pt x="243" y="447" on="0"/>
        <pt x="243" y="441" on="1"/>
        <pt x="243" y="416" on="0"/>
        <pt x="254" y="335" on="0"/>
        <pt x="269" y="242" on="0"/>
        <pt x="287" y="146" on="0"/>
        <pt x="293" y="104" on="1"/>
        <pt x="472" y="150" on="1"/>
        <pt x="478" y="151" on="0"/>
        <pt x="484" y="153" on="1"/>
        <pt x="489" y="155" on="0"/>
        <pt x="499" y="157" on="0"/>
        <pt x="503" y="157" on="1"/>
        <pt x="512" y="157" on="0"/>
      </contour>
    </TTGlyph>
    <TTGlyph name="Iacute" xMin="5" yMin="-7" xMax="512" yMax="648">
      <contour>
        <pt x="512" y="143" on="1"/>
        <pt x="512" y="124" on="0"/>
        <pt x="489" y="115" on="1"/>
        <pt x="466" y="106" on="0"/>
        <pt x="405" y="87" on="0"/>
        <pt x="349" y="72" on="0"/>
        <pt x="306" y="59" on="0"/>
        <pt x="301" y="56" on="1"/>
        <pt x="301" y="51" on="1"/>
        <pt x="301" y="48" on="0"/>
        <pt x="302" y="45" on="1"/>
        <pt x="305" y="21" on="1"/>
        <pt x="305" y="12" on="0"/>
        <pt x="300" y="2" on="0"/>
        <pt x="292" y="2" on="1"/>
        <pt x="283" y="2" on="0"/>
        <pt x="276" y="13" on="0"/>
        <pt x="271" y="28" on="0"/>
        <pt x="268" y="44" on="0"/>
        <pt x="264" y="48" on="1"/>
        <pt x="262" y="48" on="0"/>
        <pt x="234" y="40" on="0"/>
        <pt x="191" y="28" on="0"/>
        <pt x="138" y="13" on="0"/>
        <pt x="88" y="1" on="0"/>
        <pt x="44" y="-7" on="0"/>
        <pt x="32" y="-7" on="1"/>
        <pt x="5" y="-7" on="0"/>
        <pt x="5" y="10" on="1"/>
        <pt x="5" y="23" on="0"/>
        <pt x="20" y="35" on="0"/>
        <pt x="30" y="38" on="1"/>
        <pt x="32" y="39" on="0"/>
        <pt x="67" y="47" on="0"/>
        <pt x="117" y="58" on="0"/>
        <pt x="174" y="72" on="0"/>
        <pt x="223" y="84" on="0"/>
        <pt x="254" y="94" on="0"/>
        <pt x="254" y="96" on="1"/>
        <pt x="254" y="102" on="0"/>
        <pt x="245" y="134" on="0"/>
        <pt x="241" y="148" on="1"/>
        <pt x="235" y="168" on="1"/>
        <pt x="221" y="232" on="0"/>
        <pt x="205" y="362" on="0"/>
        <pt x="200" y="425" on="1"/>
        <pt x="198" y="427" on="0"/>
        <pt x="195" y="427" on="1"/>
        <pt x="190" y="427" on="0"/>
        <pt x="148" y="407" on="0"/>
        <pt x="100" y="384" on="0"/>
        <pt x="59" y="364" on="0"/>
        <pt x="55" y="364" on="1"/>
        <pt x="48" y="364" on="0"/>
        <pt x="35" y="376" on="0"/>
        <pt x="35" y="382" on="1"/>
        <pt x="35" y="390" on="0"/>
        <pt x="61" y="411" on="0"/>
        <pt x="100" y="434" on="0"/>
        <pt x="147" y="455" on="0"/>
        <pt x="190" y="472" on="0"/>
        <pt x="221" y="482" on="0"/>
        <pt x="226" y="482" on="1"/>
        <pt x="234" y="482" on="0"/>
        <pt x="260" y="488" on="0"/>
        <pt x="290" y="496" on="0"/>
        <pt x="321" y="502" on="0"/>
        <pt x="333" y="502" on="1"/>
        <pt x="346" y="502" on="0"/>
        <pt x="346" y="493" on="1"/>
        <pt x="346" y="488" on="0"/>
        <pt x="342" y="485" on="1"/>
        <pt x="313" y="477" on="1"/>
        <pt x="302" y="474" on="0"/>
        <pt x="277" y="467" on="0"/>
        <pt x="256" y="458" on="0"/>
        <pt x="243" y="447" on="0"/>
        <pt x="243" y="441" on="1"/>
        <pt x="243" y="416" on="0"/>
        <pt x="254" y="335" on="0"/>
        <pt x="269" y="242" on="0"/>
        <pt x="287" y="146" on="0"/>
        <pt x="293" y="104" on="1"/>
        <pt x="472" y="150" on="1"/>
        <pt x="478" y="151" on="0"/>
        <pt x="484" y="153" on="1"/>
        <pt x="489" y="155" on="0"/>
        <pt x="499" y="157" on="0"/>
        <pt x="503" y="157" on="1"/>
        <pt x="512" y="157" on="0"/>
      </contour>
      <contour>
        <pt x="295" y="635" on="1"/>
        <pt x="295" y="627" on="0"/>
        <pt x="271" y="597" on="0"/>
        <pt x="238" y="565" on="0"/>
        <pt x="203" y="538" on="0"/>
        <pt x="193" y="533" on="1"/>
        <pt x="185" y="529" on="0"/>
        <pt x="173" y="527" on="0"/>
        <pt x="169" y="527" on="1"/>
        <pt x="161" y="527" on="0"/>
        <pt x="137" y="545" on="0"/>
        <pt x="137" y="553" on="1"/>
        <pt x="137" y="555" on="0"/>
        <pt x="155" y="562" on="0"/>
        <pt x="166" y="568" on="1"/>
        <pt x="176" y="574" on="0"/>
        <pt x="209" y="601" on="0"/>
        <pt x="242" y="628" on="0"/>
        <pt x="269" y="648" on="0"/>
        <pt x="274" y="648" on="1"/>
        <pt x="281" y="648" on="0"/>
        <pt x="295" y="640" on="0"/>
      </contour>
    </TTGlyph>
    <TTGlyph name="Icircumflex" xMin="5" yMin="-7" xMax="512" yMax="699">
      <contour>
        <pt x="512" y="143" on="1"/>
        <pt x="512" y="124" on="0"/>
        <pt x="489" y="115" on="1"/>
        <pt x="466" y="106" on="0"/>
        <pt x="405" y="87" on="0"/>
        <pt x="349" y="72" on="0"/>
        <pt x="306" y="59" on="0"/>
        <pt x="301" y="56" on="1"/>
        <pt x="301" y="51" on="1"/>
        <pt x="301" y="48" on="0"/>
        <pt x="302" y="45" on="1"/>
        <pt x="305" y="21" on="1"/>
        <pt x="305" y="12" on="0"/>
        <pt x="300" y="2" on="0"/>
        <pt x="292" y="2" on="1"/>
        <pt x="283" y="2" on="0"/>
        <pt x="276" y="13" on="0"/>
        <pt x="271" y="28" on="0"/>
        <pt x="268" y="44" on="0"/>
        <pt x="264" y="48" on="1"/>
        <pt x="262" y="48" on="0"/>
        <pt x="234" y="40" on="0"/>
        <pt x="191" y="28" on="0"/>
        <pt x="138" y="13" on="0"/>
        <pt x="88" y="1" on="0"/>
        <pt x="44" y="-7" on="0"/>
        <pt x="32" y="-7" on="1"/>
        <pt x="5" y="-7" on="0"/>
        <pt x="5" y="10" on="1"/>
        <pt x="5" y="23" on="0"/>
        <pt x="20" y="35" on="0"/>
        <pt x="30" y="38" on="1"/>
        <pt x="32" y="39" on="0"/>
        <pt x="67" y="47" on="0"/>
        <pt x="117" y="58" on="0"/>
        <pt x="174" y="72" on="0"/>
        <pt x="223" y="84" on="0"/>
        <pt x="254" y="94" on="0"/>
        <pt x="254" y="96" on="1"/>
        <pt x="254" y="102" on="0"/>
        <pt x="245" y="134" on="0"/>
        <pt x="241" y="148" on="1"/>
        <pt x="235" y="168" on="1"/>
        <pt x="221" y="232" on="0"/>
        <pt x="205" y="362" on="0"/>
        <pt x="200" y="425" on="1"/>
        <pt x="198" y="427" on="0"/>
        <pt x="195" y="427" on="1"/>
        <pt x="190" y="427" on="0"/>
        <pt x="148" y="407" on="0"/>
        <pt x="100" y="384" on="0"/>
        <pt x="59" y="364" on="0"/>
        <pt x="55" y="364" on="1"/>
        <pt x="48" y="364" on="0"/>
        <pt x="35" y="376" on="0"/>
        <pt x="35" y="382" on="1"/>
        <pt x="35" y="390" on="0"/>
        <pt x="61" y="411" on="0"/>
        <pt x="100" y="434" on="0"/>
        <pt x="147" y="455" on="0"/>
        <pt x="190" y="472" on="0"/>
        <pt x="221" y="482" on="0"/>
        <pt x="226" y="482" on="1"/>
        <pt x="234" y="482" on="0"/>
        <pt x="260" y="488" on="0"/>
        <pt x="290" y="496" on="0"/>
        <pt x="321" y="502" on="0"/>
        <pt x="333" y="502" on="1"/>
        <pt x="346" y="502" on="0"/>
        <pt x="346" y="493" on="1"/>
        <pt x="346" y="488" on="0"/>
        <pt x="342" y="485" on="1"/>
        <pt x="313" y="477" on="1"/>
        <pt x="302" y="474" on="0"/>
        <pt x="277" y="467" on="0"/>
        <pt x="256" y="458" on="0"/>
        <pt x="243" y="447" on="0"/>
        <pt x="243" y="441" on="1"/>
        <pt x="243" y="416" on="0"/>
        <pt x="254" y="335" on="0"/>
        <pt x="269" y="242" on="0"/>
        <pt x="287" y="146" on="0"/>
        <pt x="293" y="104" on="1"/>
        <pt x="472" y="150" on="1"/>
        <pt x="478" y="151" on="0"/>
        <pt x="484" y="153" on="1"/>
        <pt x="489" y="155" on="0"/>
        <pt x="499" y="157" on="0"/>
        <pt x="503" y="157" on="1"/>
        <pt x="512" y="157" on="0"/>
      </contour>
      <contour>
        <pt x="311" y="541" on="1"/>
        <pt x="309" y="540" on="0"/>
        <pt x="298" y="535" on="0"/>
        <pt x="293" y="535" on="1"/>
        <pt x="282" y="535" on="0"/>
        <pt x="262" y="543" on="0"/>
        <pt x="254" y="548" on="1"/>
        <pt x="237" y="557" on="0"/>
        <pt x="212" y="584" on="0"/>
        <pt x="192" y="612" on="0"/>
        <pt x="176" y="638" on="0"/>
        <pt x="170" y="645" on="1"/>
        <pt x="156" y="628" on="0"/>
        <pt x="122" y="598" on="0"/>
        <pt x="98" y="583" on="1"/>
        <pt x="90" y="579" on="0"/>
        <pt x="87" y="579" on="1"/>
        <pt x="80" y="579" on="0"/>
        <pt x="73" y="590" on="0"/>
        <pt x="73" y="594" on="1"/>
        <pt x="73" y="600" on="0"/>
        <pt x="78" y="605" on="1"/>
        <pt x="90" y="617" on="0"/>
        <pt x="114" y="649" on="0"/>
        <pt x="138" y="679" on="0"/>
        <pt x="160" y="699" on="0"/>
        <pt x="169" y="699" on="1"/>
        <pt x="187" y="699" on="0"/>
        <pt x="214" y="670" on="0"/>
        <pt x="241" y="629" on="0"/>
        <pt x="271" y="586" on="0"/>
        <pt x="293" y="571" on="1"/>
        <pt x="303" y="571" on="0"/>
        <pt x="321" y="563" on="0"/>
        <pt x="321" y="556" on="1"/>
        <pt x="321" y="551" on="0"/>
        <pt x="313" y="543" on="0"/>
      </contour>
    </TTGlyph>
    <TTGlyph name="Idieresis" xMin="5" yMin="-7" xMax="512" yMax="612">
      <contour>
        <pt x="512" y="143" on="1"/>
        <pt x="512" y="124" on="0"/>
        <pt x="489" y="115" on="1"/>
        <pt x="466" y="106" on="0"/>
        <pt x="405" y="87" on="0"/>
        <pt x="349" y="72" on="0"/>
        <pt x="306" y="59" on="0"/>
        <pt x="301" y="56" on="1"/>
        <pt x="301" y="51" on="1"/>
        <pt x="301" y="48" on="0"/>
        <pt x="302" y="45" on="1"/>
        <pt x="305" y="21" on="1"/>
        <pt x="305" y="12" on="0"/>
        <pt x="300" y="2" on="0"/>
        <pt x="292" y="2" on="1"/>
        <pt x="283" y="2" on="0"/>
        <pt x="276" y="13" on="0"/>
        <pt x="271" y="28" on="0"/>
        <pt x="268" y="44" on="0"/>
        <pt x="264" y="48" on="1"/>
        <pt x="262" y="48" on="0"/>
        <pt x="234" y="40" on="0"/>
        <pt x="191" y="28" on="0"/>
        <pt x="138" y="13" on="0"/>
        <pt x="88" y="1" on="0"/>
        <pt x="44" y="-7" on="0"/>
        <pt x="32" y="-7" on="1"/>
        <pt x="5" y="-7" on="0"/>
        <pt x="5" y="10" on="1"/>
        <pt x="5" y="23" on="0"/>
        <pt x="20" y="35" on="0"/>
        <pt x="30" y="38" on="1"/>
        <pt x="32" y="39" on="0"/>
        <pt x="67" y="47" on="0"/>
        <pt x="117" y="58" on="0"/>
        <pt x="174" y="72" on="0"/>
        <pt x="223" y="84" on="0"/>
        <pt x="254" y="94" on="0"/>
        <pt x="254" y="96" on="1"/>
        <pt x="254" y="102" on="0"/>
        <pt x="245" y="134" on="0"/>
        <pt x="241" y="148" on="1"/>
        <pt x="235" y="168" on="1"/>
        <pt x="221" y="232" on="0"/>
        <pt x="205" y="362" on="0"/>
        <pt x="200" y="425" on="1"/>
        <pt x="198" y="427" on="0"/>
        <pt x="195" y="427" on="1"/>
        <pt x="190" y="427" on="0"/>
        <pt x="148" y="407" on="0"/>
        <pt x="100" y="384" on="0"/>
        <pt x="59" y="364" on="0"/>
        <pt x="55" y="364" on="1"/>
        <pt x="48" y="364" on="0"/>
        <pt x="35" y="376" on="0"/>
        <pt x="35" y="382" on="1"/>
        <pt x="35" y="390" on="0"/>
        <pt x="61" y="411" on="0"/>
        <pt x="100" y="434" on="0"/>
        <pt x="147" y="455" on="0"/>
        <pt x="190" y="472" on="0"/>
        <pt x="221" y="482" on="0"/>
        <pt x="226" y="482" on="1"/>
        <pt x="234" y="482" on="0"/>
        <pt x="260" y="488" on="0"/>
        <pt x="290" y="496" on="0"/>
        <pt x="321" y="502" on="0"/>
        <pt x="333" y="502" on="1"/>
        <pt x="346" y="502" on="0"/>
        <pt x="346" y="493" on="1"/>
        <pt x="346" y="488" on="0"/>
        <pt x="342" y="485" on="1"/>
        <pt x="313" y="477" on="1"/>
        <pt x="302" y="474" on="0"/>
        <pt x="277" y="467" on="0"/>
        <pt x="256" y="458" on="0"/>
        <pt x="243" y="447" on="0"/>
        <pt x="243" y="441" on="1"/>
        <pt x="243" y="416" on="0"/>
        <pt x="254" y="335" on="0"/>
        <pt x="269" y="242" on="0"/>
        <pt x="287" y="146" on="0"/>
        <pt x="293" y="104" on="1"/>
        <pt x="472" y="150" on="1"/>
        <pt x="478" y="151" on="0"/>
        <pt x="484" y="153" on="1"/>
        <pt x="489" y="155" on="0"/>
        <pt x="499" y="157" on="0"/>
        <pt x="503" y="157" on="1"/>
        <pt x="512" y="157" on="0"/>
      </contour>
      <contour>
        <pt x="174" y="570" on="1"/>
        <pt x="174" y="568" on="0"/>
        <pt x="164" y="556" on="0"/>
        <pt x="149" y="543" on="0"/>
        <pt x="132" y="533" on="0"/>
        <pt x="126" y="533" on="1"/>
        <pt x="122" y="533" on="0"/>
        <pt x="109" y="534" on="0"/>
        <pt x="96" y="540" on="0"/>
        <pt x="86" y="551" on="0"/>
        <pt x="86" y="560" on="1"/>
        <pt x="86" y="574" on="0"/>
        <pt x="106" y="599" on="0"/>
        <pt x="122" y="599" on="1"/>
        <pt x="125" y="599" on="0"/>
        <pt x="142" y="594" on="0"/>
        <pt x="160" y="586" on="0"/>
        <pt x="174" y="576" on="0"/>
      </contour>
      <contour>
        <pt x="297" y="573" on="1"/>
        <pt x="297" y="567" on="0"/>
        <pt x="285" y="556" on="0"/>
        <pt x="270" y="547" on="0"/>
        <pt x="256" y="542" on="0"/>
        <pt x="255" y="542" on="1"/>
        <pt x="246" y="542" on="0"/>
        <pt x="237" y="551" on="0"/>
        <pt x="232" y="562" on="0"/>
        <pt x="231" y="572" on="0"/>
        <pt x="231" y="574" on="1"/>
        <pt x="231" y="578" on="0"/>
        <pt x="235" y="591" on="0"/>
        <pt x="243" y="603" on="0"/>
        <pt x="254" y="612" on="0"/>
        <pt x="261" y="612" on="1"/>
        <pt x="274" y="612" on="0"/>
        <pt x="297" y="590" on="0"/>
      </contour>
    </TTGlyph>
    <TTGlyph name="Igrave" xMin="5" yMin="-7" xMax="512" yMax="684">
      <contour>
        <pt x="512" y="143" on="1"/>
        <pt x="512" y="124" on="0"/>
        <pt x="489" y="115" on="1"/>
        <pt x="466" y="106" on="0"/>
        <pt x="405" y="87" on="0"/>
        <pt x="349" y="72" on="0"/>
        <pt x="306" y="59" on="0"/>
        <pt x="301" y="56" on="1"/>
        <pt x="301" y="51" on="1"/>
        <pt x="301" y="48" on="0"/>
        <pt x="302" y="45" on="1"/>
        <pt x="305" y="21" on="1"/>
        <pt x="305" y="12" on="0"/>
        <pt x="300" y="2" on="0"/>
        <pt x="292" y="2" on="1"/>
        <pt x="283" y="2" on="0"/>
        <pt x="276" y="13" on="0"/>
        <pt x="271" y="28" on="0"/>
        <pt x="268" y="44" on="0"/>
        <pt x="264" y="48" on="1"/>
        <pt x="262" y="48" on="0"/>
        <pt x="234" y="40" on="0"/>
        <pt x="191" y="28" on="0"/>
        <pt x="138" y="13" on="0"/>
        <pt x="88" y="1" on="0"/>
        <pt x="44" y="-7" on="0"/>
        <pt x="32" y="-7" on="1"/>
        <pt x="5" y="-7" on="0"/>
        <pt x="5" y="10" on="1"/>
        <pt x="5" y="23" on="0"/>
        <pt x="20" y="35" on="0"/>
        <pt x="30" y="38" on="1"/>
        <pt x="32" y="39" on="0"/>
        <pt x="67" y="47" on="0"/>
        <pt x="117" y="58" on="0"/>
        <pt x="174" y="72" on="0"/>
        <pt x="223" y="84" on="0"/>
        <pt x="254" y="94" on="0"/>
        <pt x="254" y="96" on="1"/>
        <pt x="254" y="102" on="0"/>
        <pt x="245" y="134" on="0"/>
        <pt x="241" y="148" on="1"/>
        <pt x="235" y="168" on="1"/>
        <pt x="221" y="232" on="0"/>
        <pt x="205" y="362" on="0"/>
        <pt x="200" y="425" on="1"/>
        <pt x="198" y="427" on="0"/>
        <pt x="195" y="427" on="1"/>
        <pt x="190" y="427" on="0"/>
        <pt x="148" y="407" on="0"/>
        <pt x="100" y="384" on="0"/>
        <pt x="59" y="364" on="0"/>
        <pt x="55" y="364" on="1"/>
        <pt x="48" y="364" on="0"/>
        <pt x="35" y="376" on="0"/>
        <pt x="35" y="382" on="1"/>
        <pt x="35" y="390" on="0"/>
        <pt x="61" y="411" on="0"/>
        <pt x="100" y="434" on="0"/>
        <pt x="147" y="455" on="0"/>
        <pt x="190" y="472" on="0"/>
        <pt x="221" y="482" on="0"/>
        <pt x="226" y="482" on="1"/>
        <pt x="234" y="482" on="0"/>
        <pt x="260" y="488" on="0"/>
        <pt x="290" y="496" on="0"/>
        <pt x="321" y="502" on="0"/>
        <pt x="333" y="502" on="1"/>
        <pt x="346" y="502" on="0"/>
        <pt x="346" y="493" on="1"/>
        <pt x="346" y="488" on="0"/>
        <pt x="342" y="485" on="1"/>
        <pt x="313" y="477" on="1"/>
        <pt x="302" y="474" on="0"/>
        <pt x="277" y="467" on="0"/>
        <pt x="256" y="458" on="0"/>
        <pt x="243" y="447" on="0"/>
        <pt x="243" y="441" on="1"/>
        <pt x="243" y="416" on="0"/>
        <pt x="254" y="335" on="0"/>
        <pt x="269" y="242" on="0"/>
        <pt x="287" y="146" on="0"/>
        <pt x="293" y="104" on="1"/>
        <pt x="472" y="150" on="1"/>
        <pt x="478" y="151" on="0"/>
        <pt x="484" y="153" on="1"/>
        <pt x="489" y="155" on="0"/>
        <pt x="499" y="157" on="0"/>
        <pt x="503" y="157" on="1"/>
        <pt x="512" y="157" on="0"/>
      </contour>
      <contour>
        <pt x="87" y="681" on="1"/>
        <pt x="90" y="684" on="0"/>
        <pt x="94" y="684" on="1"/>
        <pt x="99" y="684" on="0"/>
        <pt x="114" y="677" on="0"/>
        <pt x="121" y="672" on="1"/>
        <pt x="128" y="667" on="0"/>
        <pt x="156" y="638" on="0"/>
        <pt x="184" y="605" on="0"/>
        <pt x="208" y="577" on="0"/>
        <pt x="212" y="574" on="1"/>
        <pt x="213" y="573" on="0"/>
        <pt x="221" y="571" on="0"/>
        <pt x="231" y="568" on="0"/>
        <pt x="239" y="564" on="0"/>
        <pt x="239" y="561" on="1"/>
        <pt x="239" y="553" on="0"/>
        <pt x="218" y="531" on="0"/>
        <pt x="211" y="531" on="1"/>
        <pt x="205" y="531" on="0"/>
        <pt x="192" y="538" on="1"/>
        <pt x="178" y="545" on="0"/>
        <pt x="142" y="584" on="0"/>
        <pt x="109" y="628" on="0"/>
        <pt x="86" y="669" on="0"/>
        <pt x="86" y="678" on="1"/>
        <pt x="86" y="679" on="0"/>
        <pt x="87" y="680" on="0"/>
      </contour>
    </TTGlyph>
    <TTGlyph name="Imacron" xMin="5" yMin="-7" xMax="512" yMax="579">
      <contour>
        <pt x="512" y="143" on="1"/>
        <pt x="512" y="124" on="0"/>
        <pt x="489" y="115" on="1"/>
        <pt x="466" y="106" on="0"/>
        <pt x="405" y="87" on="0"/>
        <pt x="349" y="72" on="0"/>
        <pt x="306" y="59" on="0"/>
        <pt x="301" y="56" on="1"/>
        <pt x="301" y="51" on="1"/>
        <pt x="301" y="48" on="0"/>
        <pt x="302" y="45" on="1"/>
        <pt x="305" y="21" on="1"/>
        <pt x="305" y="12" on="0"/>
        <pt x="300" y="2" on="0"/>
        <pt x="292" y="2" on="1"/>
        <pt x="283" y="2" on="0"/>
        <pt x="276" y="13" on="0"/>
        <pt x="271" y="28" on="0"/>
        <pt x="268" y="44" on="0"/>
        <pt x="264" y="48" on="1"/>
        <pt x="262" y="48" on="0"/>
        <pt x="234" y="40" on="0"/>
        <pt x="191" y="28" on="0"/>
        <pt x="138" y="13" on="0"/>
        <pt x="88" y="1" on="0"/>
        <pt x="44" y="-7" on="0"/>
        <pt x="32" y="-7" on="1"/>
        <pt x="5" y="-7" on="0"/>
        <pt x="5" y="10" on="1"/>
        <pt x="5" y="23" on="0"/>
        <pt x="20" y="35" on="0"/>
        <pt x="30" y="38" on="1"/>
        <pt x="32" y="39" on="0"/>
        <pt x="67" y="47" on="0"/>
        <pt x="117" y="58" on="0"/>
        <pt x="174" y="72" on="0"/>
        <pt x="223" y="84" on="0"/>
        <pt x="254" y="94" on="0"/>
        <pt x="254" y="96" on="1"/>
        <pt x="254" y="102" on="0"/>
        <pt x="245" y="134" on="0"/>
        <pt x="241" y="148" on="1"/>
        <pt x="235" y="168" on="1"/>
        <pt x="221" y="232" on="0"/>
        <pt x="205" y="362" on="0"/>
        <pt x="200" y="425" on="1"/>
        <pt x="198" y="427" on="0"/>
        <pt x="195" y="427" on="1"/>
        <pt x="190" y="427" on="0"/>
        <pt x="148" y="407" on="0"/>
        <pt x="100" y="384" on="0"/>
        <pt x="59" y="364" on="0"/>
        <pt x="55" y="364" on="1"/>
        <pt x="48" y="364" on="0"/>
        <pt x="35" y="376" on="0"/>
        <pt x="35" y="382" on="1"/>
        <pt x="35" y="390" on="0"/>
        <pt x="61" y="411" on="0"/>
        <pt x="100" y="434" on="0"/>
        <pt x="147" y="455" on="0"/>
        <pt x="190" y="472" on="0"/>
        <pt x="221" y="482" on="0"/>
        <pt x="226" y="482" on="1"/>
        <pt x="234" y="482" on="0"/>
        <pt x="260" y="488" on="0"/>
        <pt x="290" y="496" on="0"/>
        <pt x="321" y="502" on="0"/>
        <pt x="333" y="502" on="1"/>
        <pt x="346" y="502" on="0"/>
        <pt x="346" y="493" on="1"/>
        <pt x="346" y="488" on="0"/>
        <pt x="342" y="485" on="1"/>
        <pt x="313" y="477" on="1"/>
        <pt x="302" y="474" on="0"/>
        <pt x="277" y="467" on="0"/>
        <pt x="256" y="458" on="0"/>
        <pt x="243" y="447" on="0"/>
        <pt x="243" y="441" on="1"/>
        <pt x="243" y="416" on="0"/>
        <pt x="254" y="335" on="0"/>
        <pt x="269" y="242" on="0"/>
        <pt x="287" y="146" on="0"/>
        <pt x="293" y="104" on="1"/>
        <pt x="472" y="150" on="1"/>
        <pt x="478" y="151" on="0"/>
        <pt x="484" y="153" on="1"/>
        <pt x="489" y="155" on="0"/>
        <pt x="499" y="157" on="0"/>
        <pt x="503" y="157" on="1"/>
        <pt x="512" y="157" on="0"/>
      </contour>
      <contour>
        <pt x="329" y="561" on="1"/>
        <pt x="328" y="556" on="0"/>
        <pt x="297" y="547" on="0"/>
        <pt x="250" y="539" on="0"/>
        <pt x="194" y="533" on="0"/>
        <pt x="143" y="528" on="0"/>
        <pt x="105" y="526" on="0"/>
        <pt x="99" y="526" on="1"/>
        <pt x="86" y="526" on="0"/>
        <pt x="74" y="541" on="0"/>
        <pt x="74" y="550" on="1"/>
        <pt x="74" y="555" on="0"/>
        <pt x="82" y="579" on="0"/>
        <pt x="90" y="579" on="1"/>
        <pt x="95" y="579" on="0"/>
        <pt x="101" y="571" on="0"/>
        <pt x="105" y="570" on="1"/>
        <pt x="150" y="570" on="0"/>
        <pt x="237" y="578" on="0"/>
        <pt x="284" y="578" on="1"/>
        <pt x="290" y="578" on="0"/>
        <pt x="305" y="576" on="0"/>
        <pt x="318" y="572" on="0"/>
        <pt x="328" y="566" on="0"/>
      </contour>
    </TTGlyph>
    <TTGlyph name="Iogonek" xMin="5" yMin="-169" xMax="512" yMax="502">
      <contour>
        <pt x="334" y="-111" on="1"/>
        <pt x="334" y="-119" on="0"/>
        <pt x="332" y="-131" on="0"/>
        <pt x="326" y="-139" on="1"/>
        <pt x="324" y="-142" on="0"/>
        <pt x="309" y="-152" on="0"/>
        <pt x="286" y="-162" on="0"/>
        <pt x="259" y="-169" on="0"/>
        <pt x="244" y="-169" on="1"/>
        <pt x="231" y="-169" on="0"/>
        <pt x="204" y="-159" on="0"/>
        <pt x="181" y="-141" on="0"/>
        <pt x="167" y="-114" on="0"/>
        <pt x="167" y="-96" on="1"/>
        <pt x="167" y="-75" on="0"/>
        <pt x="183" y="-35" on="0"/>
        <pt x="206" y="1" on="0"/>
        <pt x="233" y="32" on="0"/>
        <pt x="244" y="43" on="1"/>
        <pt x="226" y="38" on="0"/>
        <pt x="166" y="21" on="0"/>
        <pt x="103" y="5" on="0"/>
        <pt x="47" y="-7" on="0"/>
        <pt x="32" y="-7" on="1"/>
        <pt x="5" y="-7" on="0"/>
        <pt x="5" y="10" on="1"/>
        <pt x="5" y="23" on="0"/>
        <pt x="20" y="35" on="0"/>
        <pt x="30" y="38" on="1"/>
        <pt x="32" y="39" on="0"/>
        <pt x="67" y="47" on="0"/>
        <pt x="117" y="58" on="0"/>
        <pt x="174" y="72" on="0"/>
        <pt x="223" y="84" on="0"/>
        <pt x="254" y="94" on="0"/>
        <pt x="254" y="96" on="1"/>
        <pt x="254" y="102" on="0"/>
        <pt x="245" y="134" on="0"/>
        <pt x="241" y="148" on="1"/>
        <pt x="235" y="168" on="1"/>
        <pt x="221" y="232" on="0"/>
        <pt x="205" y="362" on="0"/>
        <pt x="200" y="425" on="1"/>
        <pt x="198" y="427" on="0"/>
        <pt x="195" y="427" on="1"/>
        <pt x="190" y="427" on="0"/>
        <pt x="148" y="407" on="0"/>
        <pt x="100" y="384" on="0"/>
        <pt x="59" y="364" on="0"/>
        <pt x="55" y="364" on="1"/>
        <pt x="48" y="364" on="0"/>
        <pt x="35" y="376" on="0"/>
        <pt x="35" y="382" on="1"/>
        <pt x="35" y="390" on="0"/>
        <pt x="61" y="411" on="0"/>
        <pt x="100" y="434" on="0"/>
        <pt x="147" y="455" on="0"/>
        <pt x="190" y="472" on="0"/>
        <pt x="221" y="482" on="0"/>
        <pt x="226" y="482" on="1"/>
        <pt x="234" y="482" on="0"/>
        <pt x="260" y="488" on="0"/>
        <pt x="290" y="496" on="0"/>
        <pt x="321" y="502" on="0"/>
        <pt x="333" y="502" on="1"/>
        <pt x="346" y="502" on="0"/>
        <pt x="346" y="493" on="1"/>
        <pt x="346" y="488" on="0"/>
        <pt x="342" y="485" on="1"/>
        <pt x="313" y="477" on="1"/>
        <pt x="302" y="474" on="0"/>
        <pt x="277" y="467" on="0"/>
        <pt x="256" y="458" on="0"/>
        <pt x="243" y="447" on="0"/>
        <pt x="243" y="441" on="1"/>
        <pt x="243" y="416" on="0"/>
        <pt x="254" y="335" on="0"/>
        <pt x="269" y="242" on="0"/>
        <pt x="287" y="146" on="0"/>
        <pt x="293" y="104" on="1"/>
        <pt x="472" y="150" on="1"/>
        <pt x="478" y="151" on="0"/>
        <pt x="484" y="153" on="1"/>
        <pt x="489" y="155" on="0"/>
        <pt x="499" y="157" on="0"/>
        <pt x="503" y="157" on="1"/>
        <pt x="512" y="157" on="0"/>
        <pt x="512" y="143" on="1"/>
        <pt x="512" y="124" on="0"/>
        <pt x="489" y="115" on="1"/>
        <pt x="471" y="107" on="0"/>
        <pt x="424" y="93" on="0"/>
        <pt x="376" y="79" on="0"/>
        <pt x="333" y="67" on="0"/>
        <pt x="319" y="63" on="1"/>
        <pt x="304" y="51" on="0"/>
        <pt x="266" y="17" on="0"/>
        <pt x="233" y="-22" on="0"/>
        <pt x="210" y="-66" on="0"/>
        <pt x="210" y="-89" on="1"/>
        <pt x="210" y="-107" on="0"/>
        <pt x="237" y="-126" on="0"/>
        <pt x="254" y="-126" on="1"/>
        <pt x="269" y="-126" on="0"/>
        <pt x="291" y="-119" on="0"/>
        <pt x="308" y="-110" on="0"/>
        <pt x="321" y="-102" on="0"/>
        <pt x="326" y="-102" on="1"/>
        <pt x="334" y="-102" on="0"/>
      </contour>
    </TTGlyph>
    <TTGlyph name="J" xMin="-71" yMin="-18" xMax="318" yMax="598">
      <contour>
        <pt x="318" y="71" on="1"/>
        <pt x="318" y="17" on="0"/>
        <pt x="268" y="-18" on="0"/>
        <pt x="209" y="-18" on="1"/>
        <pt x="189" y="-18" on="0"/>
        <pt x="134" y="-7" on="0"/>
        <pt x="83" y="15" on="0"/>
        <pt x="48" y="47" on="0"/>
        <pt x="48" y="68" on="1"/>
        <pt x="48" y="69" on="0"/>
        <pt x="51" y="88" on="0"/>
        <pt x="57" y="109" on="0"/>
        <pt x="66" y="126" on="0"/>
        <pt x="71" y="126" on="1"/>
        <pt x="81" y="126" on="0"/>
        <pt x="84" y="115" on="0"/>
        <pt x="84" y="102" on="1"/>
        <pt x="84" y="84" on="0"/>
        <pt x="109" y="56" on="0"/>
        <pt x="145" y="36" on="0"/>
        <pt x="186" y="26" on="0"/>
        <pt x="202" y="26" on="1"/>
        <pt x="215" y="26" on="0"/>
        <pt x="242" y="29" on="0"/>
        <pt x="264" y="39" on="0"/>
        <pt x="277" y="57" on="0"/>
        <pt x="277" y="72" on="1"/>
        <pt x="277" y="85" on="0"/>
        <pt x="272" y="112" on="0"/>
        <pt x="257" y="156" on="0"/>
        <pt x="229" y="225" on="0"/>
        <pt x="207" y="280" on="1"/>
        <pt x="160" y="396" on="0"/>
        <pt x="132" y="511" on="0"/>
        <pt x="131" y="515" on="1"/>
        <pt x="123" y="514" on="0"/>
        <pt x="103" y="506" on="0"/>
        <pt x="82" y="497" on="0"/>
        <pt x="62" y="489" on="0"/>
        <pt x="55" y="486" on="1"/>
        <pt x="34" y="478" on="0"/>
        <pt x="0" y="457" on="0"/>
        <pt x="-26" y="438" on="0"/>
        <pt x="-44" y="425" on="0"/>
        <pt x="-50" y="425" on="1"/>
        <pt x="-65" y="425" on="0"/>
        <pt x="-71" y="453" on="0"/>
        <pt x="-71" y="463" on="1"/>
        <pt x="-71" y="474" on="0"/>
        <pt x="-21" y="503" on="0"/>
        <pt x="55" y="533" on="0"/>
        <pt x="144" y="562" on="0"/>
        <pt x="222" y="584" on="0"/>
        <pt x="276" y="598" on="0"/>
        <pt x="279" y="598" on="1"/>
        <pt x="286" y="598" on="0"/>
        <pt x="289" y="590" on="0"/>
        <pt x="289" y="587" on="1"/>
        <pt x="289" y="581" on="0"/>
        <pt x="260" y="565" on="0"/>
        <pt x="221" y="547" on="0"/>
        <pt x="179" y="531" on="0"/>
        <pt x="166" y="526" on="1"/>
        <pt x="155" y="522" on="1"/>
        <pt x="160" y="514" on="0"/>
        <pt x="168" y="500" on="0"/>
        <pt x="177" y="478" on="0"/>
        <pt x="190" y="443" on="0"/>
        <pt x="202" y="415" on="1"/>
        <pt x="224" y="361" on="0"/>
        <pt x="266" y="253" on="0"/>
        <pt x="299" y="160" on="0"/>
        <pt x="318" y="89" on="0"/>
      </contour>
    </TTGlyph>
    <TTGlyph name="K" xMin="40" yMin="-34" xMax="455" yMax="532">
      <contour>
        <pt x="455" y="135" on="1"/>
        <pt x="455" y="125" on="0"/>
        <pt x="428" y="112" on="0"/>
        <pt x="406" y="112" on="1"/>
        <pt x="387" y="112" on="0"/>
        <pt x="306" y="120" on="0"/>
        <pt x="216" y="138" on="0"/>
        <pt x="135" y="165" on="0"/>
        <pt x="116" y="184" on="1"/>
        <pt x="118" y="176" on="0"/>
        <pt x="128" y="149" on="0"/>
        <pt x="134" y="133" on="1"/>
        <pt x="145" y="105" on="0"/>
        <pt x="164" y="48" on="0"/>
        <pt x="164" y="31" on="1"/>
        <pt x="164" y="-1" on="0"/>
        <pt x="155" y="-34" on="0"/>
        <pt x="140" y="-34" on="1"/>
        <pt x="128" y="-34" on="0"/>
        <pt x="118" y="-14" on="0"/>
        <pt x="118" y="0" on="1"/>
        <pt x="118" y="5" on="1"/>
        <pt x="118" y="9" on="0"/>
        <pt x="119" y="28" on="1"/>
        <pt x="119" y="36" on="0"/>
        <pt x="117" y="52" on="0"/>
        <pt x="115" y="58" on="1"/>
        <pt x="99" y="97" on="0"/>
        <pt x="72" y="176" on="0"/>
        <pt x="60" y="224" on="1"/>
        <pt x="57" y="234" on="0"/>
        <pt x="50" y="265" on="0"/>
        <pt x="44" y="316" on="0"/>
        <pt x="40" y="391" on="0"/>
        <pt x="40" y="445" on="1"/>
        <pt x="40" y="487" on="0"/>
        <pt x="54" y="532" on="0"/>
        <pt x="64" y="532" on="1"/>
        <pt x="73" y="532" on="0"/>
        <pt x="85" y="505" on="0"/>
        <pt x="85" y="493" on="1"/>
        <pt x="85" y="460" on="0"/>
        <pt x="84" y="424" on="0"/>
        <pt x="84" y="416" on="1"/>
        <pt x="84" y="385" on="0"/>
        <pt x="90" y="324" on="0"/>
        <pt x="94" y="298" on="1"/>
        <pt x="98" y="268" on="0"/>
        <pt x="104" y="241" on="1"/>
        <pt x="116" y="266" on="0"/>
        <pt x="145" y="323" on="0"/>
        <pt x="177" y="380" on="0"/>
        <pt x="209" y="436" on="0"/>
        <pt x="224" y="461" on="1"/>
        <pt x="234" y="478" on="0"/>
        <pt x="259" y="502" on="0"/>
        <pt x="270" y="502" on="1"/>
        <pt x="278" y="502" on="0"/>
        <pt x="298" y="489" on="0"/>
        <pt x="298" y="478" on="1"/>
        <pt x="298" y="475" on="0"/>
        <pt x="296" y="468" on="0"/>
        <pt x="295" y="466" on="1"/>
        <pt x="290" y="458" on="0"/>
        <pt x="277" y="442" on="0"/>
        <pt x="272" y="434" on="1"/>
        <pt x="256" y="411" on="0"/>
        <pt x="216" y="353" on="0"/>
        <pt x="181" y="296" on="0"/>
        <pt x="157" y="246" on="0"/>
        <pt x="157" y="231" on="1"/>
        <pt x="157" y="215" on="0"/>
        <pt x="195" y="191" on="0"/>
        <pt x="251" y="174" on="0"/>
        <pt x="318" y="163" on="0"/>
        <pt x="376" y="156" on="0"/>
        <pt x="417" y="153" on="0"/>
        <pt x="419" y="153" on="1"/>
        <pt x="442" y="153" on="0"/>
        <pt x="455" y="146" on="0"/>
      </contour>
    </TTGlyph>
    <TTGlyph name="Kcommaaccent" xMin="40" yMin="-156" xMax="455" yMax="532">
      <contour>
        <pt x="331" y="-12" on="1"/>
        <pt x="331" y="-34" on="0"/>
        <pt x="319" y="-84" on="0"/>
        <pt x="293" y="-127" on="0"/>
        <pt x="251" y="-156" on="0"/>
        <pt x="220" y="-156" on="1"/>
        <pt x="210" y="-156" on="0"/>
        <pt x="195" y="-145" on="0"/>
        <pt x="195" y="-133" on="1"/>
        <pt x="195" y="-122" on="0"/>
        <pt x="210" y="-113" on="0"/>
        <pt x="218" y="-113" on="1"/>
        <pt x="222" y="-113" on="0"/>
        <pt x="222" y="-114" on="1"/>
        <pt x="221" y="-115" on="1"/>
        <pt x="221" y="-116" on="0"/>
        <pt x="224" y="-116" on="1"/>
        <pt x="251" y="-116" on="0"/>
        <pt x="271" y="-73" on="0"/>
        <pt x="281" y="-21" on="0"/>
        <pt x="291" y="22" on="0"/>
        <pt x="308" y="22" on="1"/>
        <pt x="322" y="22" on="0"/>
        <pt x="331" y="-5" on="0"/>
      </contour>
      <contour>
        <pt x="455" y="135" on="1"/>
        <pt x="455" y="125" on="0"/>
        <pt x="428" y="112" on="0"/>
        <pt x="406" y="112" on="1"/>
        <pt x="387" y="112" on="0"/>
        <pt x="306" y="120" on="0"/>
        <pt x="216" y="138" on="0"/>
        <pt x="135" y="165" on="0"/>
        <pt x="116" y="184" on="1"/>
        <pt x="118" y="176" on="0"/>
        <pt x="128" y="149" on="0"/>
        <pt x="134" y="133" on="1"/>
        <pt x="145" y="105" on="0"/>
        <pt x="164" y="48" on="0"/>
        <pt x="164" y="31" on="1"/>
        <pt x="164" y="-1" on="0"/>
        <pt x="155" y="-34" on="0"/>
        <pt x="140" y="-34" on="1"/>
        <pt x="128" y="-34" on="0"/>
        <pt x="118" y="-14" on="0"/>
        <pt x="118" y="0" on="1"/>
        <pt x="118" y="5" on="1"/>
        <pt x="118" y="9" on="0"/>
        <pt x="119" y="28" on="1"/>
        <pt x="119" y="36" on="0"/>
        <pt x="117" y="52" on="0"/>
        <pt x="115" y="58" on="1"/>
        <pt x="99" y="97" on="0"/>
        <pt x="72" y="176" on="0"/>
        <pt x="60" y="224" on="1"/>
        <pt x="57" y="234" on="0"/>
        <pt x="50" y="265" on="0"/>
        <pt x="44" y="316" on="0"/>
        <pt x="40" y="391" on="0"/>
        <pt x="40" y="445" on="1"/>
        <pt x="40" y="487" on="0"/>
        <pt x="54" y="532" on="0"/>
        <pt x="64" y="532" on="1"/>
        <pt x="73" y="532" on="0"/>
        <pt x="85" y="505" on="0"/>
        <pt x="85" y="493" on="1"/>
        <pt x="85" y="460" on="0"/>
        <pt x="84" y="424" on="0"/>
        <pt x="84" y="416" on="1"/>
        <pt x="84" y="385" on="0"/>
        <pt x="90" y="324" on="0"/>
        <pt x="94" y="298" on="1"/>
        <pt x="98" y="268" on="0"/>
        <pt x="104" y="241" on="1"/>
        <pt x="116" y="266" on="0"/>
        <pt x="145" y="323" on="0"/>
        <pt x="177" y="380" on="0"/>
        <pt x="209" y="436" on="0"/>
        <pt x="224" y="461" on="1"/>
        <pt x="234" y="478" on="0"/>
        <pt x="259" y="502" on="0"/>
        <pt x="270" y="502" on="1"/>
        <pt x="278" y="502" on="0"/>
        <pt x="298" y="489" on="0"/>
        <pt x="298" y="478" on="1"/>
        <pt x="298" y="475" on="0"/>
        <pt x="296" y="468" on="0"/>
        <pt x="295" y="466" on="1"/>
        <pt x="290" y="458" on="0"/>
        <pt x="277" y="442" on="0"/>
        <pt x="272" y="434" on="1"/>
        <pt x="256" y="411" on="0"/>
        <pt x="216" y="353" on="0"/>
        <pt x="181" y="296" on="0"/>
        <pt x="157" y="246" on="0"/>
        <pt x="157" y="231" on="1"/>
        <pt x="157" y="215" on="0"/>
        <pt x="195" y="191" on="0"/>
        <pt x="251" y="174" on="0"/>
        <pt x="318" y="163" on="0"/>
        <pt x="376" y="156" on="0"/>
        <pt x="417" y="153" on="0"/>
        <pt x="419" y="153" on="1"/>
        <pt x="442" y="153" on="0"/>
        <pt x="455" y="146" on="0"/>
      </contour>
    </TTGlyph>
    <TTGlyph name="L" xMin="37" yMin="-46" xMax="370" yMax="539">
      <contour>
        <pt x="370" y="76" on="1"/>
        <pt x="370" y="69" on="0"/>
        <pt x="364" y="65" on="1"/>
        <pt x="355" y="59" on="0"/>
        <pt x="311" y="37" on="0"/>
        <pt x="258" y="13" on="0"/>
        <pt x="200" y="-13" on="0"/>
        <pt x="152" y="-33" on="0"/>
        <pt x="119" y="-46" on="0"/>
        <pt x="118" y="-46" on="1"/>
        <pt x="110" y="-46" on="0"/>
        <pt x="91" y="-10" on="0"/>
        <pt x="73" y="51" on="0"/>
        <pt x="57" y="132" on="0"/>
        <pt x="44" y="222" on="0"/>
        <pt x="37" y="315" on="0"/>
        <pt x="37" y="358" on="1"/>
        <pt x="37" y="422" on="0"/>
        <pt x="50" y="494" on="0"/>
        <pt x="67" y="530" on="0"/>
        <pt x="81" y="539" on="0"/>
        <pt x="82" y="539" on="1"/>
        <pt x="90" y="539" on="0"/>
        <pt x="100" y="525" on="0"/>
        <pt x="100" y="518" on="1"/>
        <pt x="100" y="514" on="0"/>
        <pt x="92" y="494" on="0"/>
        <pt x="83" y="458" on="0"/>
        <pt x="76" y="402" on="0"/>
        <pt x="76" y="362" on="1"/>
        <pt x="76" y="326" on="0"/>
        <pt x="83" y="248" on="0"/>
        <pt x="95" y="172" on="0"/>
        <pt x="110" y="104" on="0"/>
        <pt x="126" y="52" on="0"/>
        <pt x="140" y="21" on="0"/>
        <pt x="146" y="21" on="1"/>
        <pt x="147" y="21" on="0"/>
        <pt x="171" y="31" on="0"/>
        <pt x="207" y="46" on="0"/>
        <pt x="250" y="61" on="0"/>
        <pt x="272" y="67" on="1"/>
        <pt x="282" y="70" on="0"/>
        <pt x="309" y="77" on="0"/>
        <pt x="333" y="83" on="0"/>
        <pt x="352" y="87" on="0"/>
        <pt x="354" y="87" on="1"/>
        <pt x="370" y="87" on="0"/>
      </contour>
    </TTGlyph>
    <TTGlyph name="Lacute" xMin="37" yMin="-46" xMax="370" yMax="707">
      <contour>
        <pt x="370" y="76" on="1"/>
        <pt x="370" y="69" on="0"/>
        <pt x="364" y="65" on="1"/>
        <pt x="355" y="59" on="0"/>
        <pt x="311" y="37" on="0"/>
        <pt x="258" y="13" on="0"/>
        <pt x="200" y="-13" on="0"/>
        <pt x="152" y="-33" on="0"/>
        <pt x="119" y="-46" on="0"/>
        <pt x="118" y="-46" on="1"/>
        <pt x="110" y="-46" on="0"/>
        <pt x="91" y="-10" on="0"/>
        <pt x="73" y="51" on="0"/>
        <pt x="57" y="132" on="0"/>
        <pt x="44" y="222" on="0"/>
        <pt x="37" y="315" on="0"/>
        <pt x="37" y="358" on="1"/>
        <pt x="37" y="422" on="0"/>
        <pt x="50" y="494" on="0"/>
        <pt x="67" y="530" on="0"/>
        <pt x="81" y="539" on="0"/>
        <pt x="82" y="539" on="1"/>
        <pt x="90" y="539" on="0"/>
        <pt x="100" y="525" on="0"/>
        <pt x="100" y="518" on="1"/>
        <pt x="100" y="514" on="0"/>
        <pt x="92" y="494" on="0"/>
        <pt x="83" y="458" on="0"/>
        <pt x="76" y="402" on="0"/>
        <pt x="76" y="362" on="1"/>
        <pt x="76" y="326" on="0"/>
        <pt x="83" y="248" on="0"/>
        <pt x="95" y="172" on="0"/>
        <pt x="110" y="104" on="0"/>
        <pt x="126" y="52" on="0"/>
        <pt x="140" y="21" on="0"/>
        <pt x="146" y="21" on="1"/>
        <pt x="147" y="21" on="0"/>
        <pt x="171" y="31" on="0"/>
        <pt x="207" y="46" on="0"/>
        <pt x="250" y="61" on="0"/>
        <pt x="272" y="67" on="1"/>
        <pt x="282" y="70" on="0"/>
        <pt x="309" y="77" on="0"/>
        <pt x="333" y="83" on="0"/>
        <pt x="352" y="87" on="0"/>
        <pt x="354" y="87" on="1"/>
        <pt x="370" y="87" on="0"/>
      </contour>
      <contour>
        <pt x="221" y="694" on="1"/>
        <pt x="221" y="686" on="0"/>
        <pt x="197" y="656" on="0"/>
        <pt x="164" y="624" on="0"/>
        <pt x="129" y="597" on="0"/>
        <pt x="119" y="592" on="1"/>
        <pt x="111" y="588" on="0"/>
        <pt x="99" y="586" on="0"/>
        <pt x="95" y="586" on="1"/>
        <pt x="87" y="586" on="0"/>
        <pt x="63" y="604" on="0"/>
        <pt x="63" y="612" on="1"/>
        <pt x="63" y="614" on="0"/>
        <pt x="81" y="621" on="0"/>
        <pt x="92" y="627" on="1"/>
        <pt x="102" y="633" on="0"/>
        <pt x="135" y="660" on="0"/>
        <pt x="168" y="687" on="0"/>
        <pt x="195" y="707" on="0"/>
        <pt x="200" y="707" on="1"/>
        <pt x="207" y="707" on="0"/>
        <pt x="221" y="699" on="0"/>
      </contour>
    </TTGlyph>
    <TTGlyph name="Lcaron" xMin="37" yMin="-46" xMax="370" yMax="539">
      <contour>
        <pt x="370" y="76" on="1"/>
        <pt x="370" y="69" on="0"/>
        <pt x="364" y="65" on="1"/>
        <pt x="355" y="59" on="0"/>
        <pt x="311" y="37" on="0"/>
        <pt x="258" y="13" on="0"/>
        <pt x="200" y="-13" on="0"/>
        <pt x="152" y="-33" on="0"/>
        <pt x="119" y="-46" on="0"/>
        <pt x="118" y="-46" on="1"/>
        <pt x="110" y="-46" on="0"/>
        <pt x="91" y="-10" on="0"/>
        <pt x="73" y="51" on="0"/>
        <pt x="57" y="132" on="0"/>
        <pt x="44" y="222" on="0"/>
        <pt x="37" y="315" on="0"/>
        <pt x="37" y="358" on="1"/>
        <pt x="37" y="422" on="0"/>
        <pt x="50" y="494" on="0"/>
        <pt x="67" y="530" on="0"/>
        <pt x="81" y="539" on="0"/>
        <pt x="82" y="539" on="1"/>
        <pt x="90" y="539" on="0"/>
        <pt x="100" y="525" on="0"/>
        <pt x="100" y="518" on="1"/>
        <pt x="100" y="514" on="0"/>
        <pt x="92" y="494" on="0"/>
        <pt x="83" y="458" on="0"/>
        <pt x="76" y="402" on="0"/>
        <pt x="76" y="362" on="1"/>
        <pt x="76" y="326" on="0"/>
        <pt x="83" y="248" on="0"/>
        <pt x="95" y="172" on="0"/>
        <pt x="110" y="104" on="0"/>
        <pt x="126" y="52" on="0"/>
        <pt x="140" y="21" on="0"/>
        <pt x="146" y="21" on="1"/>
        <pt x="147" y="21" on="0"/>
        <pt x="171" y="31" on="0"/>
        <pt x="207" y="46" on="0"/>
        <pt x="250" y="61" on="0"/>
        <pt x="272" y="67" on="1"/>
        <pt x="282" y="70" on="0"/>
        <pt x="309" y="77" on="0"/>
        <pt x="333" y="83" on="0"/>
        <pt x="352" y="87" on="0"/>
        <pt x="354" y="87" on="1"/>
        <pt x="370" y="87" on="0"/>
      </contour>
      <contour>
        <pt x="303" y="384" on="1"/>
        <pt x="303" y="366" on="0"/>
        <pt x="288" y="336" on="0"/>
        <pt x="268" y="315" on="0"/>
        <pt x="250" y="303" on="0"/>
        <pt x="246" y="303" on="1"/>
        <pt x="243" y="303" on="0"/>
        <pt x="234" y="312" on="0"/>
        <pt x="234" y="318" on="1"/>
        <pt x="234" y="319" on="0"/>
        <pt x="242" y="331" on="0"/>
        <pt x="253" y="348" on="0"/>
        <pt x="261" y="371" on="0"/>
        <pt x="261" y="384" on="1"/>
        <pt x="261" y="410" on="0"/>
        <pt x="251" y="451" on="0"/>
        <pt x="243" y="471" on="1"/>
        <pt x="242" y="474" on="0"/>
        <pt x="239" y="482" on="0"/>
        <pt x="239" y="484" on="1"/>
        <pt x="239" y="491" on="0"/>
        <pt x="248" y="495" on="0"/>
        <pt x="253" y="495" on="1"/>
        <pt x="260" y="495" on="0"/>
        <pt x="278" y="470" on="0"/>
        <pt x="293" y="436" on="0"/>
        <pt x="303" y="397" on="0"/>
      </contour>
    </TTGlyph>
    <TTGlyph name="Lcommaaccent" xMin="37" yMin="-230" xMax="370" yMax="539">
      <contour>
        <pt x="297" y="-86" on="1"/>
        <pt x="297" y="-108" on="0"/>
        <pt x="285" y="-158" on="0"/>
        <pt x="259" y="-201" on="0"/>
        <pt x="217" y="-230" on="0"/>
        <pt x="186" y="-230" on="1"/>
        <pt x="176" y="-230" on="0"/>
        <pt x="161" y="-219" on="0"/>
        <pt x="161" y="-207" on="1"/>
        <pt x="161" y="-196" on="0"/>
        <pt x="176" y="-187" on="0"/>
        <pt x="184" y="-187" on="1"/>
        <pt x="188" y="-187" on="0"/>
        <pt x="188" y="-188" on="1"/>
        <pt x="187" y="-189" on="1"/>
        <pt x="187" y="-190" on="0"/>
        <pt x="190" y="-190" on="1"/>
        <pt x="217" y="-190" on="0"/>
        <pt x="237" y="-147" on="0"/>
        <pt x="247" y="-95" on="0"/>
        <pt x="257" y="-52" on="0"/>
        <pt x="274" y="-52" on="1"/>
        <pt x="288" y="-52" on="0"/>
        <pt x="297" y="-79" on="0"/>
      </contour>
      <contour>
        <pt x="370" y="76" on="1"/>
        <pt x="370" y="69" on="0"/>
        <pt x="364" y="65" on="1"/>
        <pt x="355" y="59" on="0"/>
        <pt x="311" y="37" on="0"/>
        <pt x="258" y="13" on="0"/>
        <pt x="200" y="-13" on="0"/>
        <pt x="152" y="-33" on="0"/>
        <pt x="119" y="-46" on="0"/>
        <pt x="118" y="-46" on="1"/>
        <pt x="110" y="-46" on="0"/>
        <pt x="91" y="-10" on="0"/>
        <pt x="73" y="51" on="0"/>
        <pt x="57" y="132" on="0"/>
        <pt x="44" y="222" on="0"/>
        <pt x="37" y="315" on="0"/>
        <pt x="37" y="358" on="1"/>
        <pt x="37" y="422" on="0"/>
        <pt x="50" y="494" on="0"/>
        <pt x="67" y="530" on="0"/>
        <pt x="81" y="539" on="0"/>
        <pt x="82" y="539" on="1"/>
        <pt x="90" y="539" on="0"/>
        <pt x="100" y="525" on="0"/>
        <pt x="100" y="518" on="1"/>
        <pt x="100" y="514" on="0"/>
        <pt x="92" y="494" on="0"/>
        <pt x="83" y="458" on="0"/>
        <pt x="76" y="402" on="0"/>
        <pt x="76" y="362" on="1"/>
        <pt x="76" y="326" on="0"/>
        <pt x="83" y="248" on="0"/>
        <pt x="95" y="172" on="0"/>
        <pt x="110" y="104" on="0"/>
        <pt x="126" y="52" on="0"/>
        <pt x="140" y="21" on="0"/>
        <pt x="146" y="21" on="1"/>
        <pt x="147" y="21" on="0"/>
        <pt x="171" y="31" on="0"/>
        <pt x="207" y="46" on="0"/>
        <pt x="250" y="61" on="0"/>
        <pt x="272" y="67" on="1"/>
        <pt x="282" y="70" on="0"/>
        <pt x="309" y="77" on="0"/>
        <pt x="333" y="83" on="0"/>
        <pt x="352" y="87" on="0"/>
        <pt x="354" y="87" on="1"/>
        <pt x="370" y="87" on="0"/>
      </contour>
    </TTGlyph>
</ttFont>
